  0
SECTION
  2
HEADER
  9
$ACADVER
  1
AC1014
  9
$HANDSEED
  5
FFFF
  9
$MEASUREMENT
 70
     1
  0
ENDSEC
  0
SECTION
  2
TABLES
  0
TABLE
  2
VPORT
  5
8
330
0
100
AcDbSymbolTable
 70
     4
  0
VPORT
  5
2E
330
8
100
AcDbSymbolTableRecord
100
AcDbViewportTableRecord
  2
*ACTIVE
 70
     0
 10
0.0
 20
0.0
 11
1.0
 21
1.0
 12
210.0
 22
148.5
 13
0.0
 23
0.0
 14
10.0
 24
10.0
 15
10.0
 25
10.0
 16
0.0
 26
0.0
 36
1.0
 17
0.0
 27
0.0
 37
0.0
 40
341.0
 41
1.24
 42
50.0
 43
0.0
 44
0.0
 50
0.0
 51
0.0
 71
     0
 72
   100
 73
     1
 74
     3
 75
     0
 76
     0
 77
     0
 78
     0
  0
ENDTAB
  0
TABLE
  2
LTYPE
  5
5
330
0
100
AcDbSymbolTable
 70
     1
  0
LTYPE
  5
14
330
5
100
AcDbSymbolTableRecord
100
AcDbLinetypeTableRecord
  2
BYBLOCK
 70
     0
  3

 72
    65
 73
     0
 40
0.0
  0
LTYPE
  5
15
330
5
100
AcDbSymbolTableRecord
100
AcDbLinetypeTableRecord
  2
BYLAYER
 70
     0
  3

 72
    65
 73
     0
 40
0.0
  0
LTYPE
  5
16
330
5
100
AcDbSymbolTableRecord
100
AcDbLinetypeTableRecord
  2
CONTINUOUS
 70
     0
  3
Solid line
 72
    65
 73
     0
 40
0.0
  0
ENDTAB
  0
TABLE
  2
LAYER
  5
2
100
AcDbSymbolTable
 70
6
  0
LAYER
  5
50
100
AcDbSymbolTableRecord
100
AcDbLayerTableRecord
  2
0
 70
0
  6
CONTINUOUS
  0
LAYER
  5
51
100
AcDbSymbolTableRecord
100
AcDbLayerTableRecord
  2
Layer_1
 70
0
  6
CONTINUOUS
  0
LAYER
  5
52
100
AcDbSymbolTableRecord
100
AcDbLayerTableRecord
  2
Cut_3
 70
0
  6
CONTINUOUS
  0
LAYER
  5
53
100
AcDbSymbolTableRecord
100
AcDbLayerTableRecord
  2
Cut_2
 70
0
  6
CONTINUOUS
  0
LAYER
  5
54
100
AcDbSymbolTableRecord
100
AcDbLayerTableRecord
  2
Cut_1
 70
0
  6
CONTINUOUS
  0
LAYER
  5
55
100
AcDbSymbolTableRecord
100
AcDbLayerTableRecord
  2
Engrave_1
 70
0
  6
CONTINUOUS
  0
ENDTAB
  0
TABLE
  2
STYLE
  5
3
330
0
100
AcDbSymbolTable
 70
     1
  0
STYLE
  5
11
330
3
100
AcDbSymbolTableRecord
100
AcDbTextStyleTableRecord
  2
STANDARD
 70
     0
 40
0.0
 41
1.0
 50
0.0
 71
     0
 42
2.5
  3
txt
  4

  0
ENDTAB
  0
TABLE
  2
VIEW
  5
6
330
0
100
AcDbSymbolTable
 70
     0
  0
ENDTAB
  0
TABLE
  2
UCS
  5
7
330
0
100
AcDbSymbolTable
 70
     0
  0
ENDTAB
  0
TABLE
  2
APPID
  5
9
330
0
100
AcDbSymbolTable
 70
     2
  0
APPID
  5
12
330
9
100
AcDbSymbolTableRecord
100
AcDbRegAppTableRecord
  2
ACAD
 70
     0
  0
ENDTAB
  0
TABLE
  2
DIMSTYLE
  5
A
330
0
100
AcDbSymbolTable
 70
     1
  0
DIMSTYLE
105
27
330
A
100
AcDbSymbolTableRecord
100
AcDbDimStyleTableRecord
  2
ISO-25
 70
     0
  3

  4

  5

  6

  7

 40
1.0
 41
2.5
 42
0.625
 43
3.75
 44
1.25
 45
0.0
 46
0.0
 47
0.0
 48
0.0
140
2.5
141
2.5
142
0.0
143
0.03937007874016
144
1.0
145
0.0
146
1.0
147
0.625
 71
     0
 72
     0
 73
     0
 74
     0
 75
     0
 76
     0
 77
     1
 78
     8
170
     0
171
     3
172
     1
173
     0
174
     0
175
     0
176
     0
177
     0
178
     0
270
     2
271
     2
272
     2
273
     2
274
     3
340
11
275
     0
280
     0
281
     0
282
     0
283
     0
284
     8
285
     0
286
     0
287
     3
288
     0
  0
ENDTAB
  0
TABLE
  2
BLOCK_RECORD
  5
1
330
0
100
AcDbSymbolTable
 70
     1
  0
BLOCK_RECORD
  5
1F
330
1
100
AcDbSymbolTableRecord
100
AcDbBlockTableRecord
  2
*MODEL_SPACE
  0
BLOCK_RECORD
  5
1B
330
1
100
AcDbSymbolTableRecord
100
AcDbBlockTableRecord
  2
*PAPER_SPACE
  0
ENDTAB
  0
ENDSEC
  0
SECTION
  2
BLOCKS
  0
BLOCK
  5
20
330
1F
100
AcDbEntity
  8
0
100
AcDbBlockBegin
  2
*MODEL_SPACE
 70
     0
 10
0.0
 20
0.0
 30
0.0
  3
*MODEL_SPACE
  1

  0
ENDBLK
  5
21
330
1F
100
AcDbEntity
  8
0
100
AcDbBlockEnd
  0
BLOCK
  5
1C
330
1B
100
AcDbEntity
 67
     1
  8
0
100
AcDbBlockBegin
  2
*PAPER_SPACE
  1

  0
ENDBLK
  5
1D
330
1B
100
AcDbEntity
 67
     1
  8
0
100
AcDbBlockEnd
  0
ENDSEC
  0
SECTION
  2
ENTITIES
  0
LWPOLYLINE
  5
100
100
AcDbEntity
  8
Layer_1
 62
7
100
AcDbPolyline
 90
5
 70
0
 10
26.000000
 20
112.999987
 30
0.0
 10
115.000003
 20
112.999987
 30
0.0
 10
115.000003
 20
89.999987
 30
0.0
 10
26.000000
 20
89.999987
 30
0.0
 10
26.000000
 20
112.999987
 30
0.0
  0
LWPOLYLINE
  5
101
100
AcDbEntity
  8
Layer_1
 62
7
100
AcDbPolyline
 90
5
 70
0
 10
26.000000
 20
182.999994
 30
0.0
 10
115.000003
 20
182.999994
 30
0.0
 10
115.000003
 20
124.999994
 30
0.0
 10
26.000000
 20
124.999994
 30
0.0
 10
26.000000
 20
182.999994
 30
0.0
  0
LWPOLYLINE
  5
102
100
AcDbEntity
  8
Layer_1
 62
7
100
AcDbPolyline
 90
5
 70
0
 10
129.999997
 20
112.999987
 30
0.0
 10
187.999997
 20
112.999987
 30
0.0
 10
187.999997
 20
89.999987
 30
0.0
 10
129.999997
 20
89.999987
 30
0.0
 10
129.999997
 20
112.999987
 30
0.0
  0
LWPOLYLINE
  5
103
100
AcDbEntity
  8
Layer_1
 62
7
100
AcDbPolyline
 90
5
 70
0
 10
26.000000
 20
77.999986
 30
0.0
 10
115.000003
 20
77.999986
 30
0.0
 10
115.000003
 20
19.999987
 30
0.0
 10
26.000000
 20
19.999987
 30
0.0
 10
26.000000
 20
77.999986
 30
0.0
  0
LWPOLYLINE
  5
104
100
AcDbEntity
  8
Layer_1
 62
7
100
AcDbPolyline
 90
5
 70
0
 10
129.999997
 20
69.999991
 30
0.0
 10
188.000002
 20
69.999991
 30
0.0
 10
188.000002
 20
46.999991
 30
0.0
 10
129.999997
 20
46.999991
 30
0.0
 10
129.999997
 20
69.999991
 30
0.0
  0
LWPOLYLINE
  5
105
100
AcDbEntity
  8
Layer_1
 62
7
100
AcDbPolyline
 90
5
 70
0
 10
26.000000
 20
219.999993
 30
0.0
 10
115.000003
 20
219.999993
 30
0.0
 10
115.000003
 20
196.999993
 30
0.0
 10
26.000000
 20
196.999993
 30
0.0
 10
26.000000
 20
219.999993
 30
0.0
  0
LWPOLYLINE
  5
106
100
AcDbEntity
  8
Cut_2
 62
1
100
AcDbPolyline
 90
21
 70
0
 10
222.226418
 20
201.192001
 30
0.0
 10
228.226420
 20
201.192001
 30
0.0
 10
234.226419
 20
207.191992
 30
0.0
 10
234.226419
 20
232.191993
 30
0.0
 10
233.226418
 20
233.191994
 30
0.0
 10
222.226418
 20
233.191994
 30
0.0
 10
219.226418
 20
236.191993
 30
0.0
 10
205.226418
 20
236.191993
 30
0.0
 10
205.226418
 20
233.191994
 30
0.0
 10
195.226418
 20
233.191994
 30
0.0
 10
195.226418
 20
236.191993
 30
0.0
 10
181.226418
 20
236.191993
 30
0.0
 10
178.226418
 20
233.191994
 30
0.0
 10
167.226420
 20
233.191994
 30
0.0
 10
166.226422
 20
232.191993
 30
0.0
 10
166.226422
 20
207.191992
 30
0.0
 10
172.226422
 20
201.192001
 30
0.0
 10
178.226418
 20
201.192001
 30
0.0
 10
184.226417
 20
207.191995
 30
0.0
 10
216.226418
 20
207.191995
 30
0.0
 10
222.226418
 20
201.192001
 30
0.0
  0
SPLINE
  5
107
100
AcDbEntity
  8
Cut_2
 62
1
100
AcDbSpline
 70
8
 71
3
 72
8
 73
4
 74
0
 40
0
 40
0
 40
0
 40
0
 40
1
 40
1
 40
1
 40
1
 10
187.384340
 20
111.761497
 30
0.0
 10
176.717672
 20
111.761491
 30
0.0
 10
166.051007
 20
111.761500
 30
0.0
 10
155.384339
 20
111.761500
 30
0.0
  0
LWPOLYLINE
  5
108
100
AcDbEntity
  8
Cut_2
 62
1
100
AcDbPolyline
 90
3
 70
0
 10
162.384339
 20
111.761494
 30
0.0
 10
162.384339
 20
114.761494
 30
0.0
 10
187.384340
 20
111.761497
 30
0.0
  0
LWPOLYLINE
  5
109
100
AcDbEntity
  8
Cut_2
 62
1
100
AcDbPolyline
 90
47
 70
0
 10
155.384339
 20
111.761500
 30
0.0
 10
155.384339
 20
113.761504
 30
0.0
 10
153.384340
 20
112.761498
 30
0.0
 10
153.384340
 20
110.761493
 30
0.0
 10
155.384339
 20
109.761495
 30
0.0
 10
180.384340
 20
107.761496
 30
0.0
 10
160.384340
 20
107.761496
 30
0.0
 10
159.384340
 20
108.761494
 30
0.0
 10
158.384342
 20
107.761494
 30
0.0
 10
158.384342
 20
94.761494
 30
0.0
 10
155.384339
 20
93.761496
 30
0.0
 10
155.384339
 20
90.761494
 30
0.0
 10
153.384340
 20
89.761493
 30
0.0
 10
153.384340
 20
87.761491
 30
0.0
 10
155.384339
 20
86.761502
 30
0.0
 10
155.384339
 20
88.761503
 30
0.0
 10
158.384342
 20
88.761492
 30
0.0
 10
159.384001
 20
87.761494
 30
0.0
 10
170.384340
 20
87.761497
 30
0.0
 10
173.384337
 20
85.761495
 30
0.0
 10
183.384342
 20
85.761495
 30
0.0
 10
186.384339
 20
87.761497
 30
0.0
 10
219.384341
 20
87.761497
 30
0.0
 10
222.384341
 20
85.761495
 30
0.0
 10
232.384340
 20
85.761495
 30
0.0
 10
235.384340
 20
87.761497
 30
0.0
 10
246.384341
 20
87.761494
 30
0.0
 10
247.384339
 20
88.761495
 30
0.0
 10
250.384341
 20
88.761503
 30
0.0
 10
250.384341
 20
86.761502
 30
0.0
 10
252.384340
 20
87.761494
 30
0.0
 10
252.384340
 20
89.761496
 30
0.0
 10
250.384341
 20
90.761494
 30
0.0
 10
250.384341
 20
93.761496
 30
0.0
 10
247.384339
 20
94.761494
 30
0.0
 10
247.384339
 20
107.761494
 30
0.0
 10
246.384341
 20
108.761494
 30
0.0
 10
245.384340
 20
107.761496
 30
0.0
 10
225.384340
 20
107.761496
 30
0.0
 10
250.384341
 20
109.761495
 30
0.0
 10
252.384340
 20
110.761493
 30
0.0
 10
252.384340
 20
112.761498
 30
0.0
 10
250.384341
 20
113.761504
 30
0.0
 10
250.384341
 20
111.761500
 30
0.0
 10
218.384340
 20
111.761497
 30
0.0
 10
243.384341
 20
114.761494
 30
0.0
 10
243.384341
 20
111.761494
 30
0.0
  0
LWPOLYLINE
  5
10a
100
AcDbEntity
  8
Cut_2
 62
1
100
AcDbPolyline
 90
19
 70
0
 10
97.714748
 20
197.128049
 30
0.0
 10
97.714748
 20
224.128052
 30
0.0
 10
132.714746
 20
224.128052
 30
0.0
 10
132.714746
 20
224.128052
 30
0.0
 10
132.714746
 20
200.128049
 30
0.0
 10
135.714748
 20
200.128049
 30
0.0
 10
135.714748
 20
190.128049
 30
0.0
 10
132.714746
 20
190.128049
 30
0.0
 10
132.714746
 20
166.128052
 30
0.0
 10
97.714748
 20
166.128052
 30
0.0
 10
97.714748
 20
163.128050
 30
0.0
 10
82.714747
 20
163.128050
 30
0.0
 10
82.714747
 20
188.128050
 30
0.0
 10
80.714748
 20
163.128052
 30
0.0
 10
79.714748
 20
161.128051
 30
0.0
 10
77.714749
 20
161.128051
 30
0.0
 10
76.714748
 20
163.128044
 30
0.0
 10
78.714747
 20
163.128047
 30
0.0
 10
78.714747
 20
166.128049
 30
0.0
  0
LWPOLYLINE
  5
10b
100
AcDbEntity
  8
Cut_2
 62
1
100
AcDbPolyline
 90
18
 70
0
 10
78.714747
 20
193.128049
 30
0.0
 10
78.714747
 20
166.128049
 30
0.0
 10
43.714746
 20
166.128049
 30
0.0
 10
43.714746
 20
190.128049
 30
0.0
 10
40.714744
 20
190.128049
 30
0.0
 10
40.714744
 20
200.128049
 30
0.0
 10
43.714746
 20
200.128049
 30
0.0
 10
43.714746
 20
224.128049
 30
0.0
 10
78.714747
 20
224.128049
 30
0.0
 10
78.714747
 20
227.128049
 30
0.0
 10
93.714748
 20
227.128049
 30
0.0
 10
93.714748
 20
202.128048
 30
0.0
 10
95.714747
 20
227.128046
 30
0.0
 10
96.714747
 20
229.128047
 30
0.0
 10
98.714746
 20
229.128047
 30
0.0
 10
99.714747
 20
227.128051
 30
0.0
 10
97.714748
 20
227.128049
 30
0.0
 10
97.714748
 20
224.128049
 30
0.0
  0
LWPOLYLINE
  5
10c
100
AcDbEntity
  8
Cut_2
 62
1
100
AcDbPolyline
 90
19
 70
0
 10
68.714747
 20
129.128044
 30
0.0
 10
68.714747
 20
156.128047
 30
0.0
 10
107.714748
 20
156.128047
 30
0.0
 10
107.714748
 20
157.128045
 30
0.0
 10
110.714748
 20
159.128046
 30
0.0
 10
117.714748
 20
159.128055
 30
0.0
 10
117.714748
 20
156.128055
 30
0.0
 10
132.714746
 20
156.128055
 30
0.0
 10
132.714746
 20
98.128036
 30
0.0
 10
117.714748
 20
98.128036
 30
0.0
 10
117.714748
 20
95.128030
 30
0.0
 10
111.714748
 20
95.128030
 30
0.0
 10
111.714748
 20
120.128045
 30
0.0
 10
109.714747
 20
95.128030
 30
0.0
 10
108.714746
 20
93.128034
 30
0.0
 10
106.714747
 20
93.128034
 30
0.0
 10
105.714746
 20
95.128075
 30
0.0
 10
107.714748
 20
95.128047
 30
0.0
 10
107.714748
 20
98.128036
 30
0.0
  0
LWPOLYLINE
  5
10d
100
AcDbEntity
  8
Cut_2
 62
1
100
AcDbPolyline
 90
19
 70
0
 10
107.714748
 20
125.128047
 30
0.0
 10
107.714748
 20
98.128047
 30
0.0
 10
68.714747
 20
98.128047
 30
0.0
 10
68.714747
 20
97.128046
 30
0.0
 10
65.714747
 20
95.128059
 30
0.0
 10
58.714744
 20
95.128030
 30
0.0
 10
58.714744
 20
98.128033
 30
0.0
 10
43.714749
 20
98.128036
 30
0.0
 10
43.714749
 20
156.128055
 30
0.0
 10
58.714747
 20
156.128047
 30
0.0
 10
58.714747
 20
159.128049
 30
0.0
 10
64.714747
 20
159.128046
 30
0.0
 10
64.714747
 20
134.128048
 30
0.0
 10
66.714751
 20
159.128043
 30
0.0
 10
67.714746
 20
161.128048
 30
0.0
 10
69.714748
 20
161.128048
 30
0.0
 10
70.714749
 20
159.199765
 30
0.0
 10
68.714750
 20
159.199762
 30
0.0
 10
68.714750
 20
156.128044
 30
0.0
  0
LWPOLYLINE
  5
10e
100
AcDbEntity
  8
Cut_2
 62
1
100
AcDbPolyline
 90
21
 70
0
 10
222.226420
 20
165.191983
 30
0.0
 10
228.226422
 20
165.191983
 30
0.0
 10
234.226422
 20
171.191971
 30
0.0
 10
234.226422
 20
196.191994
 30
0.0
 10
233.226421
 20
197.191995
 30
0.0
 10
222.226420
 20
197.191995
 30
0.0
 10
219.226421
 20
200.191995
 30
0.0
 10
205.226420
 20
200.191995
 30
0.0
 10
205.226420
 20
197.191995
 30
0.0
 10
195.226421
 20
197.191995
 30
0.0
 10
195.226421
 20
200.191995
 30
0.0
 10
181.226420
 20
200.191995
 30
0.0
 10
178.226421
 20
197.191995
 30
0.0
 10
167.226423
 20
197.191995
 30
0.0
 10
166.226425
 20
196.191994
 30
0.0
 10
166.226425
 20
171.191971
 30
0.0
 10
172.226424
 20
165.191983
 30
0.0
 10
178.226421
 20
165.191983
 30
0.0
 10
184.226420
 20
171.191999
 30
0.0
 10
216.226421
 20
171.191999
 30
0.0
 10
222.226420
 20
165.191983
 30
0.0
  0
SPLINE
  5
10f
100
AcDbEntity
  8
Cut_2
 62
1
100
AcDbSpline
 70
8
 71
3
 72
8
 73
4
 74
0
 40
0
 40
0
 40
0
 40
0
 40
1
 40
1
 40
1
 40
1
 10
187.384340
 20
149.761503
 30
0.0
 10
176.717672
 20
149.761497
 30
0.0
 10
166.051004
 20
149.761503
 30
0.0
 10
155.384339
 20
149.761503
 30
0.0
  0
LWPOLYLINE
  5
110
100
AcDbEntity
  8
Cut_2
 62
1
100
AcDbPolyline
 90
3
 70
0
 10
162.384339
 20
149.761500
 30
0.0
 10
162.384339
 20
152.761500
 30
0.0
 10
187.384340
 20
149.761503
 30
0.0
  0
LWPOLYLINE
  5
111
100
AcDbEntity
  8
Cut_2
 62
1
100
AcDbPolyline
 90
47
 70
0
 10
155.384339
 20
149.761503
 30
0.0
 10
155.384339
 20
151.761507
 30
0.0
 10
153.384343
 20
150.761504
 30
0.0
 10
153.384343
 20
148.761499
 30
0.0
 10
155.384342
 20
147.761501
 30
0.0
 10
180.384340
 20
145.761502
 30
0.0
 10
160.384343
 20
145.761502
 30
0.0
 10
159.384342
 20
146.761500
 30
0.0
 10
158.384344
 20
145.761499
 30
0.0
 10
158.384344
 20
132.761500
 30
0.0
 10
155.384339
 20
131.761502
 30
0.0
 10
155.384342
 20
128.761500
 30
0.0
 10
153.384343
 20
127.761499
 30
0.0
 10
153.384343
 20
125.761497
 30
0.0
 10
155.384339
 20
124.761499
 30
0.0
 10
155.384339
 20
126.761501
 30
0.0
 10
158.384344
 20
126.761498
 30
0.0
 10
159.384340
 20
125.761500
 30
0.0
 10
170.384340
 20
125.761503
 30
0.0
 10
173.384340
 20
123.761501
 30
0.0
 10
183.384342
 20
123.761501
 30
0.0
 10
186.384339
 20
125.761503
 30
0.0
 10
219.384341
 20
125.761503
 30
0.0
 10
222.384341
 20
123.761501
 30
0.0
 10
232.384340
 20
123.761501
 30
0.0
 10
235.384340
 20
125.761503
 30
0.0
 10
246.384341
 20
125.761500
 30
0.0
 10
247.384339
 20
126.761501
 30
0.0
 10
250.384341
 20
126.761501
 30
0.0
 10
250.384341
 20
124.761499
 30
0.0
 10
252.384340
 20
125.761500
 30
0.0
 10
252.384340
 20
127.761502
 30
0.0
 10
250.384341
 20
128.761500
 30
0.0
 10
250.384341
 20
131.761502
 30
0.0
 10
247.384339
 20
132.761500
 30
0.0
 10
247.384339
 20
145.761499
 30
0.0
 10
246.384343
 20
146.761500
 30
0.0
 10
245.384343
 20
145.761502
 30
0.0
 10
225.384340
 20
145.761502
 30
0.0
 10
250.384341
 20
147.761501
 30
0.0
 10
252.384340
 20
148.761499
 30
0.0
 10
252.384340
 20
150.761504
 30
0.0
 10
250.384341
 20
151.761507
 30
0.0
 10
250.384341
 20
149.761503
 30
0.0
 10
218.384340
 20
149.761500
 30
0.0
 10
243.384341
 20
152.761500
 30
0.0
 10
243.384341
 20
149.761500
 30
0.0
  0
LWPOLYLINE
  5
112
100
AcDbEntity
  8
Cut_2
 62
1
100
AcDbPolyline
 90
34
 70
0
 10
247.384336
 20
111.761497
 30
0.0
 10
245.384337
 20
116.761498
 30
0.0
 10
243.384338
 20
116.761498
 30
0.0
 10
242.384337
 20
117.761499
 30
0.0
 10
241.384336
 20
116.761498
 30
0.0
 10
240.384338
 20
117.761499
 30
0.0
 10
239.384340
 20
116.761498
 30
0.0
 10
238.384340
 20
117.761499
 30
0.0
 10
237.384339
 20
116.761498
 30
0.0
 10
236.384341
 20
117.761499
 30
0.0
 10
235.384340
 20
116.761498
 30
0.0
 10
234.384339
 20
117.761499
 30
0.0
 10
233.384338
 20
116.761498
 30
0.0
 10
212.384338
 20
116.761498
 30
0.0
 10
212.384338
 20
113.761499
 30
0.0
 10
193.384337
 20
113.761499
 30
0.0
 10
193.384342
 20
116.828297
 30
0.0
 10
195.384344
 20
116.828297
 30
0.0
 10
194.384337
 20
118.761500
 30
0.0
 10
192.384339
 20
118.761500
 30
0.0
 10
187.384337
 20
116.761498
 30
0.0
 10
172.384333
 20
116.761498
 30
0.0
 10
171.384333
 20
117.761499
 30
0.0
 10
170.384335
 20
116.761498
 30
0.0
 10
169.384334
 20
117.761499
 30
0.0
 10
168.384336
 20
116.761498
 30
0.0
 10
167.384335
 20
117.761499
 30
0.0
 10
166.384334
 20
116.761498
 30
0.0
 10
165.384336
 20
117.761499
 30
0.0
 10
164.384338
 20
116.761498
 30
0.0
 10
163.384337
 20
117.761499
 30
0.0
 10
162.384336
 20
116.761498
 30
0.0
 10
160.384338
 20
116.761498
 30
0.0
 10
158.384336
 20
111.761497
 30
0.0
  0
LWPOLYLINE
  5
113
100
AcDbEntity
  8
Cut_2
 62
1
100
AcDbPolyline
 90
34
 70
0
 10
247.384336
 20
149.761500
 30
0.0
 10
245.384337
 20
154.761501
 30
0.0
 10
243.384338
 20
154.761501
 30
0.0
 10
242.384337
 20
155.761502
 30
0.0
 10
241.384336
 20
154.761501
 30
0.0
 10
240.384338
 20
155.761502
 30
0.0
 10
239.384340
 20
154.761501
 30
0.0
 10
238.384340
 20
155.761502
 30
0.0
 10
237.384339
 20
154.761501
 30
0.0
 10
236.384341
 20
155.761502
 30
0.0
 10
235.384340
 20
154.761501
 30
0.0
 10
234.384339
 20
155.761502
 30
0.0
 10
233.384338
 20
154.761501
 30
0.0
 10
212.384338
 20
154.761501
 30
0.0
 10
212.384338
 20
151.761502
 30
0.0
 10
193.384337
 20
151.761502
 30
0.0
 10
193.384345
 20
154.831337
 30
0.0
 10
195.384347
 20
154.831337
 30
0.0
 10
194.384337
 20
156.761503
 30
0.0
 10
192.384339
 20
156.761503
 30
0.0
 10
187.384337
 20
154.761501
 30
0.0
 10
172.384336
 20
154.761501
 30
0.0
 10
171.384335
 20
155.761502
 30
0.0
 10
170.384335
 20
154.761501
 30
0.0
 10
169.384334
 20
155.761502
 30
0.0
 10
168.384336
 20
154.761501
 30
0.0
 10
167.384335
 20
155.761502
 30
0.0
 10
166.384334
 20
154.761501
 30
0.0
 10
165.384336
 20
155.761502
 30
0.0
 10
164.384341
 20
154.761501
 30
0.0
 10
163.384340
 20
155.761502
 30
0.0
 10
162.384339
 20
154.761501
 30
0.0
 10
160.384340
 20
154.761501
 30
0.0
 10
158.384339
 20
149.761500
 30
0.0
  0
LWPOLYLINE
  5
114
100
AcDbEntity
  8
Cut_2
 62
5
100
AcDbPolyline
 90
5
 70
0
 10
183.384340
 20
128.761500
 30
0.0
 10
173.384340
 20
128.761500
 30
0.0
 10
173.384340
 20
125.761503
 30
0.0
 10
183.384340
 20
125.761500
 30
0.0
 10
183.384340
 20
128.761500
 30
0.0
  0
LWPOLYLINE
  5
115
100
AcDbEntity
  8
Cut_2
 62
5
100
AcDbPolyline
 90
5
 70
0
 10
222.384341
 20
128.761500
 30
0.0
 10
222.384341
 20
125.761500
 30
0.0
 10
232.384340
 20
125.761500
 30
0.0
 10
232.384340
 20
128.761500
 30
0.0
 10
222.384341
 20
128.761500
 30
0.0
  0
LWPOLYLINE
  5
116
100
AcDbEntity
  8
Cut_2
 62
5
100
AcDbPolyline
 90
5
 70
0
 10
222.384341
 20
90.761502
 30
0.0
 10
222.384341
 20
87.761503
 30
0.0
 10
232.384340
 20
87.761503
 30
0.0
 10
232.384340
 20
90.761502
 30
0.0
 10
222.384341
 20
90.761502
 30
0.0
  0
LWPOLYLINE
  5
117
100
AcDbEntity
  8
Cut_2
 62
5
100
AcDbPolyline
 90
5
 70
0
 10
173.384340
 20
90.761499
 30
0.0
 10
173.384340
 20
87.761500
 30
0.0
 10
183.384340
 20
87.761500
 30
0.0
 10
183.384340
 20
90.761499
 30
0.0
 10
173.384340
 20
90.761499
 30
0.0
  0
LWPOLYLINE
  5
118
100
AcDbEntity
  8
Cut_2
 62
5
100
AcDbPolyline
 90
5
 70
0
 10
168.226421
 20
231.191995
 30
0.0
 10
168.226421
 20
227.191994
 30
0.0
 10
171.226424
 20
227.191994
 30
0.0
 10
171.226424
 20
231.191995
 30
0.0
 10
168.226421
 20
231.191995
 30
0.0
  0
LWPOLYLINE
  5
119
100
AcDbEntity
  8
Cut_2
 62
5
100
AcDbPolyline
 90
5
 70
0
 10
229.226420
 20
231.191995
 30
0.0
 10
229.226420
 20
227.191994
 30
0.0
 10
232.226420
 20
227.191994
 30
0.0
 10
232.226420
 20
231.191995
 30
0.0
 10
229.226420
 20
231.191995
 30
0.0
  0
LWPOLYLINE
  5
11a
100
AcDbEntity
  8
Cut_1
 62
5
100
AcDbPolyline
 90
5
 70
0
 10
229.226420
 20
195.191994
 30
0.0
 10
229.226420
 20
191.191993
 30
0.0
 10
232.226420
 20
191.191993
 30
0.0
 10
232.226420
 20
195.191994
 30
0.0
 10
229.226420
 20
195.191994
 30
0.0
  0
LWPOLYLINE
  5
11b
100
AcDbEntity
  8
Cut_1
 62
5
100
AcDbPolyline
 90
5
 70
0
 10
168.226421
 20
195.191994
 30
0.0
 10
168.226421
 20
191.191993
 30
0.0
 10
171.226424
 20
191.191993
 30
0.0
 10
171.226424
 20
195.191994
 30
0.0
 10
168.226421
 20
195.191994
 30
0.0
  0
LWPOLYLINE
  5
11c
100
AcDbEntity
  8
Cut_1
 62
5
100
AcDbPolyline
 90
5
 70
0
 10
168.226421
 20
214.191995
 30
0.0
 10
168.226421
 20
208.191993
 30
0.0
 10
171.226424
 20
208.191993
 30
0.0
 10
171.226424
 20
214.191995
 30
0.0
 10
168.226421
 20
214.191995
 30
0.0
  0
LWPOLYLINE
  5
11d
100
AcDbEntity
  8
Cut_1
 62
5
100
AcDbPolyline
 90
5
 70
0
 10
229.226420
 20
214.191995
 30
0.0
 10
229.226420
 20
208.191993
 30
0.0
 10
232.226420
 20
208.191993
 30
0.0
 10
232.226420
 20
214.191995
 30
0.0
 10
229.226420
 20
214.191995
 30
0.0
  0
LWPOLYLINE
  5
11e
100
AcDbEntity
  8
Cut_1
 62
5
100
AcDbPolyline
 90
5
 70
0
 10
229.226420
 20
178.191994
 30
0.0
 10
229.226420
 20
172.191997
 30
0.0
 10
232.226420
 20
172.191997
 30
0.0
 10
232.226420
 20
178.191994
 30
0.0
 10
229.226420
 20
178.191994
 30
0.0
  0
LWPOLYLINE
  5
11f
100
AcDbEntity
  8
Cut_1
 62
5
100
AcDbPolyline
 90
5
 70
0
 10
168.226421
 20
178.191994
 30
0.0
 10
168.226421
 20
172.191997
 30
0.0
 10
171.226424
 20
172.191997
 30
0.0
 10
171.226424
 20
178.191994
 30
0.0
 10
168.226421
 20
178.191994
 30
0.0
  0
SPLINE
  5
120
100
AcDbEntity
  8
Engrave_1
 62
3
100
AcDbSpline
 70
8
 71
3
 72
8
 73
4
 74
0
 40
0
 40
0
 40
0
 40
0
 40
1
 40
1
 40
1
 40
1
 10
53.106036
 20
211.058687
 30
0.0
 10
53.144107
 20
211.051720
 30
0.0
 10
53.206385
 20
211.040109
 30
0.0
 10
53.244456
 20
211.033002
 30
0.0
  0
LWPOLYLINE
  5
121
100
AcDbEntity
  8
Engrave_1
 62
3
100
AcDbPolyline
 90
2
 70
0
 10
52.956850
 20
211.086484
 30
0.0
 10
53.106036
 20
211.058687
 30
0.0
  0
SPLINE
  5
122
100
AcDbEntity
  8
Engrave_1
 62
3
100
AcDbSpline
 70
8
 71
3
 72
8
 73
4
 74
0
 40
0
 40
0
 40
0
 40
0
 40
1
 40
1
 40
1
 40
1
 10
54.516414
 20
210.796414
 30
0.0
 10
54.554484
 20
210.789307
 30
0.0
 10
54.596003
 20
210.753628
 30
0.0
 10
54.608670
 20
210.717035
 30
0.0
  0
LWPOLYLINE
  5
123
100
AcDbEntity
  8
Engrave_1
 62
3
100
AcDbPolyline
 90
2
 70
0
 10
53.244456
 20
211.033002
 30
0.0
 10
54.516414
 20
210.796414
 30
0.0
  0
SPLINE
  5
124
100
AcDbEntity
  8
Engrave_1
 62
3
100
AcDbSpline
 70
8
 71
3
 72
8
 73
4
 74
0
 40
0
 40
0
 40
0
 40
0
 40
1
 40
1
 40
1
 40
1
 10
55.086842
 20
209.601724
 30
0.0
 10
55.104646
 20
209.567313
 30
0.0
 10
55.101197
 20
209.513127
 30
0.0
 10
55.079312
 20
209.481108
 30
0.0
  0
LWPOLYLINE
  5
125
100
AcDbEntity
  8
Engrave_1
 62
3
100
AcDbPolyline
 90
2
 70
0
 10
54.608670
 20
210.717035
 30
0.0
 10
55.086842
 20
209.601724
 30
0.0
  0
SPLINE
  5
126
100
AcDbEntity
  8
Engrave_1
 62
3
100
AcDbSpline
 70
8
 71
3
 72
8
 73
4
 74
0
 40
0
 40
0
 40
0
 40
0
 40
1
 40
1
 40
1
 40
1
 10
54.335982
 20
208.397956
 30
0.0
 10
54.314097
 20
208.366008
 30
0.0
 10
54.278207
 20
208.313792
 30
0.0
 10
54.256392
 20
208.281844
 30
0.0
  0
LWPOLYLINE
  5
127
100
AcDbEntity
  8
Engrave_1
 62
3
100
AcDbPolyline
 90
2
 70
0
 10
55.079312
 20
209.481108
 30
0.0
 10
54.335982
 20
208.397956
 30
0.0
  0
SPLINE
  5
128
100
AcDbEntity
  8
Engrave_1
 62
3
100
AcDbSpline
 70
8
 71
3
 72
8
 73
4
 74
0
 40
0
 40
0
 40
0
 40
0
 40
1
 40
1
 40
1
 40
1
 10
54.170469
 20
208.156724
 30
0.0
 10
54.148725
 20
208.124846
 30
0.0
 10
54.153158
 20
208.076360
 30
0.0
 10
54.180532
 20
208.048986
 30
0.0
  0
LWPOLYLINE
  5
129
100
AcDbEntity
  8
Engrave_1
 62
3
100
AcDbPolyline
 90
2
 70
0
 10
54.256392
 20
208.281844
 30
0.0
 10
54.170469
 20
208.156724
 30
0.0
  0
SPLINE
  5
12a
100
AcDbEntity
  8
Engrave_1
 62
3
100
AcDbSpline
 70
8
 71
3
 72
8
 73
4
 74
0
 40
0
 40
0
 40
0
 40
0
 40
1
 40
1
 40
1
 40
1
 10
55.315477
 20
206.913971
 30
0.0
 10
55.342781
 20
206.886596
 30
0.0
 10
55.391337
 20
206.882093
 30
0.0
 10
55.423215
 20
206.903978
 30
0.0
  0
LWPOLYLINE
  5
12b
100
AcDbEntity
  8
Engrave_1
 62
3
100
AcDbPolyline
 90
8
 70
0
 10
54.180532
 20
208.048986
 30
0.0
 10
54.287778
 20
207.941740
 30
0.0
 10
54.387283
 20
207.842236
 30
0.0
 10
54.698253
 20
207.531266
 30
0.0
 10
54.797757
 20
207.431761
 30
0.0
 10
55.108586
 20
207.120791
 30
0.0
 10
55.208161
 20
207.021216
 30
0.0
 10
55.315477
 20
206.913971
 30
0.0
  0
SPLINE
  5
12c
100
AcDbEntity
  8
Engrave_1
 62
3
100
AcDbSpline
 70
8
 71
3
 72
8
 73
4
 74
0
 40
0
 40
0
 40
0
 40
0
 40
1
 40
1
 40
1
 40
1
 10
55.548335
 20
206.989831
 30
0.0
 10
55.580284
 20
207.011786
 30
0.0
 10
55.632499
 20
207.047535
 30
0.0
 10
55.664377
 20
207.069491
 30
0.0
  0
LWPOLYLINE
  5
12d
100
AcDbEntity
  8
Engrave_1
 62
3
100
AcDbPolyline
 90
2
 70
0
 10
55.423215
 20
206.903978
 30
0.0
 10
55.548335
 20
206.989831
 30
0.0
  0
SPLINE
  5
12e
100
AcDbEntity
  8
Engrave_1
 62
3
100
AcDbSpline
 70
8
 71
3
 72
8
 73
4
 74
0
 40
0
 40
0
 40
0
 40
0
 40
1
 40
1
 40
1
 40
1
 10
56.770751
 20
207.828795
 30
0.0
 10
56.802630
 20
207.850751
 30
0.0
 10
56.857167
 20
207.854621
 30
0.0
 10
56.891930
 20
207.837591
 30
0.0
  0
LWPOLYLINE
  5
12f
100
AcDbEntity
  8
Engrave_1
 62
3
100
AcDbPolyline
 90
2
 70
0
 10
55.664377
 20
207.069491
 30
0.0
 10
56.770751
 20
207.828795
 30
0.0
  0
SPLINE
  5
130
100
AcDbEntity
  8
Engrave_1
 62
3
100
AcDbSpline
 70
8
 71
3
 72
8
 73
4
 74
0
 40
0
 40
0
 40
0
 40
0
 40
1
 40
1
 40
1
 40
1
 10
57.973182
 20
207.395027
 30
0.0
 10
58.009916
 20
207.382853
 30
0.0
 10
58.045664
 20
207.341757
 30
0.0
 10
58.052842
 20
207.303756
 30
0.0
  0
LWPOLYLINE
  5
131
100
AcDbEntity
  8
Engrave_1
 62
3
100
AcDbPolyline
 90
2
 70
0
 10
56.891930
 20
207.837591
 30
0.0
 10
57.973182
 20
207.395027
 30
0.0
  0
SPLINE
  5
132
100
AcDbEntity
  8
Engrave_1
 62
3
100
AcDbSpline
 70
8
 71
3
 72
8
 73
4
 74
0
 40
0
 40
0
 40
0
 40
0
 40
1
 40
1
 40
1
 40
1
 10
58.299493
 20
205.978106
 30
0.0
 10
58.306530
 20
205.940035
 30
0.0
 10
58.318212
 20
205.877756
 30
0.0
 10
58.325178
 20
205.839756
 30
0.0
  0
LWPOLYLINE
  5
133
100
AcDbEntity
  8
Engrave_1
 62
3
100
AcDbPolyline
 90
2
 70
0
 10
58.052842
 20
207.303756
 30
0.0
 10
58.299493
 20
205.978106
 30
0.0
  0
SPLINE
  5
134
100
AcDbEntity
  8
Engrave_1
 62
3
100
AcDbSpline
 70
8
 71
3
 72
8
 73
4
 74
0
 40
0
 40
0
 40
0
 40
0
 40
1
 40
1
 40
1
 40
1
 10
58.353045
 20
205.690569
 30
0.0
 10
58.360083
 20
205.652569
 30
0.0
 10
58.397590
 20
205.621465
 30
0.0
 10
58.436224
 20
205.621465
 30
0.0
  0
LWPOLYLINE
  5
135
100
AcDbEntity
  8
Engrave_1
 62
3
100
AcDbPolyline
 90
2
 70
0
 10
58.325178
 20
205.839756
 30
0.0
 10
58.353045
 20
205.690569
 30
0.0
  0
SPLINE
  5
136
100
AcDbEntity
  8
Engrave_1
 62
3
100
AcDbSpline
 70
8
 71
3
 72
8
 73
4
 74
0
 40
0
 40
0
 40
0
 40
0
 40
1
 40
1
 40
1
 40
1
 10
60.041459
 20
205.621465
 30
0.0
 10
60.080163
 20
205.621465
 30
0.0
 10
60.117600
 20
205.652569
 30
0.0
 10
60.124638
 20
205.690640
 30
0.0
  0
LWPOLYLINE
  5
137
100
AcDbEntity
  8
Engrave_1
 62
3
100
AcDbPolyline
 90
8
 70
0
 10
58.436224
 20
205.621465
 30
0.0
 10
58.587944
 20
205.621465
 30
0.0
 10
58.728686
 20
205.621465
 30
0.0
 10
59.168506
 20
205.621465
 30
0.0
 10
59.309248
 20
205.621465
 30
0.0
 10
59.749067
 20
205.621465
 30
0.0
 10
59.889809
 20
205.621465
 30
0.0
 10
60.041459
 20
205.621465
 30
0.0
  0
SPLINE
  5
138
100
AcDbEntity
  8
Engrave_1
 62
3
100
AcDbSpline
 70
8
 71
3
 72
8
 73
4
 74
0
 40
0
 40
0
 40
0
 40
0
 40
1
 40
1
 40
1
 40
1
 10
60.152434
 20
205.839756
 30
0.0
 10
60.159542
 20
205.877756
 30
0.0
 10
60.171083
 20
205.940035
 30
0.0
 10
60.178120
 20
205.978106
 30
0.0
  0
LWPOLYLINE
  5
139
100
AcDbEntity
  8
Engrave_1
 62
3
100
AcDbPolyline
 90
2
 70
0
 10
60.124638
 20
205.690640
 30
0.0
 10
60.152434
 20
205.839756
 30
0.0
  0
SPLINE
  5
13a
100
AcDbEntity
  8
Engrave_1
 62
3
100
AcDbSpline
 70
8
 71
3
 72
8
 73
4
 74
0
 40
0
 40
0
 40
0
 40
0
 40
1
 40
1
 40
1
 40
1
 10
60.424841
 20
207.303756
 30
0.0
 10
60.431948
 20
207.341757
 30
0.0
 10
60.467697
 20
207.382853
 30
0.0
 10
60.504501
 20
207.395027
 30
0.0
  0
LWPOLYLINE
  5
13b
100
AcDbEntity
  8
Engrave_1
 62
3
100
AcDbPolyline
 90
2
 70
0
 10
60.178120
 20
205.978106
 30
0.0
 10
60.424841
 20
207.303756
 30
0.0
  0
SPLINE
  5
13c
100
AcDbEntity
  8
Engrave_1
 62
3
100
AcDbSpline
 70
8
 71
3
 72
8
 73
4
 74
0
 40
0
 40
0
 40
0
 40
0
 40
1
 40
1
 40
1
 40
1
 10
61.585753
 20
207.837591
 30
0.0
 10
61.620516
 20
207.854621
 30
0.0
 10
61.675053
 20
207.850751
 30
0.0
 10
61.706932
 20
207.828795
 30
0.0
  0
LWPOLYLINE
  5
13d
100
AcDbEntity
  8
Engrave_1
 62
3
100
AcDbPolyline
 90
2
 70
0
 10
60.504501
 20
207.395027
 30
0.0
 10
61.585753
 20
207.837591
 30
0.0
  0
SPLINE
  5
13e
100
AcDbEntity
  8
Engrave_1
 62
3
100
AcDbSpline
 70
8
 71
3
 72
8
 73
4
 74
0
 40
0
 40
0
 40
0
 40
0
 40
1
 40
1
 40
1
 40
1
 10
62.813306
 20
207.069491
 30
0.0
 10
62.845254
 20
207.047535
 30
0.0
 10
62.897470
 20
207.011786
 30
0.0
 10
62.929348
 20
206.989831
 30
0.0
  0
LWPOLYLINE
  5
13f
100
AcDbEntity
  8
Engrave_1
 62
3
100
AcDbPolyline
 90
2
 70
0
 10
61.706932
 20
207.828795
 30
0.0
 10
62.813306
 20
207.069491
 30
0.0
  0
SPLINE
  5
140
100
AcDbEntity
  8
Engrave_1
 62
3
100
AcDbSpline
 70
8
 71
3
 72
8
 73
4
 74
0
 40
0
 40
0
 40
0
 40
0
 40
1
 40
1
 40
1
 40
1
 10
63.054468
 20
206.903978
 30
0.0
 10
63.086346
 20
206.882093
 30
0.0
 10
63.134902
 20
206.886596
 30
0.0
 10
63.162206
 20
206.913971
 30
0.0
  0
LWPOLYLINE
  5
141
100
AcDbEntity
  8
Engrave_1
 62
3
100
AcDbPolyline
 90
2
 70
0
 10
62.929348
 20
206.989831
 30
0.0
 10
63.054468
 20
206.903978
 30
0.0
  0
SPLINE
  5
142
100
AcDbEntity
  8
Engrave_1
 62
3
100
AcDbSpline
 70
8
 71
3
 72
8
 73
4
 74
0
 40
0
 40
0
 40
0
 40
0
 40
1
 40
1
 40
1
 40
1
 10
64.297151
 20
208.048986
 30
0.0
 10
64.324525
 20
208.076360
 30
0.0
 10
64.329029
 20
208.124846
 30
0.0
 10
64.307143
 20
208.156724
 30
0.0
  0
LWPOLYLINE
  5
143
100
AcDbEntity
  8
Engrave_1
 62
3
100
AcDbPolyline
 90
8
 70
0
 10
63.162206
 20
206.913971
 30
0.0
 10
63.269522
 20
207.021216
 30
0.0
 10
63.369026
 20
207.120791
 30
0.0
 10
63.679996
 20
207.431831
 30
0.0
 10
63.779501
 20
207.531336
 30
0.0
 10
64.090400
 20
207.842236
 30
0.0
 10
64.189905
 20
207.941740
 30
0.0
 10
64.297151
 20
208.048986
 30
0.0
  0
SPLINE
  5
144
100
AcDbEntity
  8
Engrave_1
 62
3
100
AcDbSpline
 70
8
 71
3
 72
8
 73
4
 74
0
 40
0
 40
0
 40
0
 40
0
 40
1
 40
1
 40
1
 40
1
 10
64.221291
 20
208.281844
 30
0.0
 10
64.199476
 20
208.313792
 30
0.0
 10
64.163586
 20
208.366008
 30
0.0
 10
64.141701
 20
208.397956
 30
0.0
  0
LWPOLYLINE
  5
145
100
AcDbEntity
  8
Engrave_1
 62
3
100
AcDbPolyline
 90
2
 70
0
 10
64.307143
 20
208.156724
 30
0.0
 10
64.221291
 20
208.281844
 30
0.0
  0
SPLINE
  5
146
100
AcDbEntity
  8
Engrave_1
 62
3
100
AcDbSpline
 70
8
 71
3
 72
8
 73
4
 74
0
 40
0
 40
0
 40
0
 40
0
 40
1
 40
1
 40
1
 40
1
 10
63.398371
 20
209.481108
 30
0.0
 10
63.376486
 20
209.513127
 30
0.0
 10
63.373108
 20
209.567313
 30
0.0
 10
63.390841
 20
209.601724
 30
0.0
  0
LWPOLYLINE
  5
147
100
AcDbEntity
  8
Engrave_1
 62
3
100
AcDbPolyline
 90
2
 70
0
 10
64.141701
 20
208.397956
 30
0.0
 10
63.398371
 20
209.481108
 30
0.0
  0
SPLINE
  5
148
100
AcDbEntity
  8
Engrave_1
 62
3
100
AcDbSpline
 70
8
 71
3
 72
8
 73
4
 74
0
 40
0
 40
0
 40
0
 40
0
 40
1
 40
1
 40
1
 40
1
 10
63.868943
 20
210.717035
 30
0.0
 10
63.881680
 20
210.753628
 30
0.0
 10
63.923199
 20
210.789307
 30
0.0
 10
63.961269
 20
210.796414
 30
0.0
  0
LWPOLYLINE
  5
149
100
AcDbEntity
  8
Engrave_1
 62
3
100
AcDbPolyline
 90
2
 70
0
 10
63.390841
 20
209.601724
 30
0.0
 10
63.868943
 20
210.717035
 30
0.0
  0
SPLINE
  5
14a
100
AcDbEntity
  8
Engrave_1
 62
3
100
AcDbSpline
 70
8
 71
3
 72
8
 73
4
 74
0
 40
0
 40
0
 40
0
 40
0
 40
1
 40
1
 40
1
 40
1
 10
65.233227
 20
211.033002
 30
0.0
 10
65.271298
 20
211.040109
 30
0.0
 10
65.333576
 20
211.051720
 30
0.0
 10
65.371647
 20
211.058687
 30
0.0
  0
LWPOLYLINE
  5
14b
100
AcDbEntity
  8
Engrave_1
 62
3
100
AcDbPolyline
 90
2
 70
0
 10
63.961269
 20
210.796414
 30
0.0
 10
65.233227
 20
211.033002
 30
0.0
  0
SPLINE
  5
14c
100
AcDbEntity
  8
Engrave_1
 62
3
100
AcDbSpline
 70
8
 71
3
 72
8
 73
4
 74
0
 40
0
 40
0
 40
0
 40
0
 40
1
 40
1
 40
1
 40
1
 10
65.520833
 20
211.086484
 30
0.0
 10
65.558904
 20
211.093662
 30
0.0
 10
65.590008
 20
211.131029
 30
0.0
 10
65.590008
 20
211.169803
 30
0.0
  0
LWPOLYLINE
  5
14d
100
AcDbEntity
  8
Engrave_1
 62
3
100
AcDbPolyline
 90
2
 70
0
 10
65.371647
 20
211.058687
 30
0.0
 10
65.520833
 20
211.086484
 30
0.0
  0
SPLINE
  5
14e
100
AcDbEntity
  8
Engrave_1
 62
3
100
AcDbSpline
 70
8
 71
3
 72
8
 73
4
 74
0
 40
0
 40
0
 40
0
 40
0
 40
1
 40
1
 40
1
 40
1
 10
65.589938
 20
212.774897
 30
0.0
 10
65.589938
 20
212.813601
 30
0.0
 10
65.558763
 20
212.851109
 30
0.0
 10
65.520693
 20
212.858146
 30
0.0
  0
LWPOLYLINE
  5
14f
100
AcDbEntity
  8
Engrave_1
 62
3
100
AcDbPolyline
 90
8
 70
0
 10
65.590008
 20
211.169803
 30
0.0
 10
65.589938
 20
211.321523
 30
0.0
 10
65.589938
 20
211.462265
 30
0.0
 10
65.589938
 20
211.902085
 30
0.0
 10
65.589938
 20
212.042827
 30
0.0
 10
65.589938
 20
212.482505
 30
0.0
 10
65.589938
 20
212.623248
 30
0.0
 10
65.589938
 20
212.774897
 30
0.0
  0
SPLINE
  5
150
100
AcDbEntity
  8
Engrave_1
 62
3
100
AcDbSpline
 70
8
 71
3
 72
8
 73
4
 74
0
 40
0
 40
0
 40
0
 40
0
 40
1
 40
1
 40
1
 40
1
 10
65.371576
 20
212.885872
 30
0.0
 10
65.333506
 20
212.892980
 30
0.0
 10
65.271227
 20
212.904591
 30
0.0
 10
65.233156
 20
212.911699
 30
0.0
  0
LWPOLYLINE
  5
151
100
AcDbEntity
  8
Engrave_1
 62
3
100
AcDbPolyline
 90
2
 70
0
 10
65.520693
 20
212.858146
 30
0.0
 10
65.371576
 20
212.885872
 30
0.0
  0
SPLINE
  5
152
100
AcDbEntity
  8
Engrave_1
 62
3
100
AcDbSpline
 70
8
 71
3
 72
8
 73
4
 74
0
 40
0
 40
0
 40
0
 40
0
 40
1
 40
1
 40
1
 40
1
 10
63.999481
 20
213.141249
 30
0.0
 10
63.961410
 20
213.148286
 30
0.0
 10
63.920736
 20
213.184316
 30
0.0
 10
63.909124
 20
213.221261
 30
0.0
  0
LWPOLYLINE
  5
153
100
AcDbEntity
  8
Engrave_1
 62
3
100
AcDbPolyline
 90
2
 70
0
 10
65.233156
 20
212.911699
 30
0.0
 10
63.999481
 20
213.141249
 30
0.0
  0
SPLINE
  5
154
100
AcDbEntity
  8
Engrave_1
 62
3
100
AcDbSpline
 70
8
 71
3
 72
8
 73
4
 74
0
 40
0
 40
0
 40
0
 40
0
 40
1
 40
1
 40
1
 40
1
 10
63.434260
 20
214.407647
 30
0.0
 10
63.417230
 20
214.442340
 30
0.0
 10
63.421242
 20
214.497019
 30
0.0
 10
63.443197
 20
214.528897
 30
0.0
  0
LWPOLYLINE
  5
155
100
AcDbEntity
  8
Engrave_1
 62
3
100
AcDbPolyline
 90
2
 70
0
 10
63.909124
 20
213.221261
 30
0.0
 10
63.434260
 20
214.407647
 30
0.0
  0
SPLINE
  5
156
100
AcDbEntity
  8
Engrave_1
 62
3
100
AcDbSpline
 70
8
 71
3
 72
8
 73
4
 74
0
 40
0
 40
0
 40
0
 40
0
 40
1
 40
1
 40
1
 40
1
 10
64.141771
 20
215.546885
 30
0.0
 10
64.163727
 20
215.578833
 30
0.0
 10
64.199616
 20
215.631049
 30
0.0
 10
64.221431
 20
215.662856
 30
0.0
  0
LWPOLYLINE
  5
157
100
AcDbEntity
  8
Engrave_1
 62
3
100
AcDbPolyline
 90
2
 70
0
 10
63.443197
 20
214.528897
 30
0.0
 10
64.141771
 20
215.546885
 30
0.0
  0
SPLINE
  5
158
100
AcDbEntity
  8
Engrave_1
 62
3
100
AcDbSpline
 70
8
 71
3
 72
8
 73
4
 74
0
 40
0
 40
0
 40
0
 40
0
 40
1
 40
1
 40
1
 40
1
 10
64.307354
 20
215.788117
 30
0.0
 10
64.329169
 20
215.819995
 30
0.0
 10
64.324736
 20
215.868481
 30
0.0
 10
64.297362
 20
215.895855
 30
0.0
  0
LWPOLYLINE
  5
159
100
AcDbEntity
  8
Engrave_1
 62
3
100
AcDbPolyline
 90
2
 70
0
 10
64.221431
 20
215.662856
 30
0.0
 10
64.307354
 20
215.788117
 30
0.0
  0
SPLINE
  5
15a
100
AcDbEntity
  8
Engrave_1
 62
3
100
AcDbSpline
 70
8
 71
3
 72
8
 73
4
 74
0
 40
0
 40
0
 40
0
 40
0
 40
1
 40
1
 40
1
 40
1
 10
63.162206
 20
217.030800
 30
0.0
 10
63.134902
 20
217.058104
 30
0.0
 10
63.086346
 20
217.062608
 30
0.0
 10
63.054468
 20
217.040722
 30
0.0
  0
LWPOLYLINE
  5
15b
100
AcDbEntity
  8
Engrave_1
 62
3
100
AcDbPolyline
 90
8
 70
0
 10
64.297362
 20
215.895855
 30
0.0
 10
64.190046
 20
216.003101
 30
0.0
 10
64.090541
 20
216.102605
 30
0.0
 10
63.779430
 20
216.413716
 30
0.0
 10
63.679926
 20
216.513221
 30
0.0
 10
63.369097
 20
216.823979
 30
0.0
 10
63.269592
 20
216.923554
 30
0.0
 10
63.162206
 20
217.030800
 30
0.0
  0
SPLINE
  5
15c
100
AcDbEntity
  8
Engrave_1
 62
3
100
AcDbSpline
 70
8
 71
3
 72
8
 73
4
 74
0
 40
0
 40
0
 40
0
 40
0
 40
1
 40
1
 40
1
 40
1
 10
62.929418
 20
216.954940
 30
0.0
 10
62.897540
 20
216.933055
 30
0.0
 10
62.845325
 20
216.897165
 30
0.0
 10
62.813376
 20
216.875350
 30
0.0
  0
LWPOLYLINE
  5
15d
100
AcDbEntity
  8
Engrave_1
 62
3
100
AcDbPolyline
 90
2
 70
0
 10
63.054468
 20
217.040722
 30
0.0
 10
62.929418
 20
216.954940
 30
0.0
  0
SPLINE
  5
15e
100
AcDbEntity
  8
Engrave_1
 62
3
100
AcDbSpline
 70
8
 71
3
 72
8
 73
4
 74
0
 40
0
 40
0
 40
0
 40
0
 40
1
 40
1
 40
1
 40
1
 10
61.817485
 20
216.191906
 30
0.0
 10
61.785606
 20
216.170021
 30
0.0
 10
61.732195
 20
216.168262
 30
0.0
 10
61.698909
 20
216.187825
 30
0.0
  0
LWPOLYLINE
  5
15f
100
AcDbEntity
  8
Engrave_1
 62
3
100
AcDbPolyline
 90
2
 70
0
 10
62.813376
 20
216.875350
 30
0.0
 10
61.817485
 20
216.191906
 30
0.0
  0
SPLINE
  5
160
100
AcDbEntity
  8
Engrave_1
 62
3
100
AcDbSpline
 70
8
 71
3
 72
8
 73
4
 74
0
 40
0
 40
0
 40
0
 40
0
 40
1
 40
1
 40
1
 40
1
 10
61.492159
 20
216.304218
 30
0.0
 10
61.458099
 20
216.322515
 30
0.0
 10
61.402014
 20
216.351860
 30
0.0
 10
61.367532
 20
216.369452
 30
0.0
  0
LWPOLYLINE
  5
161
100
AcDbEntity
  8
Engrave_1
 62
3
100
AcDbPolyline
 90
2
 70
0
 10
61.698909
 20
216.187825
 30
0.0
 10
61.492159
 20
216.304218
 30
0.0
  0
SPLINE
  5
162
100
AcDbEntity
  8
Engrave_1
 62
3
100
AcDbSpline
 70
8
 71
3
 72
8
 73
4
 74
0
 40
0
 40
0
 40
0
 40
0
 40
1
 40
1
 40
1
 40
1
 10
61.153393
 20
216.479091
 30
0.0
 10
61.118840
 20
216.496683
 30
0.0
 10
61.078588
 20
216.481835
 30
0.0
 10
61.063740
 20
216.446087
 30
0.0
  0
LWPOLYLINE
  5
163
100
AcDbEntity
  8
Engrave_1
 62
3
100
AcDbPolyline
 90
2
 70
0
 10
61.367532
 20
216.369452
 30
0.0
 10
61.153393
 20
216.479091
 30
0.0
  0
SPLINE
  5
164
100
AcDbEntity
  8
Engrave_1
 62
3
100
AcDbSpline
 70
8
 71
3
 72
8
 73
4
 74
0
 40
0
 40
0
 40
0
 40
0
 40
1
 40
1
 40
1
 40
1
 10
60.971835
 20
216.223855
 30
0.0
 10
60.956987
 20
216.188106
 30
0.0
 10
60.932779
 20
216.129557
 30
0.0
 10
60.917931
 20
216.093809
 30
0.0
  0
LWPOLYLINE
  5
165
100
AcDbEntity
  8
Engrave_1
 62
3
100
AcDbPolyline
 90
2
 70
0
 10
61.063740
 20
216.446087
 30
0.0
 10
60.971835
 20
216.223855
 30
0.0
  0
SPLINE
  5
166
100
AcDbEntity
  8
Engrave_1
 62
3
100
AcDbSpline
 70
8
 71
3
 72
8
 73
4
 74
0
 40
0
 40
0
 40
0
 40
0
 40
1
 40
1
 40
1
 40
1
 10
60.053985
 20
214.005969
 30
0.0
 10
60.039137
 20
213.970361
 30
0.0
 10
60.014929
 20
213.911742
 30
0.0
 10
60.000081
 20
213.876064
 30
0.0
  0
LWPOLYLINE
  5
167
100
AcDbEntity
  8
Engrave_1
 62
3
100
AcDbPolyline
 90
2
 70
0
 10
60.917931
 20
216.093809
 30
0.0
 10
60.053985
 20
214.005969
 30
0.0
  0
SPLINE
  5
168
100
AcDbEntity
  8
Engrave_1
 62
3
100
AcDbSpline
 70
8
 71
3
 72
8
 73
4
 74
0
 40
0
 40
0
 40
0
 40
0
 40
1
 40
1
 40
1
 40
1
 10
59.938928
 20
213.728144
 30
0.0
 10
59.924080
 20
213.692395
 30
0.0
 10
59.938999
 20
213.646654
 30
0.0
 10
59.972003
 20
213.626458
 30
0.0
  0
LWPOLYLINE
  5
169
100
AcDbEntity
  8
Engrave_1
 62
3
100
AcDbPolyline
 90
2
 70
0
 10
60.000081
 20
213.876064
 30
0.0
 10
59.938928
 20
213.728144
 30
0.0
  0
SPLINE
  5
16a
100
AcDbEntity
  8
Engrave_1
 62
3
100
AcDbSpline
 70
8
 71
3
 72
8
 73
4
 74
0
 40
0
 40
0
 40
0
 40
0
 40
1
 40
1
 40
1
 40
1
 10
60.108523
 20
213.542927
 30
0.0
 10
60.133715
 20
213.527586
 30
0.0
 10
60.167986
 20
213.501056
 30
0.0
 10
60.194798
 20
213.476849
 30
0.0
  0
SPLINE
  5
16b
100
AcDbEntity
  8
Engrave_1
 62
3
100
AcDbSpline
 70
8
 71
3
 72
8
 73
4
 74
0
 40
0
 40
0
 40
0
 40
0
 40
1
 40
1
 40
1
 40
1
 10
60.194798
 20
213.476849
 30
0.0
 10
60.687325
 20
213.161375
 30
0.0
 10
61.013987
 20
212.609666
 30
0.0
 10
61.013987
 20
211.981463
 30
0.0
  0
SPLINE
  5
16c
100
AcDbEntity
  8
Engrave_1
 62
3
100
AcDbSpline
 70
8
 71
3
 72
8
 73
4
 74
0
 40
0
 40
0
 40
0
 40
0
 40
1
 40
1
 40
1
 40
1
 10
61.013987
 20
211.981463
 30
0.0
 10
61.013987
 20
211.001053
 30
0.0
 10
60.219216
 20
210.206282
 30
0.0
 10
59.238877
 20
210.206282
 30
0.0
  0
SPLINE
  5
16d
100
AcDbEntity
  8
Engrave_1
 62
3
100
AcDbSpline
 70
8
 71
3
 72
8
 73
4
 74
0
 40
0
 40
0
 40
0
 40
0
 40
1
 40
1
 40
1
 40
1
 10
59.238877
 20
210.206282
 30
0.0
 10
58.258467
 20
210.206282
 30
0.0
 10
57.463696
 20
211.001053
 30
0.0
 10
57.463696
 20
211.981463
 30
0.0
  0
SPLINE
  5
16e
100
AcDbEntity
  8
Engrave_1
 62
3
100
AcDbSpline
 70
8
 71
3
 72
8
 73
4
 74
0
 40
0
 40
0
 40
0
 40
0
 40
1
 40
1
 40
1
 40
1
 10
57.463696
 20
211.981463
 30
0.0
 10
57.463696
 20
212.609736
 30
0.0
 10
57.790429
 20
213.161375
 30
0.0
 10
58.282956
 20
213.476849
 30
0.0
  0
SPLINE
  5
16f
100
AcDbEntity
  8
Engrave_1
 62
3
100
AcDbSpline
 70
8
 71
3
 72
8
 73
4
 74
0
 40
0
 40
0
 40
0
 40
0
 40
1
 40
1
 40
1
 40
1
 10
58.282956
 20
213.476849
 30
0.0
 10
58.309697
 20
213.501056
 30
0.0
 10
58.343968
 20
213.527516
 30
0.0
 10
58.369231
 20
213.542927
 30
0.0
  0
LWPOLYLINE
  5
170
100
AcDbEntity
  8
Engrave_1
 62
3
100
AcDbPolyline
 90
2
 70
0
 10
59.972003
 20
213.626458
 30
0.0
 10
60.108523
 20
213.542927
 30
0.0
  0
SPLINE
  5
171
100
AcDbEntity
  8
Engrave_1
 62
3
100
AcDbSpline
 70
8
 71
3
 72
8
 73
4
 74
0
 40
0
 40
0
 40
0
 40
0
 40
1
 40
1
 40
1
 40
1
 10
58.505680
 20
213.626458
 30
0.0
 10
58.538614
 20
213.646654
 30
0.0
 10
58.553533
 20
213.692395
 30
0.0
 10
58.538755
 20
213.728144
 30
0.0
  0
LWPOLYLINE
  5
172
100
AcDbEntity
  8
Engrave_1
 62
3
100
AcDbPolyline
 90
2
 70
0
 10
58.369231
 20
213.542927
 30
0.0
 10
58.505680
 20
213.626458
 30
0.0
  0
SPLINE
  5
173
100
AcDbEntity
  8
Engrave_1
 62
3
100
AcDbSpline
 70
8
 71
3
 72
8
 73
4
 74
0
 40
0
 40
0
 40
0
 40
0
 40
1
 40
1
 40
1
 40
1
 10
58.477532
 20
213.876064
 30
0.0
 10
58.462754
 20
213.911813
 30
0.0
 10
58.438546
 20
213.970361
 30
0.0
 10
58.423768
 20
214.005969
 30
0.0
  0
LWPOLYLINE
  5
174
100
AcDbEntity
  8
Engrave_1
 62
3
100
AcDbPolyline
 90
2
 70
0
 10
58.538755
 20
213.728144
 30
0.0
 10
58.477532
 20
213.876064
 30
0.0
  0
SPLINE
  5
175
100
AcDbEntity
  8
Engrave_1
 62
3
100
AcDbSpline
 70
8
 71
3
 72
8
 73
4
 74
0
 40
0
 40
0
 40
0
 40
0
 40
1
 40
1
 40
1
 40
1
 10
57.559822
 20
216.093809
 30
0.0
 10
57.544974
 20
216.129557
 30
0.0
 10
57.520767
 20
216.188106
 30
0.0
 10
57.505989
 20
216.223855
 30
0.0
  0
LWPOLYLINE
  5
176
100
AcDbEntity
  8
Engrave_1
 62
3
100
AcDbPolyline
 90
2
 70
0
 10
58.423768
 20
214.005969
 30
0.0
 10
57.559822
 20
216.093809
 30
0.0
  0
SPLINE
  5
177
100
AcDbEntity
  8
Engrave_1
 62
3
100
AcDbSpline
 70
8
 71
3
 72
8
 73
4
 74
0
 40
0
 40
0
 40
0
 40
0
 40
1
 40
1
 40
1
 40
1
 10
57.413943
 20
216.446087
 30
0.0
 10
57.399095
 20
216.481835
 30
0.0
 10
57.358843
 20
216.496683
 30
0.0
 10
57.324290
 20
216.479091
 30
0.0
  0
LWPOLYLINE
  5
178
100
AcDbEntity
  8
Engrave_1
 62
3
100
AcDbPolyline
 90
2
 70
0
 10
57.505989
 20
216.223855
 30
0.0
 10
57.413943
 20
216.446087
 30
0.0
  0
SPLINE
  5
179
100
AcDbEntity
  8
Engrave_1
 62
3
100
AcDbSpline
 70
8
 71
3
 72
8
 73
4
 74
0
 40
0
 40
0
 40
0
 40
0
 40
1
 40
1
 40
1
 40
1
 10
57.110222
 20
216.369452
 30
0.0
 10
57.075599
 20
216.351860
 30
0.0
 10
57.019584
 20
216.322515
 30
0.0
 10
56.985524
 20
216.304218
 30
0.0
  0
LWPOLYLINE
  5
17a
100
AcDbEntity
  8
Engrave_1
 62
3
100
AcDbPolyline
 90
2
 70
0
 10
57.324290
 20
216.479091
 30
0.0
 10
57.110222
 20
216.369452
 30
0.0
  0
SPLINE
  5
17b
100
AcDbEntity
  8
Engrave_1
 62
3
100
AcDbSpline
 70
8
 71
3
 72
8
 73
4
 74
0
 40
0
 40
0
 40
0
 40
0
 40
1
 40
1
 40
1
 40
1
 10
56.778844
 20
216.187825
 30
0.0
 10
56.745488
 20
216.168262
 30
0.0
 10
56.692077
 20
216.170021
 30
0.0
 10
56.660198
 20
216.191906
 30
0.0
  0
LWPOLYLINE
  5
17c
100
AcDbEntity
  8
Engrave_1
 62
3
100
AcDbPolyline
 90
2
 70
0
 10
56.985524
 20
216.304218
 30
0.0
 10
56.778844
 20
216.187825
 30
0.0
  0
SPLINE
  5
17d
100
AcDbEntity
  8
Engrave_1
 62
3
100
AcDbSpline
 70
8
 71
3
 72
8
 73
4
 74
0
 40
0
 40
0
 40
0
 40
0
 40
1
 40
1
 40
1
 40
1
 10
55.664307
 20
216.875350
 30
0.0
 10
55.632429
 20
216.897165
 30
0.0
 10
55.580073
 20
216.933055
 30
0.0
 10
55.548335
 20
216.954940
 30
0.0
  0
LWPOLYLINE
  5
17e
100
AcDbEntity
  8
Engrave_1
 62
3
100
AcDbPolyline
 90
2
 70
0
 10
56.660198
 20
216.191906
 30
0.0
 10
55.664307
 20
216.875350
 30
0.0
  0
SPLINE
  5
17f
100
AcDbEntity
  8
Engrave_1
 62
3
100
AcDbSpline
 70
8
 71
3
 72
8
 73
4
 74
0
 40
0
 40
0
 40
0
 40
0
 40
1
 40
1
 40
1
 40
1
 10
55.423145
 20
217.040722
 30
0.0
 10
55.391267
 20
217.062608
 30
0.0
 10
55.342711
 20
217.058104
 30
0.0
 10
55.315407
 20
217.030800
 30
0.0
  0
LWPOLYLINE
  5
180
100
AcDbEntity
  8
Engrave_1
 62
3
100
AcDbPolyline
 90
2
 70
0
 10
55.548335
 20
216.954940
 30
0.0
 10
55.423145
 20
217.040722
 30
0.0
  0
SPLINE
  5
181
100
AcDbEntity
  8
Engrave_1
 62
3
100
AcDbSpline
 70
8
 71
3
 72
8
 73
4
 74
0
 40
0
 40
0
 40
0
 40
0
 40
1
 40
1
 40
1
 40
1
 10
54.180251
 20
215.895855
 30
0.0
 10
54.152947
 20
215.868551
 30
0.0
 10
54.148443
 20
215.819995
 30
0.0
 10
54.170329
 20
215.788117
 30
0.0
  0
LWPOLYLINE
  5
182
100
AcDbEntity
  8
Engrave_1
 62
3
100
AcDbPolyline
 90
8
 70
0
 10
55.315407
 20
217.030800
 30
0.0
 10
55.208161
 20
216.923554
 30
0.0
 10
55.108586
 20
216.823979
 30
0.0
 10
54.797757
 20
216.513080
 30
0.0
 10
54.698253
 20
216.413575
 30
0.0
 10
54.387142
 20
216.102605
 30
0.0
 10
54.287637
 20
216.003101
 30
0.0
 10
54.180251
 20
215.895855
 30
0.0
  0
SPLINE
  5
183
100
AcDbEntity
  8
Engrave_1
 62
3
100
AcDbSpline
 70
8
 71
3
 72
8
 73
4
 74
0
 40
0
 40
0
 40
0
 40
0
 40
1
 40
1
 40
1
 40
1
 10
54.256252
 20
215.662856
 30
0.0
 10
54.278137
 20
215.631049
 30
0.0
 10
54.314026
 20
215.578833
 30
0.0
 10
54.335912
 20
215.546885
 30
0.0
  0
LWPOLYLINE
  5
184
100
AcDbEntity
  8
Engrave_1
 62
3
100
AcDbPolyline
 90
2
 70
0
 10
54.170329
 20
215.788117
 30
0.0
 10
54.256252
 20
215.662856
 30
0.0
  0
SPLINE
  5
185
100
AcDbEntity
  8
Engrave_1
 62
3
100
AcDbSpline
 70
8
 71
3
 72
8
 73
4
 74
0
 40
0
 40
0
 40
0
 40
0
 40
1
 40
1
 40
1
 40
1
 10
55.034556
 20
214.528897
 30
0.0
 10
55.056441
 20
214.497019
 30
0.0
 10
55.060523
 20
214.442411
 30
0.0
 10
55.043493
 20
214.407647
 30
0.0
  0
LWPOLYLINE
  5
186
100
AcDbEntity
  8
Engrave_1
 62
3
100
AcDbPolyline
 90
2
 70
0
 10
54.335912
 20
215.546885
 30
0.0
 10
55.034556
 20
214.528897
 30
0.0
  0
SPLINE
  5
187
100
AcDbEntity
  8
Engrave_1
 62
3
100
AcDbSpline
 70
8
 71
3
 72
8
 73
4
 74
0
 40
0
 40
0
 40
0
 40
0
 40
1
 40
1
 40
1
 40
1
 10
54.568629
 20
213.221261
 30
0.0
 10
54.556947
 20
213.184316
 30
0.0
 10
54.516273
 20
213.148286
 30
0.0
 10
54.478272
 20
213.141249
 30
0.0
  0
LWPOLYLINE
  5
188
100
AcDbEntity
  8
Engrave_1
 62
3
100
AcDbPolyline
 90
2
 70
0
 10
55.043493
 20
214.407647
 30
0.0
 10
54.568629
 20
213.221261
 30
0.0
  0
SPLINE
  5
189
100
AcDbEntity
  8
Engrave_1
 62
3
100
AcDbSpline
 70
8
 71
3
 72
8
 73
4
 74
0
 40
0
 40
0
 40
0
 40
0
 40
1
 40
1
 40
1
 40
1
 10
53.244527
 20
212.911699
 30
0.0
 10
53.206456
 20
212.904591
 30
0.0
 10
53.144177
 20
212.892980
 30
0.0
 10
53.106107
 20
212.885872
 30
0.0
  0
LWPOLYLINE
  5
18a
100
AcDbEntity
  8
Engrave_1
 62
3
100
AcDbPolyline
 90
2
 70
0
 10
54.478272
 20
213.141249
 30
0.0
 10
53.244527
 20
212.911699
 30
0.0
  0
SPLINE
  5
18b
100
AcDbEntity
  8
Engrave_1
 62
3
100
AcDbSpline
 70
8
 71
3
 72
8
 73
4
 74
0
 40
0
 40
0
 40
0
 40
0
 40
1
 40
1
 40
1
 40
1
 10
52.957061
 20
212.858146
 30
0.0
 10
52.918990
 20
212.851109
 30
0.0
 10
52.887886
 20
212.813601
 30
0.0
 10
52.887886
 20
212.774897
 30
0.0
  0
LWPOLYLINE
  5
18c
100
AcDbEntity
  8
Engrave_1
 62
3
100
AcDbPolyline
 90
2
 70
0
 10
53.106107
 20
212.885872
 30
0.0
 10
52.957061
 20
212.858146
 30
0.0
  0
SPLINE
  5
18d
100
AcDbEntity
  8
Engrave_1
 62
3
100
AcDbSpline
 70
8
 71
3
 72
8
 73
4
 74
0
 40
0
 40
0
 40
0
 40
0
 40
1
 40
1
 40
1
 40
1
 10
52.887745
 20
211.169803
 30
0.0
 10
52.887675
 20
211.131029
 30
0.0
 10
52.918779
 20
211.093662
 30
0.0
 10
52.956850
 20
211.086484
 30
0.0
  0
LWPOLYLINE
  5
18e
100
AcDbEntity
  8
Engrave_1
 62
3
100
AcDbPolyline
 90
8
 70
0
 10
52.887886
 20
212.774897
 30
0.0
 10
52.887886
 20
212.623248
 30
0.0
 10
52.887886
 20
212.482505
 30
0.0
 10
52.887886
 20
212.042827
 30
0.0
 10
52.887886
 20
211.902085
 30
0.0
 10
52.887815
 20
211.462265
 30
0.0
 10
52.887815
 20
211.321523
 30
0.0
 10
52.887745
 20
211.169803
 30
0.0
  0
LWPOLYLINE
  5
18f
100
AcDbEntity
  8
Engrave_1
 62
3
100
AcDbPolyline
 90
17
 70
0
 10
67.686079
 20
218.942986
 30
0.0
 10
67.841788
 20
219.020840
 30
0.0
 10
67.997497
 20
219.176549
 30
0.0
 10
68.075351
 20
219.410112
 30
0.0
 10
68.075351
 20
219.565821
 30
0.0
 10
67.997497
 20
219.799384
 30
0.0
 10
67.841788
 20
219.955093
 30
0.0
 10
67.686079
 20
220.032948
 30
0.0
 10
67.452516
 20
220.032948
 30
0.0
 10
67.296807
 20
219.955093
 30
0.0
 10
67.141098
 20
219.799384
 30
0.0
 10
67.063244
 20
219.565821
 30
0.0
 10
67.063244
 20
219.410112
 30
0.0
 10
67.141098
 20
219.176549
 30
0.0
 10
67.296807
 20
219.020840
 30
0.0
 10
67.452516
 20
218.942986
 30
0.0
 10
67.686079
 20
218.942986
 30
0.0
  0
LWPOLYLINE
  5
190
100
AcDbEntity
  8
Engrave_1
 62
3
100
AcDbPolyline
 90
2
 70
0
 10
66.518263
 20
218.942986
 30
0.0
 10
66.518263
 20
220.577928
 30
0.0
  0
LWPOLYLINE
  5
191
100
AcDbEntity
  8
Engrave_1
 62
3
100
AcDbPolyline
 90
14
 70
0
 10
66.518263
 20
219.176549
 30
0.0
 10
66.362554
 20
219.020840
 30
0.0
 10
66.206845
 20
218.942986
 30
0.0
 10
65.973282
 20
218.942986
 30
0.0
 10
65.817573
 20
219.020840
 30
0.0
 10
65.661864
 20
219.176549
 30
0.0
 10
65.584010
 20
219.410112
 30
0.0
 10
65.584010
 20
219.565821
 30
0.0
 10
65.661864
 20
219.799384
 30
0.0
 10
65.817573
 20
219.955093
 30
0.0
 10
65.973282
 20
220.032948
 30
0.0
 10
66.206845
 20
220.032948
 30
0.0
 10
66.362554
 20
219.955093
 30
0.0
 10
66.518263
 20
219.799384
 30
0.0
  0
LWPOLYLINE
  5
192
100
AcDbEntity
  8
Engrave_1
 62
3
100
AcDbPolyline
 90
17
 70
0
 10
65.116884
 20
219.410112
 30
0.0
 10
64.182631
 20
219.410112
 30
0.0
 10
64.182631
 20
219.254404
 30
0.0
 10
64.260485
 20
219.098695
 30
0.0
 10
64.338340
 20
219.020840
 30
0.0
 10
64.494048
 20
218.942986
 30
0.0
 10
64.727612
 20
218.942986
 30
0.0
 10
64.883320
 20
219.020840
 30
0.0
 10
65.039029
 20
219.176549
 30
0.0
 10
65.116884
 20
219.410112
 30
0.0
 10
65.116884
 20
219.565821
 30
0.0
 10
65.039029
 20
219.799384
 30
0.0
 10
64.883320
 20
219.955093
 30
0.0
 10
64.727612
 20
220.032948
 30
0.0
 10
64.494048
 20
220.032948
 30
0.0
 10
64.338340
 20
219.955093
 30
0.0
 10
64.182631
 20
219.799384
 30
0.0
  0
LWPOLYLINE
  5
193
100
AcDbEntity
  8
Engrave_1
 62
3
100
AcDbPolyline
 90
2
 70
0
 10
63.637650
 20
218.942986
 30
0.0
 10
63.637650
 20
220.032948
 30
0.0
  0
LWPOLYLINE
  5
194
100
AcDbEntity
  8
Engrave_1
 62
3
100
AcDbPolyline
 90
7
 70
0
 10
63.637650
 20
219.254404
 30
0.0
 10
63.404087
 20
219.020840
 30
0.0
 10
63.248378
 20
218.942986
 30
0.0
 10
63.014815
 20
218.942986
 30
0.0
 10
62.859106
 20
219.020840
 30
0.0
 10
62.781251
 20
219.254404
 30
0.0
 10
62.781251
 20
220.032948
 30
0.0
  0
LWPOLYLINE
  5
195
100
AcDbEntity
  8
Engrave_1
 62
3
100
AcDbPolyline
 90
2
 70
0
 10
60.912746
 20
218.398005
 30
0.0
 10
60.912746
 20
220.032948
 30
0.0
  0
LWPOLYLINE
  5
196
100
AcDbEntity
  8
Engrave_1
 62
3
100
AcDbPolyline
 90
7
 70
0
 10
60.912746
 20
219.254404
 30
0.0
 10
60.679182
 20
219.020840
 30
0.0
 10
60.523474
 20
218.942986
 30
0.0
 10
60.289910
 20
218.942986
 30
0.0
 10
60.134202
 20
219.020840
 30
0.0
 10
60.056347
 20
219.254404
 30
0.0
 10
60.056347
 20
220.032948
 30
0.0
  0
LWPOLYLINE
  5
197
100
AcDbEntity
  8
Engrave_1
 62
3
100
AcDbPolyline
 90
2
 70
0
 10
58.577113
 20
218.942986
 30
0.0
 10
58.577113
 20
220.032948
 30
0.0
  0
LWPOLYLINE
  5
198
100
AcDbEntity
  8
Engrave_1
 62
3
100
AcDbPolyline
 90
14
 70
0
 10
58.577113
 20
219.176549
 30
0.0
 10
58.732822
 20
219.020840
 30
0.0
 10
58.888531
 20
218.942986
 30
0.0
 10
59.122094
 20
218.942986
 30
0.0
 10
59.277803
 20
219.020840
 30
0.0
 10
59.433512
 20
219.176549
 30
0.0
 10
59.511366
 20
219.410112
 30
0.0
 10
59.511366
 20
219.565821
 30
0.0
 10
59.433512
 20
219.799384
 30
0.0
 10
59.277803
 20
219.955093
 30
0.0
 10
59.122094
 20
220.032948
 30
0.0
 10
58.888531
 20
220.032948
 30
0.0
 10
58.732822
 20
219.955093
 30
0.0
 10
58.577113
 20
219.799384
 30
0.0
  0
LWPOLYLINE
  5
199
100
AcDbEntity
  8
Engrave_1
 62
3
100
AcDbPolyline
 90
2
 70
0
 10
57.954278
 20
218.942986
 30
0.0
 10
57.954278
 20
220.032948
 30
0.0
  0
LWPOLYLINE
  5
19a
100
AcDbEntity
  8
Engrave_1
 62
3
100
AcDbPolyline
 90
5
 70
0
 10
57.954278
 20
219.410112
 30
0.0
 10
57.876424
 20
219.176549
 30
0.0
 10
57.720715
 20
219.020840
 30
0.0
 10
57.565006
 20
218.942986
 30
0.0
 10
57.331443
 20
218.942986
 30
0.0
  0
LWPOLYLINE
  5
19b
100
AcDbEntity
  8
Engrave_1
 62
3
100
AcDbPolyline
 90
2
 70
0
 10
56.085772
 20
218.398005
 30
0.0
 10
56.085772
 20
220.032948
 30
0.0
  0
LWPOLYLINE
  5
19c
100
AcDbEntity
  8
Engrave_1
 62
3
100
AcDbPolyline
 90
14
 70
0
 10
56.085772
 20
219.176549
 30
0.0
 10
56.241481
 20
219.020840
 30
0.0
 10
56.397190
 20
218.942986
 30
0.0
 10
56.630753
 20
218.942986
 30
0.0
 10
56.786462
 20
219.020840
 30
0.0
 10
56.942171
 20
219.176549
 30
0.0
 10
57.020025
 20
219.410112
 30
0.0
 10
57.020025
 20
219.565821
 30
0.0
 10
56.942171
 20
219.799384
 30
0.0
 10
56.786462
 20
219.955093
 30
0.0
 10
56.630753
 20
220.032948
 30
0.0
 10
56.397190
 20
220.032948
 30
0.0
 10
56.241481
 20
219.955093
 30
0.0
 10
56.085772
 20
219.799384
 30
0.0
  0
LWPOLYLINE
  5
19d
100
AcDbEntity
  8
Engrave_1
 62
3
100
AcDbPolyline
 90
2
 70
0
 10
55.540792
 20
218.942986
 30
0.0
 10
55.229374
 20
220.032948
 30
0.0
  0
LWPOLYLINE
  5
19e
100
AcDbEntity
  8
Engrave_1
 62
3
100
AcDbPolyline
 90
2
 70
0
 10
54.917956
 20
218.942986
 30
0.0
 10
55.229374
 20
220.032948
 30
0.0
  0
LWPOLYLINE
  5
19f
100
AcDbEntity
  8
Engrave_1
 62
3
100
AcDbPolyline
 90
2
 70
0
 10
54.917956
 20
218.942986
 30
0.0
 10
54.606539
 20
220.032948
 30
0.0
  0
LWPOLYLINE
  5
1a0
100
AcDbEntity
  8
Engrave_1
 62
3
100
AcDbPolyline
 90
2
 70
0
 10
54.295121
 20
218.942986
 30
0.0
 10
54.606539
 20
220.032948
 30
0.0
  0
LWPOLYLINE
  5
1a1
100
AcDbEntity
  8
Engrave_1
 62
3
100
AcDbPolyline
 90
2
 70
0
 10
52.893742
 20
218.942986
 30
0.0
 10
52.893742
 20
220.032948
 30
0.0
  0
LWPOLYLINE
  5
1a2
100
AcDbEntity
  8
Engrave_1
 62
3
100
AcDbPolyline
 90
14
 70
0
 10
52.893742
 20
219.176549
 30
0.0
 10
53.049451
 20
219.020840
 30
0.0
 10
53.205159
 20
218.942986
 30
0.0
 10
53.438723
 20
218.942986
 30
0.0
 10
53.594431
 20
219.020840
 30
0.0
 10
53.750140
 20
219.176549
 30
0.0
 10
53.827995
 20
219.410112
 30
0.0
 10
53.827995
 20
219.565821
 30
0.0
 10
53.750140
 20
219.799384
 30
0.0
 10
53.594431
 20
219.955093
 30
0.0
 10
53.438723
 20
220.032948
 30
0.0
 10
53.205159
 20
220.032948
 30
0.0
 10
53.049451
 20
219.955093
 30
0.0
 10
52.893742
 20
219.799384
 30
0.0
  0
LWPOLYLINE
  5
1a3
100
AcDbEntity
  8
Engrave_1
 62
3
100
AcDbPolyline
 90
2
 70
0
 10
52.270907
 20
218.942986
 30
0.0
 10
52.270907
 20
220.032948
 30
0.0
  0
LWPOLYLINE
  5
1a4
100
AcDbEntity
  8
Engrave_1
 62
3
100
AcDbPolyline
 90
5
 70
0
 10
52.270907
 20
219.410112
 30
0.0
 10
52.193052
 20
219.176549
 30
0.0
 10
52.037343
 20
219.020840
 30
0.0
 10
51.881635
 20
218.942986
 30
0.0
 10
51.648071
 20
218.942986
 30
0.0
  0
SPLINE
  5
1a5
100
AcDbEntity
  8
Engrave_1
 62
7
100
AcDbSpline
 70
8
 71
3
 72
8
 73
4
 74
0
 40
0
 40
0
 40
0
 40
0
 40
1
 40
1
 40
1
 40
1
 10
89.849937
 20
171.740848
 30
0.0
 10
89.768657
 20
171.953079
 30
0.0
 10
89.714471
 20
172.156279
 30
0.0
 10
89.714471
 20
172.156279
 30
0.0
  0
SPLINE
  5
1a6
100
AcDbEntity
  8
Engrave_1
 62
7
100
AcDbSpline
 70
8
 71
3
 72
8
 73
4
 74
0
 40
0
 40
0
 40
0
 40
0
 40
1
 40
1
 40
1
 40
1
 10
89.714471
 20
172.156279
 30
0.0
 10
89.628675
 20
172.147248
 30
0.0
 10
89.547395
 20
172.147248
 30
0.0
 10
89.461600
 20
172.156279
 30
0.0
  0
LWPOLYLINE
  5
1a7
100
AcDbEntity
  8
Engrave_1
 62
3
100
AcDbPolyline
 90
17
 70
0
 10
51.336654
 20
219.410112
 30
0.0
 10
50.402401
 20
219.410112
 30
0.0
 10
50.402401
 20
219.254404
 30
0.0
 10
50.480255
 20
219.098695
 30
0.0
 10
50.558110
 20
219.020840
 30
0.0
 10
50.713818
 20
218.942986
 30
0.0
 10
50.947382
 20
218.942986
 30
0.0
 10
51.103090
 20
219.020840
 30
0.0
 10
51.258799
 20
219.176549
 30
0.0
 10
51.336654
 20
219.410112
 30
0.0
 10
51.336654
 20
219.565821
 30
0.0
 10
51.258799
 20
219.799384
 30
0.0
 10
51.103090
 20
219.955093
 30
0.0
 10
50.947382
 20
220.032948
 30
0.0
 10
50.713818
 20
220.032948
 30
0.0
 10
50.558110
 20
219.955093
 30
0.0
 10
50.402401
 20
219.799384
 30
0.0
  0
SPLINE
  5
1a8
100
AcDbEntity
  8
Engrave_1
 62
7
100
AcDbSpline
 70
8
 71
3
 72
8
 73
4
 74
0
 40
0
 40
0
 40
0
 40
0
 40
1
 40
1
 40
1
 40
1
 10
89.028106
 20
170.968688
 30
0.0
 10
89.019075
 20
170.937079
 30
0.0
 10
88.996497
 20
170.928048
 30
0.0
 10
88.982951
 20
170.973204
 30
0.0
  0
LWPOLYLINE
  5
1a9
100
AcDbEntity
  8
Engrave_1
 62
7
100
AcDbPolyline
 90
2
 70
0
 10
89.461600
 20
172.156279
 30
0.0
 10
89.028106
 20
170.968688
 30
0.0
  0
SPLINE
  5
1aa
100
AcDbEntity
  8
Engrave_1
 62
7
100
AcDbSpline
 70
8
 71
3
 72
8
 73
4
 74
0
 40
0
 40
0
 40
0
 40
0
 40
1
 40
1
 40
1
 40
1
 10
88.721049
 20
171.740848
 30
0.0
 10
88.648800
 20
171.953079
 30
0.0
 10
88.603644
 20
172.034359
 30
0.0
 10
88.888124
 20
172.061452
 30
0.0
  0
SPLINE
  5
1ab
100
AcDbEntity
  8
Engrave_1
 62
7
100
AcDbSpline
 70
8
 71
3
 72
8
 73
4
 74
0
 40
0
 40
0
 40
0
 40
0
 40
1
 40
1
 40
1
 40
1
 10
88.888124
 20
172.061452
 30
0.0
 10
88.915217
 20
172.088546
 30
0.0
 10
88.915217
 20
172.187888
 30
0.0
 10
88.888124
 20
172.214981
 30
0.0
  0
SPLINE
  5
1ac
100
AcDbEntity
  8
Engrave_1
 62
7
100
AcDbSpline
 70
8
 71
3
 72
8
 73
4
 74
0
 40
0
 40
0
 40
0
 40
0
 40
1
 40
1
 40
1
 40
1
 10
88.888124
 20
172.214981
 30
0.0
 10
88.721049
 20
172.210466
 30
0.0
 10
88.526880
 20
172.205950
 30
0.0
 10
88.296586
 20
172.205950
 30
0.0
  0
SPLINE
  5
1ad
100
AcDbEntity
  8
Engrave_1
 62
7
100
AcDbSpline
 70
8
 71
3
 72
8
 73
4
 74
0
 40
0
 40
0
 40
0
 40
0
 40
1
 40
1
 40
1
 40
1
 10
88.296586
 20
172.205950
 30
0.0
 10
88.138542
 20
172.205950
 30
0.0
 10
87.908249
 20
172.210466
 30
0.0
 10
87.741173
 20
172.214981
 30
0.0
  0
SPLINE
  5
1ae
100
AcDbEntity
  8
Engrave_1
 62
7
100
AcDbSpline
 70
8
 71
3
 72
8
 73
4
 74
0
 40
0
 40
0
 40
0
 40
0
 40
1
 40
1
 40
1
 40
1
 10
87.741173
 20
172.214981
 30
0.0
 10
87.714080
 20
172.187888
 30
0.0
 10
87.714080
 20
172.088546
 30
0.0
 10
87.741173
 20
172.061452
 30
0.0
  0
SPLINE
  5
1af
100
AcDbEntity
  8
Engrave_1
 62
7
100
AcDbSpline
 70
8
 71
3
 72
8
 73
4
 74
0
 40
0
 40
0
 40
0
 40
0
 40
1
 40
1
 40
1
 40
1
 10
87.741173
 20
172.061452
 30
0.0
 10
87.998560
 20
172.029844
 30
0.0
 10
88.012106
 20
171.944048
 30
0.0
 10
88.102417
 20
171.713755
 30
0.0
  0
LWPOLYLINE
  5
1b0
100
AcDbEntity
  8
Engrave_1
 62
7
100
AcDbPolyline
 90
2
 70
0
 10
88.982951
 20
170.973204
 30
0.0
 10
88.721049
 20
171.740848
 30
0.0
  0
SPLINE
  5
1b1
100
AcDbEntity
  8
Engrave_1
 62
7
100
AcDbSpline
 70
8
 71
3
 72
8
 73
4
 74
0
 40
0
 40
0
 40
0
 40
0
 40
1
 40
1
 40
1
 40
1
 10
88.653315
 20
170.286839
 30
0.0
 10
88.684924
 20
170.196528
 30
0.0
 10
88.743626
 20
170.192012
 30
0.0
 10
88.802329
 20
170.192012
 30
0.0
  0
SPLINE
  5
1b2
100
AcDbEntity
  8
Engrave_1
 62
7
100
AcDbSpline
 70
8
 71
3
 72
8
 73
4
 74
0
 40
0
 40
0
 40
0
 40
0
 40
1
 40
1
 40
1
 40
1
 10
88.802329
 20
170.192012
 30
0.0
 10
88.847484
 20
170.192012
 30
0.0
 10
88.933280
 20
170.201044
 30
0.0
 10
88.969404
 20
170.295870
 30
0.0
  0
LWPOLYLINE
  5
1b3
100
AcDbEntity
  8
Engrave_1
 62
7
100
AcDbPolyline
 90
2
 70
0
 10
88.102417
 20
171.713755
 30
0.0
 10
88.653315
 20
170.286839
 30
0.0
  0
SPLINE
  5
1b4
100
AcDbEntity
  8
Engrave_1
 62
7
100
AcDbSpline
 70
8
 71
3
 72
8
 73
4
 74
0
 40
0
 40
0
 40
0
 40
0
 40
1
 40
1
 40
1
 40
1
 10
89.827360
 20
170.286839
 30
0.0
 10
89.858969
 20
170.201044
 30
0.0
 10
89.944764
 20
170.192012
 30
0.0
 10
90.003466
 20
170.192012
 30
0.0
  0
SPLINE
  5
1b5
100
AcDbEntity
  8
Engrave_1
 62
7
100
AcDbSpline
 70
8
 71
3
 72
8
 73
4
 74
0
 40
0
 40
0
 40
0
 40
0
 40
1
 40
1
 40
1
 40
1
 10
90.003466
 20
170.192012
 30
0.0
 10
90.048622
 20
170.192012
 30
0.0
 10
90.120871
 20
170.201044
 30
0.0
 10
90.161511
 20
170.295870
 30
0.0
  0
LWPOLYLINE
  5
1b6
100
AcDbEntity
  8
Engrave_1
 62
7
100
AcDbPolyline
 90
3
 70
0
 10
88.969404
 20
170.295870
 30
0.0
 10
89.393866
 20
171.411212
 30
0.0
 10
89.827360
 20
170.286839
 30
0.0
  0
SPLINE
  5
1b7
100
AcDbEntity
  8
Engrave_1
 62
7
100
AcDbSpline
 70
8
 71
3
 72
8
 73
4
 74
0
 40
0
 40
0
 40
0
 40
0
 40
1
 40
1
 40
1
 40
1
 10
90.712409
 20
171.668599
 30
0.0
 10
90.793689
 20
171.867284
 30
0.0
 10
90.870453
 20
172.038875
 30
0.0
 10
91.123324
 20
172.061452
 30
0.0
  0
SPLINE
  5
1b8
100
AcDbEntity
  8
Engrave_1
 62
7
100
AcDbSpline
 70
8
 71
3
 72
8
 73
4
 74
0
 40
0
 40
0
 40
0
 40
0
 40
1
 40
1
 40
1
 40
1
 10
91.123324
 20
172.061452
 30
0.0
 10
91.150417
 20
172.088546
 30
0.0
 10
91.150417
 20
172.187888
 30
0.0
 10
91.123324
 20
172.214981
 30
0.0
  0
SPLINE
  5
1b9
100
AcDbEntity
  8
Engrave_1
 62
7
100
AcDbSpline
 70
8
 71
3
 72
8
 73
4
 74
0
 40
0
 40
0
 40
0
 40
0
 40
1
 40
1
 40
1
 40
1
 10
91.123324
 20
172.214981
 30
0.0
 10
91.023982
 20
172.210466
 30
0.0
 10
90.942702
 20
172.205950
 30
0.0
 10
90.825297
 20
172.205950
 30
0.0
  0
SPLINE
  5
1ba
100
AcDbEntity
  8
Engrave_1
 62
7
100
AcDbSpline
 70
8
 71
3
 72
8
 73
4
 74
0
 40
0
 40
0
 40
0
 40
0
 40
1
 40
1
 40
1
 40
1
 10
90.825297
 20
172.205950
 30
0.0
 10
90.658222
 20
172.205950
 30
0.0
 10
90.464053
 20
172.210466
 30
0.0
 10
90.296977
 20
172.214981
 30
0.0
  0
SPLINE
  5
1bb
100
AcDbEntity
  8
Engrave_1
 62
7
100
AcDbSpline
 70
8
 71
3
 72
8
 73
4
 74
0
 40
0
 40
0
 40
0
 40
0
 40
1
 40
1
 40
1
 40
1
 10
90.296977
 20
172.214981
 30
0.0
 10
90.269884
 20
172.187888
 30
0.0
 10
90.269884
 20
172.088546
 30
0.0
 10
90.296977
 20
172.061452
 30
0.0
  0
SPLINE
  5
1bc
100
AcDbEntity
  8
Engrave_1
 62
7
100
AcDbSpline
 70
8
 71
3
 72
8
 73
4
 74
0
 40
0
 40
0
 40
0
 40
0
 40
1
 40
1
 40
1
 40
1
 10
90.296977
 20
172.061452
 30
0.0
 10
90.540817
 20
172.043390
 30
0.0
 10
90.558880
 20
171.925986
 30
0.0
 10
90.473084
 20
171.700208
 30
0.0
  0
LWPOLYLINE
  5
1bd
100
AcDbEntity
  8
Engrave_1
 62
7
100
AcDbPolyline
 90
2
 70
0
 10
90.161511
 20
170.295870
 30
0.0
 10
90.712409
 20
171.668599
 30
0.0
  0
SPLINE
  5
1be
100
AcDbEntity
  8
Engrave_1
 62
7
100
AcDbSpline
 70
8
 71
3
 72
8
 73
4
 74
0
 40
0
 40
0
 40
0
 40
0
 40
1
 40
1
 40
1
 40
1
 10
90.215697
 20
170.991266
 30
0.0
 10
90.193120
 20
170.932564
 30
0.0
 10
90.166026
 20
170.941595
 30
0.0
 10
90.147964
 20
170.982235
 30
0.0
  0
LWPOLYLINE
  5
1bf
100
AcDbEntity
  8
Engrave_1
 62
7
100
AcDbPolyline
 90
2
 70
0
 10
90.473084
 20
171.700208
 30
0.0
 10
90.215697
 20
170.991266
 30
0.0
  0
SPLINE
  5
1c0
100
AcDbEntity
  8
Engrave_1
 62
7
100
AcDbSpline
 70
8
 71
3
 72
8
 73
4
 74
0
 40
0
 40
0
 40
0
 40
0
 40
1
 40
1
 40
1
 40
1
 10
93.404174
 20
171.740848
 30
0.0
 10
93.322894
 20
171.953079
 30
0.0
 10
93.268707
 20
172.156279
 30
0.0
 10
93.268707
 20
172.156279
 30
0.0
  0
SPLINE
  5
1c1
100
AcDbEntity
  8
Engrave_1
 62
7
100
AcDbSpline
 70
8
 71
3
 72
8
 73
4
 74
0
 40
0
 40
0
 40
0
 40
0
 40
1
 40
1
 40
1
 40
1
 10
93.268707
 20
172.156279
 30
0.0
 10
93.182911
 20
172.147248
 30
0.0
 10
93.101631
 20
172.147248
 30
0.0
 10
93.015836
 20
172.156279
 30
0.0
  0
LWPOLYLINE
  5
1c2
100
AcDbEntity
  8
Engrave_1
 62
7
100
AcDbPolyline
 90
2
 70
0
 10
90.147964
 20
170.982235
 30
0.0
 10
89.849937
 20
171.740848
 30
0.0
  0
SPLINE
  5
1c3
100
AcDbEntity
  8
Engrave_1
 62
7
100
AcDbSpline
 70
8
 71
3
 72
8
 73
4
 74
0
 40
0
 40
0
 40
0
 40
0
 40
1
 40
1
 40
1
 40
1
 10
92.582342
 20
170.968688
 30
0.0
 10
92.573311
 20
170.937079
 30
0.0
 10
92.550734
 20
170.928048
 30
0.0
 10
92.537187
 20
170.973204
 30
0.0
  0
LWPOLYLINE
  5
1c4
100
AcDbEntity
  8
Engrave_1
 62
7
100
AcDbPolyline
 90
2
 70
0
 10
93.015836
 20
172.156279
 30
0.0
 10
92.582342
 20
170.968688
 30
0.0
  0
SPLINE
  5
1c5
100
AcDbEntity
  8
Engrave_1
 62
7
100
AcDbSpline
 70
8
 71
3
 72
8
 73
4
 74
0
 40
0
 40
0
 40
0
 40
0
 40
1
 40
1
 40
1
 40
1
 10
92.275285
 20
171.740848
 30
0.0
 10
92.203036
 20
171.953079
 30
0.0
 10
92.157880
 20
172.034359
 30
0.0
 10
92.442360
 20
172.061452
 30
0.0
  0
SPLINE
  5
1c6
100
AcDbEntity
  8
Engrave_1
 62
7
100
AcDbSpline
 70
8
 71
3
 72
8
 73
4
 74
0
 40
0
 40
0
 40
0
 40
0
 40
1
 40
1
 40
1
 40
1
 10
92.442360
 20
172.061452
 30
0.0
 10
92.469454
 20
172.088546
 30
0.0
 10
92.469454
 20
172.187888
 30
0.0
 10
92.442360
 20
172.214981
 30
0.0
  0
SPLINE
  5
1c7
100
AcDbEntity
  8
Engrave_1
 62
7
100
AcDbSpline
 70
8
 71
3
 72
8
 73
4
 74
0
 40
0
 40
0
 40
0
 40
0
 40
1
 40
1
 40
1
 40
1
 10
92.442360
 20
172.214981
 30
0.0
 10
92.275285
 20
172.210466
 30
0.0
 10
92.081116
 20
172.205950
 30
0.0
 10
91.850822
 20
172.205950
 30
0.0
  0
SPLINE
  5
1c8
100
AcDbEntity
  8
Engrave_1
 62
7
100
AcDbSpline
 70
8
 71
3
 72
8
 73
4
 74
0
 40
0
 40
0
 40
0
 40
0
 40
1
 40
1
 40
1
 40
1
 10
91.850822
 20
172.205950
 30
0.0
 10
91.692778
 20
172.205950
 30
0.0
 10
91.462485
 20
172.210466
 30
0.0
 10
91.295409
 20
172.214981
 30
0.0
  0
SPLINE
  5
1c9
100
AcDbEntity
  8
Engrave_1
 62
7
100
AcDbSpline
 70
8
 71
3
 72
8
 73
4
 74
0
 40
0
 40
0
 40
0
 40
0
 40
1
 40
1
 40
1
 40
1
 10
91.295409
 20
172.214981
 30
0.0
 10
91.268316
 20
172.187888
 30
0.0
 10
91.268316
 20
172.088546
 30
0.0
 10
91.295409
 20
172.061452
 30
0.0
  0
SPLINE
  5
1ca
100
AcDbEntity
  8
Engrave_1
 62
7
100
AcDbSpline
 70
8
 71
3
 72
8
 73
4
 74
0
 40
0
 40
0
 40
0
 40
0
 40
1
 40
1
 40
1
 40
1
 10
91.295409
 20
172.061452
 30
0.0
 10
91.552796
 20
172.029844
 30
0.0
 10
91.566342
 20
171.944048
 30
0.0
 10
91.656654
 20
171.713755
 30
0.0
  0
LWPOLYLINE
  5
1cb
100
AcDbEntity
  8
Engrave_1
 62
7
100
AcDbPolyline
 90
2
 70
0
 10
92.537187
 20
170.973204
 30
0.0
 10
92.275285
 20
171.740848
 30
0.0
  0
SPLINE
  5
1cc
100
AcDbEntity
  8
Engrave_1
 62
7
100
AcDbSpline
 70
8
 71
3
 72
8
 73
4
 74
0
 40
0
 40
0
 40
0
 40
0
 40
1
 40
1
 40
1
 40
1
 10
92.207551
 20
170.286839
 30
0.0
 10
92.239160
 20
170.196528
 30
0.0
 10
92.297862
 20
170.192012
 30
0.0
 10
92.356565
 20
170.192012
 30
0.0
  0
SPLINE
  5
1cd
100
AcDbEntity
  8
Engrave_1
 62
7
100
AcDbSpline
 70
8
 71
3
 72
8
 73
4
 74
0
 40
0
 40
0
 40
0
 40
0
 40
1
 40
1
 40
1
 40
1
 10
92.356565
 20
170.192012
 30
0.0
 10
92.401720
 20
170.192012
 30
0.0
 10
92.487516
 20
170.201044
 30
0.0
 10
92.523640
 20
170.295870
 30
0.0
  0
LWPOLYLINE
  5
1ce
100
AcDbEntity
  8
Engrave_1
 62
7
100
AcDbPolyline
 90
2
 70
0
 10
91.656654
 20
171.713755
 30
0.0
 10
92.207551
 20
170.286839
 30
0.0
  0
SPLINE
  5
1cf
100
AcDbEntity
  8
Engrave_1
 62
7
100
AcDbSpline
 70
8
 71
3
 72
8
 73
4
 74
0
 40
0
 40
0
 40
0
 40
0
 40
1
 40
1
 40
1
 40
1
 10
93.381596
 20
170.286839
 30
0.0
 10
93.413205
 20
170.201044
 30
0.0
 10
93.499000
 20
170.192012
 30
0.0
 10
93.557702
 20
170.192012
 30
0.0
  0
SPLINE
  5
1d0
100
AcDbEntity
  8
Engrave_1
 62
7
100
AcDbSpline
 70
8
 71
3
 72
8
 73
4
 74
0
 40
0
 40
0
 40
0
 40
0
 40
1
 40
1
 40
1
 40
1
 10
93.557702
 20
170.192012
 30
0.0
 10
93.602858
 20
170.192012
 30
0.0
 10
93.675107
 20
170.201044
 30
0.0
 10
93.715747
 20
170.295870
 30
0.0
  0
LWPOLYLINE
  5
1d1
100
AcDbEntity
  8
Engrave_1
 62
7
100
AcDbPolyline
 90
3
 70
0
 10
92.523640
 20
170.295870
 30
0.0
 10
92.948102
 20
171.411212
 30
0.0
 10
93.381596
 20
170.286839
 30
0.0
  0
SPLINE
  5
1d2
100
AcDbEntity
  8
Engrave_1
 62
7
100
AcDbSpline
 70
8
 71
3
 72
8
 73
4
 74
0
 40
0
 40
0
 40
0
 40
0
 40
1
 40
1
 40
1
 40
1
 10
94.266645
 20
171.668599
 30
0.0
 10
94.347925
 20
171.867284
 30
0.0
 10
94.424689
 20
172.038875
 30
0.0
 10
94.677560
 20
172.061452
 30
0.0
  0
SPLINE
  5
1d3
100
AcDbEntity
  8
Engrave_1
 62
7
100
AcDbSpline
 70
8
 71
3
 72
8
 73
4
 74
0
 40
0
 40
0
 40
0
 40
0
 40
1
 40
1
 40
1
 40
1
 10
94.677560
 20
172.061452
 30
0.0
 10
94.704654
 20
172.088546
 30
0.0
 10
94.704654
 20
172.187888
 30
0.0
 10
94.677560
 20
172.214981
 30
0.0
  0
SPLINE
  5
1d4
100
AcDbEntity
  8
Engrave_1
 62
7
100
AcDbSpline
 70
8
 71
3
 72
8
 73
4
 74
0
 40
0
 40
0
 40
0
 40
0
 40
1
 40
1
 40
1
 40
1
 10
94.677560
 20
172.214981
 30
0.0
 10
94.578218
 20
172.210466
 30
0.0
 10
94.496938
 20
172.205950
 30
0.0
 10
94.379534
 20
172.205950
 30
0.0
  0
SPLINE
  5
1d5
100
AcDbEntity
  8
Engrave_1
 62
7
100
AcDbSpline
 70
8
 71
3
 72
8
 73
4
 74
0
 40
0
 40
0
 40
0
 40
0
 40
1
 40
1
 40
1
 40
1
 10
94.379534
 20
172.205950
 30
0.0
 10
94.212458
 20
172.205950
 30
0.0
 10
94.018289
 20
172.210466
 30
0.0
 10
93.851214
 20
172.214981
 30
0.0
  0
SPLINE
  5
1d6
100
AcDbEntity
  8
Engrave_1
 62
7
100
AcDbSpline
 70
8
 71
3
 72
8
 73
4
 74
0
 40
0
 40
0
 40
0
 40
0
 40
1
 40
1
 40
1
 40
1
 10
93.851214
 20
172.214981
 30
0.0
 10
93.824120
 20
172.187888
 30
0.0
 10
93.824120
 20
172.088546
 30
0.0
 10
93.851214
 20
172.061452
 30
0.0
  0
SPLINE
  5
1d7
100
AcDbEntity
  8
Engrave_1
 62
7
100
AcDbSpline
 70
8
 71
3
 72
8
 73
4
 74
0
 40
0
 40
0
 40
0
 40
0
 40
1
 40
1
 40
1
 40
1
 10
93.851214
 20
172.061452
 30
0.0
 10
94.095054
 20
172.043390
 30
0.0
 10
94.113116
 20
171.925986
 30
0.0
 10
94.027320
 20
171.700208
 30
0.0
  0
LWPOLYLINE
  5
1d8
100
AcDbEntity
  8
Engrave_1
 62
7
100
AcDbPolyline
 90
2
 70
0
 10
93.715747
 20
170.295870
 30
0.0
 10
94.266645
 20
171.668599
 30
0.0
  0
SPLINE
  5
1d9
100
AcDbEntity
  8
Engrave_1
 62
7
100
AcDbSpline
 70
8
 71
3
 72
8
 73
4
 74
0
 40
0
 40
0
 40
0
 40
0
 40
1
 40
1
 40
1
 40
1
 10
93.769934
 20
170.991266
 30
0.0
 10
93.747356
 20
170.932564
 30
0.0
 10
93.720262
 20
170.941595
 30
0.0
 10
93.702200
 20
170.982235
 30
0.0
  0
LWPOLYLINE
  5
1da
100
AcDbEntity
  8
Engrave_1
 62
7
100
AcDbPolyline
 90
2
 70
0
 10
94.027320
 20
171.700208
 30
0.0
 10
93.769934
 20
170.991266
 30
0.0
  0
SPLINE
  5
1db
100
AcDbEntity
  8
Engrave_1
 62
7
100
AcDbSpline
 70
8
 71
3
 72
8
 73
4
 74
0
 40
0
 40
0
 40
0
 40
0
 40
1
 40
1
 40
1
 40
1
 10
96.958410
 20
171.740848
 30
0.0
 10
96.877130
 20
171.953079
 30
0.0
 10
96.822943
 20
172.156279
 30
0.0
 10
96.822943
 20
172.156279
 30
0.0
  0
SPLINE
  5
1dc
100
AcDbEntity
  8
Engrave_1
 62
7
100
AcDbSpline
 70
8
 71
3
 72
8
 73
4
 74
0
 40
0
 40
0
 40
0
 40
0
 40
1
 40
1
 40
1
 40
1
 10
96.822943
 20
172.156279
 30
0.0
 10
96.737147
 20
172.147248
 30
0.0
 10
96.655867
 20
172.147248
 30
0.0
 10
96.570072
 20
172.156279
 30
0.0
  0
LWPOLYLINE
  5
1dd
100
AcDbEntity
  8
Engrave_1
 62
7
100
AcDbPolyline
 90
2
 70
0
 10
93.702200
 20
170.982235
 30
0.0
 10
93.404174
 20
171.740848
 30
0.0
  0
SPLINE
  5
1de
100
AcDbEntity
  8
Engrave_1
 62
7
100
AcDbSpline
 70
8
 71
3
 72
8
 73
4
 74
0
 40
0
 40
0
 40
0
 40
0
 40
1
 40
1
 40
1
 40
1
 10
96.136579
 20
170.968688
 30
0.0
 10
96.127547
 20
170.937079
 30
0.0
 10
96.104970
 20
170.928048
 30
0.0
 10
96.091423
 20
170.973204
 30
0.0
  0
LWPOLYLINE
  5
1df
100
AcDbEntity
  8
Engrave_1
 62
7
100
AcDbPolyline
 90
2
 70
0
 10
96.570072
 20
172.156279
 30
0.0
 10
96.136579
 20
170.968688
 30
0.0
  0
SPLINE
  5
1e0
100
AcDbEntity
  8
Engrave_1
 62
7
100
AcDbSpline
 70
8
 71
3
 72
8
 73
4
 74
0
 40
0
 40
0
 40
0
 40
0
 40
1
 40
1
 40
1
 40
1
 10
95.829521
 20
171.740848
 30
0.0
 10
95.757272
 20
171.953079
 30
0.0
 10
95.712116
 20
172.034359
 30
0.0
 10
95.996596
 20
172.061452
 30
0.0
  0
SPLINE
  5
1e1
100
AcDbEntity
  8
Engrave_1
 62
7
100
AcDbSpline
 70
8
 71
3
 72
8
 73
4
 74
0
 40
0
 40
0
 40
0
 40
0
 40
1
 40
1
 40
1
 40
1
 10
95.996596
 20
172.061452
 30
0.0
 10
96.023690
 20
172.088546
 30
0.0
 10
96.023690
 20
172.187888
 30
0.0
 10
95.996596
 20
172.214981
 30
0.0
  0
SPLINE
  5
1e2
100
AcDbEntity
  8
Engrave_1
 62
7
100
AcDbSpline
 70
8
 71
3
 72
8
 73
4
 74
0
 40
0
 40
0
 40
0
 40
0
 40
1
 40
1
 40
1
 40
1
 10
95.996596
 20
172.214981
 30
0.0
 10
95.829521
 20
172.210466
 30
0.0
 10
95.635352
 20
172.205950
 30
0.0
 10
95.405059
 20
172.205950
 30
0.0
  0
SPLINE
  5
1e3
100
AcDbEntity
  8
Engrave_1
 62
7
100
AcDbSpline
 70
8
 71
3
 72
8
 73
4
 74
0
 40
0
 40
0
 40
0
 40
0
 40
1
 40
1
 40
1
 40
1
 10
95.405059
 20
172.205950
 30
0.0
 10
95.247014
 20
172.205950
 30
0.0
 10
95.016721
 20
172.210466
 30
0.0
 10
94.849645
 20
172.214981
 30
0.0
  0
SPLINE
  5
1e4
100
AcDbEntity
  8
Engrave_1
 62
7
100
AcDbSpline
 70
8
 71
3
 72
8
 73
4
 74
0
 40
0
 40
0
 40
0
 40
0
 40
1
 40
1
 40
1
 40
1
 10
94.849645
 20
172.214981
 30
0.0
 10
94.822552
 20
172.187888
 30
0.0
 10
94.822552
 20
172.088546
 30
0.0
 10
94.849645
 20
172.061452
 30
0.0
  0
SPLINE
  5
1e5
100
AcDbEntity
  8
Engrave_1
 62
7
100
AcDbSpline
 70
8
 71
3
 72
8
 73
4
 74
0
 40
0
 40
0
 40
0
 40
0
 40
1
 40
1
 40
1
 40
1
 10
94.849645
 20
172.061452
 30
0.0
 10
95.107032
 20
172.029844
 30
0.0
 10
95.120579
 20
171.944048
 30
0.0
 10
95.210890
 20
171.713755
 30
0.0
  0
LWPOLYLINE
  5
1e6
100
AcDbEntity
  8
Engrave_1
 62
7
100
AcDbPolyline
 90
2
 70
0
 10
96.091423
 20
170.973204
 30
0.0
 10
95.829521
 20
171.740848
 30
0.0
  0
SPLINE
  5
1e7
100
AcDbEntity
  8
Engrave_1
 62
7
100
AcDbSpline
 70
8
 71
3
 72
8
 73
4
 74
0
 40
0
 40
0
 40
0
 40
0
 40
1
 40
1
 40
1
 40
1
 10
95.761787
 20
170.286839
 30
0.0
 10
95.793396
 20
170.196528
 30
0.0
 10
95.852099
 20
170.192012
 30
0.0
 10
95.910801
 20
170.192012
 30
0.0
  0
SPLINE
  5
1e8
100
AcDbEntity
  8
Engrave_1
 62
7
100
AcDbSpline
 70
8
 71
3
 72
8
 73
4
 74
0
 40
0
 40
0
 40
0
 40
0
 40
1
 40
1
 40
1
 40
1
 10
95.910801
 20
170.192012
 30
0.0
 10
95.955956
 20
170.192012
 30
0.0
 10
96.041752
 20
170.201044
 30
0.0
 10
96.077876
 20
170.295870
 30
0.0
  0
LWPOLYLINE
  5
1e9
100
AcDbEntity
  8
Engrave_1
 62
7
100
AcDbPolyline
 90
2
 70
0
 10
95.210890
 20
171.713755
 30
0.0
 10
95.761787
 20
170.286839
 30
0.0
  0
SPLINE
  5
1ea
100
AcDbEntity
  8
Engrave_1
 62
7
100
AcDbSpline
 70
8
 71
3
 72
8
 73
4
 74
0
 40
0
 40
0
 40
0
 40
0
 40
1
 40
1
 40
1
 40
1
 10
96.935832
 20
170.286839
 30
0.0
 10
96.967441
 20
170.201044
 30
0.0
 10
97.053236
 20
170.192012
 30
0.0
 10
97.111939
 20
170.192012
 30
0.0
  0
SPLINE
  5
1eb
100
AcDbEntity
  8
Engrave_1
 62
7
100
AcDbSpline
 70
8
 71
3
 72
8
 73
4
 74
0
 40
0
 40
0
 40
0
 40
0
 40
1
 40
1
 40
1
 40
1
 10
97.111939
 20
170.192012
 30
0.0
 10
97.157094
 20
170.192012
 30
0.0
 10
97.229343
 20
170.201044
 30
0.0
 10
97.269983
 20
170.295870
 30
0.0
  0
LWPOLYLINE
  5
1ec
100
AcDbEntity
  8
Engrave_1
 62
7
100
AcDbPolyline
 90
3
 70
0
 10
96.077876
 20
170.295870
 30
0.0
 10
96.502339
 20
171.411212
 30
0.0
 10
96.935832
 20
170.286839
 30
0.0
  0
SPLINE
  5
1ed
100
AcDbEntity
  8
Engrave_1
 62
7
100
AcDbSpline
 70
8
 71
3
 72
8
 73
4
 74
0
 40
0
 40
0
 40
0
 40
0
 40
1
 40
1
 40
1
 40
1
 10
97.820881
 20
171.668599
 30
0.0
 10
97.902161
 20
171.867284
 30
0.0
 10
97.978925
 20
172.038875
 30
0.0
 10
98.231796
 20
172.061452
 30
0.0
  0
SPLINE
  5
1ee
100
AcDbEntity
  8
Engrave_1
 62
7
100
AcDbSpline
 70
8
 71
3
 72
8
 73
4
 74
0
 40
0
 40
0
 40
0
 40
0
 40
1
 40
1
 40
1
 40
1
 10
98.231796
 20
172.061452
 30
0.0
 10
98.258890
 20
172.088546
 30
0.0
 10
98.258890
 20
172.187888
 30
0.0
 10
98.231796
 20
172.214981
 30
0.0
  0
SPLINE
  5
1ef
100
AcDbEntity
  8
Engrave_1
 62
7
100
AcDbSpline
 70
8
 71
3
 72
8
 73
4
 74
0
 40
0
 40
0
 40
0
 40
0
 40
1
 40
1
 40
1
 40
1
 10
98.231796
 20
172.214981
 30
0.0
 10
98.132454
 20
172.210466
 30
0.0
 10
98.051174
 20
172.205950
 30
0.0
 10
97.933770
 20
172.205950
 30
0.0
  0
SPLINE
  5
1f0
100
AcDbEntity
  8
Engrave_1
 62
7
100
AcDbSpline
 70
8
 71
3
 72
8
 73
4
 74
0
 40
0
 40
0
 40
0
 40
0
 40
1
 40
1
 40
1
 40
1
 10
97.933770
 20
172.205950
 30
0.0
 10
97.766694
 20
172.205950
 30
0.0
 10
97.572525
 20
172.210466
 30
0.0
 10
97.405450
 20
172.214981
 30
0.0
  0
SPLINE
  5
1f1
100
AcDbEntity
  8
Engrave_1
 62
7
100
AcDbSpline
 70
8
 71
3
 72
8
 73
4
 74
0
 40
0
 40
0
 40
0
 40
0
 40
1
 40
1
 40
1
 40
1
 10
97.405450
 20
172.214981
 30
0.0
 10
97.378356
 20
172.187888
 30
0.0
 10
97.378356
 20
172.088546
 30
0.0
 10
97.405450
 20
172.061452
 30
0.0
  0
SPLINE
  5
1f2
100
AcDbEntity
  8
Engrave_1
 62
7
100
AcDbSpline
 70
8
 71
3
 72
8
 73
4
 74
0
 40
0
 40
0
 40
0
 40
0
 40
1
 40
1
 40
1
 40
1
 10
97.405450
 20
172.061452
 30
0.0
 10
97.649290
 20
172.043390
 30
0.0
 10
97.667352
 20
171.925986
 30
0.0
 10
97.581556
 20
171.700208
 30
0.0
  0
LWPOLYLINE
  5
1f3
100
AcDbEntity
  8
Engrave_1
 62
7
100
AcDbPolyline
 90
2
 70
0
 10
97.269983
 20
170.295870
 30
0.0
 10
97.820881
 20
171.668599
 30
0.0
  0
SPLINE
  5
1f4
100
AcDbEntity
  8
Engrave_1
 62
7
100
AcDbSpline
 70
8
 71
3
 72
8
 73
4
 74
0
 40
0
 40
0
 40
0
 40
0
 40
1
 40
1
 40
1
 40
1
 10
97.324170
 20
170.991266
 30
0.0
 10
97.301592
 20
170.932564
 30
0.0
 10
97.274499
 20
170.941595
 30
0.0
 10
97.256436
 20
170.982235
 30
0.0
  0
LWPOLYLINE
  5
1f5
100
AcDbEntity
  8
Engrave_1
 62
7
100
AcDbPolyline
 90
2
 70
0
 10
97.581556
 20
171.700208
 30
0.0
 10
97.324170
 20
170.991266
 30
0.0
  0
SPLINE
  5
1f6
100
AcDbEntity
  8
Engrave_1
 62
7
100
AcDbSpline
 70
8
 71
3
 72
8
 73
4
 74
0
 40
0
 40
0
 40
0
 40
0
 40
1
 40
1
 40
1
 40
1
 10
98.341440
 20
170.508101
 30
0.0
 10
98.341440
 20
170.336510
 30
0.0
 10
98.485937
 20
170.201044
 30
0.0
 10
98.666560
 20
170.201044
 30
0.0
  0
SPLINE
  5
1f7
100
AcDbEntity
  8
Engrave_1
 62
7
100
AcDbSpline
 70
8
 71
3
 72
8
 73
4
 74
0
 40
0
 40
0
 40
0
 40
0
 40
1
 40
1
 40
1
 40
1
 10
98.666560
 20
170.201044
 30
0.0
 10
98.847182
 20
170.201044
 30
0.0
 10
99.000711
 20
170.345541
 30
0.0
 10
99.000711
 20
170.517132
 30
0.0
  0
SPLINE
  5
1f8
100
AcDbEntity
  8
Engrave_1
 62
7
100
AcDbSpline
 70
8
 71
3
 72
8
 73
4
 74
0
 40
0
 40
0
 40
0
 40
0
 40
1
 40
1
 40
1
 40
1
 10
99.000711
 20
170.517132
 30
0.0
 10
99.000711
 20
170.693239
 30
0.0
 10
98.856213
 20
170.828706
 30
0.0
 10
98.675591
 20
170.828706
 30
0.0
  0
SPLINE
  5
1f9
100
AcDbEntity
  8
Engrave_1
 62
7
100
AcDbSpline
 70
8
 71
3
 72
8
 73
4
 74
0
 40
0
 40
0
 40
0
 40
0
 40
1
 40
1
 40
1
 40
1
 10
98.675591
 20
170.828706
 30
0.0
 10
98.494969
 20
170.828706
 30
0.0
 10
98.341440
 20
170.684208
 30
0.0
 10
98.341440
 20
170.508101
 30
0.0
  0
SPLINE
  5
1fa
100
AcDbEntity
  8
Engrave_1
 62
7
100
AcDbSpline
 70
8
 71
3
 72
8
 73
4
 74
0
 40
0
 40
0
 40
0
 40
0
 40
1
 40
1
 40
1
 40
1
 10
100.807568
 20
170.670661
 30
0.0
 10
100.712741
 20
170.593897
 30
0.0
 10
100.473417
 20
170.499070
 30
0.0
 10
100.423746
 20
170.499070
 30
0.0
  0
SPLINE
  5
1fb
100
AcDbEntity
  8
Engrave_1
 62
7
100
AcDbSpline
 70
8
 71
3
 72
8
 73
4
 74
0
 40
0
 40
0
 40
0
 40
0
 40
1
 40
1
 40
1
 40
1
 10
100.423746
 20
170.499070
 30
0.0
 10
100.197968
 20
170.499070
 30
0.0
 10
100.021861
 20
170.751944
 30
0.0
 10
100.021861
 20
171.280261
 30
0.0
  0
SPLINE
  5
1fc
100
AcDbEntity
  8
Engrave_1
 62
7
100
AcDbSpline
 70
8
 71
3
 72
8
 73
4
 74
0
 40
0
 40
0
 40
0
 40
0
 40
1
 40
1
 40
1
 40
1
 10
100.021861
 20
171.280261
 30
0.0
 10
100.021861
 20
171.519586
 30
0.0
 10
100.048955
 20
171.727301
 30
0.0
 10
100.134750
 20
171.867284
 30
0.0
  0
SPLINE
  5
1fd
100
AcDbEntity
  8
Engrave_1
 62
7
100
AcDbSpline
 70
8
 71
3
 72
8
 73
4
 74
0
 40
0
 40
0
 40
0
 40
0
 40
1
 40
1
 40
1
 40
1
 10
100.134750
 20
171.867284
 30
0.0
 10
100.206999
 20
171.989204
 30
0.0
 10
100.328919
 20
172.061452
 30
0.0
 10
100.468901
 20
172.061452
 30
0.0
  0
SPLINE
  5
1fe
100
AcDbEntity
  8
Engrave_1
 62
7
100
AcDbSpline
 70
8
 71
3
 72
8
 73
4
 74
0
 40
0
 40
0
 40
0
 40
0
 40
1
 40
1
 40
1
 40
1
 10
100.468901
 20
172.061452
 30
0.0
 10
100.586306
 20
172.061452
 30
0.0
 10
100.694679
 20
172.047906
 30
0.0
 10
100.807568
 20
171.898892
 30
0.0
  0
LWPOLYLINE
  5
1ff
100
AcDbEntity
  8
Engrave_1
 62
7
100
AcDbPolyline
 90
2
 70
0
 10
97.256436
 20
170.982235
 30
0.0
 10
96.958410
 20
171.740848
 30
0.0
  0
SPLINE
  5
200
100
AcDbEntity
  8
Engrave_1
 62
7
100
AcDbSpline
 70
8
 71
3
 72
8
 73
4
 74
0
 40
0
 40
0
 40
0
 40
0
 40
1
 40
1
 40
1
 40
1
 10
100.807568
 20
170.788066
 30
0.0
 10
100.807568
 20
170.747426
 30
0.0
 10
100.807568
 20
170.711301
 30
0.0
 10
100.807568
 20
170.670661
 30
0.0
  0
SPLINE
  5
201
100
AcDbEntity
  8
Engrave_1
 62
7
100
AcDbSpline
 70
8
 71
3
 72
8
 73
4
 74
0
 40
0
 40
0
 40
0
 40
0
 40
1
 40
1
 40
1
 40
1
 10
100.821115
 20
170.462946
 30
0.0
 10
100.830146
 20
170.354572
 30
0.0
 10
100.839177
 20
170.277808
 30
0.0
 10
100.839177
 20
170.277808
 30
0.0
  0
SPLINE
  5
202
100
AcDbEntity
  8
Engrave_1
 62
7
100
AcDbSpline
 70
8
 71
3
 72
8
 73
4
 74
0
 40
0
 40
0
 40
0
 40
0
 40
1
 40
1
 40
1
 40
1
 10
100.839177
 20
170.277808
 30
0.0
 10
100.843692
 20
170.223621
 30
0.0
 10
100.879817
 20
170.201044
 30
0.0
 10
100.943035
 20
170.201044
 30
0.0
  0
SPLINE
  5
203
100
AcDbEntity
  8
Engrave_1
 62
7
100
AcDbSpline
 70
8
 71
3
 72
8
 73
4
 74
0
 40
0
 40
0
 40
0
 40
0
 40
1
 40
1
 40
1
 40
1
 10
100.943035
 20
170.201044
 30
0.0
 10
101.110110
 20
170.246199
 30
0.0
 10
101.381044
 20
170.309417
 30
0.0
 10
101.692617
 20
170.350057
 30
0.0
  0
SPLINE
  5
204
100
AcDbEntity
  8
Engrave_1
 62
7
100
AcDbSpline
 70
8
 71
3
 72
8
 73
4
 74
0
 40
0
 40
0
 40
0
 40
0
 40
1
 40
1
 40
1
 40
1
 10
101.692617
 20
170.350057
 30
0.0
 10
101.701648
 20
170.377150
 30
0.0
 10
101.692617
 20
170.467461
 30
0.0
 10
101.683586
 20
170.494555
 30
0.0
  0
SPLINE
  5
205
100
AcDbEntity
  8
Engrave_1
 62
7
100
AcDbSpline
 70
8
 71
3
 72
8
 73
4
 74
0
 40
0
 40
0
 40
0
 40
0
 40
1
 40
1
 40
1
 40
1
 10
101.683586
 20
170.494555
 30
0.0
 10
101.439746
 20
170.517132
 30
0.0
 10
101.390075
 20
170.589381
 30
0.0
 10
101.390075
 20
170.846768
 30
0.0
  0
LWPOLYLINE
  5
206
100
AcDbEntity
  8
Engrave_1
 62
7
100
AcDbPolyline
 90
2
 70
0
 10
100.807568
 20
171.898892
 30
0.0
 10
100.807568
 20
170.788066
 30
0.0
  0
SPLINE
  5
207
100
AcDbEntity
  8
Engrave_1
 62
7
100
AcDbSpline
 70
8
 71
3
 72
8
 73
4
 74
0
 40
0
 40
0
 40
0
 40
0
 40
1
 40
1
 40
1
 40
1
 10
101.390075
 20
172.878768
 30
0.0
 10
101.390075
 20
173.172279
 30
0.0
 10
101.403621
 20
173.339355
 30
0.0
 10
101.403621
 20
173.339355
 30
0.0
  0
SPLINE
  5
208
100
AcDbEntity
  8
Engrave_1
 62
7
100
AcDbSpline
 70
8
 71
3
 72
8
 73
4
 74
0
 40
0
 40
0
 40
0
 40
0
 40
1
 40
1
 40
1
 40
1
 10
101.403621
 20
173.339355
 30
0.0
 10
101.403621
 20
173.379995
 30
0.0
 10
101.372012
 20
173.398057
 30
0.0
 10
101.331372
 20
173.398057
 30
0.0
  0
SPLINE
  5
209
100
AcDbEntity
  8
Engrave_1
 62
7
100
AcDbSpline
 70
8
 71
3
 72
8
 73
4
 74
0
 40
0
 40
0
 40
0
 40
0
 40
1
 40
1
 40
1
 40
1
 10
101.331372
 20
173.398057
 30
0.0
 10
101.164297
 20
173.343870
 30
0.0
 10
100.803052
 20
173.294199
 30
0.0
 10
100.482448
 20
173.280652
 30
0.0
  0
SPLINE
  5
20a
100
AcDbEntity
  8
Engrave_1
 62
7
100
AcDbSpline
 70
8
 71
3
 72
8
 73
4
 74
0
 40
0
 40
0
 40
0
 40
0
 40
1
 40
1
 40
1
 40
1
 10
100.482448
 20
173.280652
 30
0.0
 10
100.468901
 20
173.226466
 30
0.0
 10
100.473417
 20
173.167764
 30
0.0
 10
100.495995
 20
173.127124
 30
0.0
  0
SPLINE
  5
20b
100
AcDbEntity
  8
Engrave_1
 62
7
100
AcDbSpline
 70
8
 71
3
 72
8
 73
4
 74
0
 40
0
 40
0
 40
0
 40
0
 40
1
 40
1
 40
1
 40
1
 10
100.495995
 20
173.127124
 30
0.0
 10
100.780475
 20
173.104546
 30
0.0
 10
100.803052
 20
173.100030
 30
0.0
 10
100.803052
 20
172.788457
 30
0.0
  0
LWPOLYLINE
  5
20c
100
AcDbEntity
  8
Engrave_1
 62
7
100
AcDbPolyline
 90
2
 70
0
 10
101.390075
 20
170.846768
 30
0.0
 10
101.390075
 20
172.878768
 30
0.0
  0
SPLINE
  5
20d
100
AcDbEntity
  8
Engrave_1
 62
7
100
AcDbSpline
 70
8
 71
3
 72
8
 73
4
 74
0
 40
0
 40
0
 40
0
 40
0
 40
1
 40
1
 40
1
 40
1
 10
100.803052
 20
172.196919
 30
0.0
 10
100.717257
 20
172.228528
 30
0.0
 10
100.608884
 20
172.251106
 30
0.0
 10
100.477932
 20
172.251106
 30
0.0
  0
SPLINE
  5
20e
100
AcDbEntity
  8
Engrave_1
 62
7
100
AcDbSpline
 70
8
 71
3
 72
8
 73
4
 74
0
 40
0
 40
0
 40
0
 40
0
 40
1
 40
1
 40
1
 40
1
 10
100.477932
 20
172.251106
 30
0.0
 10
99.895426
 20
172.251106
 30
0.0
 10
99.385168
 20
171.740848
 30
0.0
 10
99.385168
 20
171.140279
 30
0.0
  0
SPLINE
  5
20f
100
AcDbEntity
  8
Engrave_1
 62
7
100
AcDbSpline
 70
8
 71
3
 72
8
 73
4
 74
0
 40
0
 40
0
 40
0
 40
0
 40
1
 40
1
 40
1
 40
1
 10
99.385168
 20
171.140279
 30
0.0
 10
99.385168
 20
170.869346
 30
0.0
 10
99.484510
 20
170.557772
 30
0.0
 10
99.701257
 20
170.390697
 30
0.0
  0
SPLINE
  5
210
100
AcDbEntity
  8
Engrave_1
 62
7
100
AcDbSpline
 70
8
 71
3
 72
8
 73
4
 74
0
 40
0
 40
0
 40
0
 40
0
 40
1
 40
1
 40
1
 40
1
 10
99.701257
 20
170.390697
 30
0.0
 10
99.863817
 20
170.264261
 30
0.0
 10
99.981221
 20
170.201044
 30
0.0
 10
100.229577
 20
170.201044
 30
0.0
  0
SPLINE
  5
211
100
AcDbEntity
  8
Engrave_1
 62
7
100
AcDbSpline
 70
8
 71
3
 72
8
 73
4
 74
0
 40
0
 40
0
 40
0
 40
0
 40
1
 40
1
 40
1
 40
1
 10
100.229577
 20
170.201044
 30
0.0
 10
100.351497
 20
170.201044
 30
0.0
 10
100.685648
 20
170.399728
 30
0.0
 10
100.780475
 20
170.462946
 30
0.0
  0
LWPOLYLINE
  5
212
100
AcDbEntity
  8
Engrave_1
 62
7
100
AcDbPolyline
 90
2
 70
0
 10
100.803052
 20
172.788457
 30
0.0
 10
100.803052
 20
172.196919
 30
0.0
  0
SPLINE
  5
213
100
AcDbEntity
  8
Engrave_1
 62
7
100
AcDbSpline
 70
8
 71
3
 72
8
 73
4
 74
0
 40
0
 40
0
 40
0
 40
0
 40
1
 40
1
 40
1
 40
1
 10
102.530464
 20
171.487977
 30
0.0
 10
102.534980
 20
171.646021
 30
0.0
 10
102.557557
 20
171.813097
 30
0.0
 10
102.620775
 20
171.907924
 30
0.0
  0
SPLINE
  5
214
100
AcDbEntity
  8
Engrave_1
 62
7
100
AcDbSpline
 70
8
 71
3
 72
8
 73
4
 74
0
 40
0
 40
0
 40
0
 40
0
 40
1
 40
1
 40
1
 40
1
 10
102.620775
 20
171.907924
 30
0.0
 10
102.688509
 20
172.011781
 30
0.0
 10
102.810429
 20
172.061452
 30
0.0
 10
102.864615
 20
172.061452
 30
0.0
  0
SPLINE
  5
215
100
AcDbEntity
  8
Engrave_1
 62
7
100
AcDbSpline
 70
8
 71
3
 72
8
 73
4
 74
0
 40
0
 40
0
 40
0
 40
0
 40
1
 40
1
 40
1
 40
1
 10
102.864615
 20
172.061452
 30
0.0
 10
102.986535
 20
172.061452
 30
0.0
 10
103.153611
 20
171.944048
 30
0.0
 10
103.153611
 20
171.582804
 30
0.0
  0
SPLINE
  5
216
100
AcDbEntity
  8
Engrave_1
 62
7
100
AcDbSpline
 70
8
 71
3
 72
8
 73
4
 74
0
 40
0
 40
0
 40
0
 40
0
 40
1
 40
1
 40
1
 40
1
 10
103.153611
 20
171.582804
 30
0.0
 10
103.153611
 20
171.555710
 30
0.0
 10
103.153611
 20
171.497008
 30
0.0
 10
103.144580
 20
171.487977
 30
0.0
  0
LWPOLYLINE
  5
217
100
AcDbEntity
  8
Engrave_1
 62
7
100
AcDbPolyline
 90
2
 70
0
 10
100.780475
 20
170.462946
 30
0.0
 10
100.821115
 20
170.462946
 30
0.0
  0
SPLINE
  5
218
100
AcDbEntity
  8
Engrave_1
 62
7
100
AcDbSpline
 70
8
 71
3
 72
8
 73
4
 74
0
 40
0
 40
0
 40
0
 40
0
 40
1
 40
1
 40
1
 40
1
 10
103.677415
 20
170.828706
 30
0.0
 10
103.492277
 20
170.639052
 30
0.0
 10
103.248437
 20
170.589381
 30
0.0
 10
103.076846
 20
170.589381
 30
0.0
  0
SPLINE
  5
219
100
AcDbEntity
  8
Engrave_1
 62
7
100
AcDbSpline
 70
8
 71
3
 72
8
 73
4
 74
0
 40
0
 40
0
 40
0
 40
0
 40
1
 40
1
 40
1
 40
1
 10
103.076846
 20
170.589381
 30
0.0
 10
102.724633
 20
170.589381
 30
0.0
 10
102.507886
 20
170.792581
 30
0.0
 10
102.507886
 20
171.235106
 30
0.0
  0
SPLINE
  5
21a
100
AcDbEntity
  8
Engrave_1
 62
7
100
AcDbSpline
 70
8
 71
3
 72
8
 73
4
 74
0
 40
0
 40
0
 40
0
 40
0
 40
1
 40
1
 40
1
 40
1
 10
102.507886
 20
171.235106
 30
0.0
 10
102.507886
 20
171.266715
 30
0.0
 10
102.512402
 20
171.284777
 30
0.0
 10
102.512402
 20
171.307355
 30
0.0
  0
LWPOLYLINE
  5
21b
100
AcDbEntity
  8
Engrave_1
 62
7
100
AcDbPolyline
 90
2
 70
0
 10
103.144580
 20
171.487977
 30
0.0
 10
102.530464
 20
171.487977
 30
0.0
  0
SPLINE
  5
21c
100
AcDbEntity
  8
Engrave_1
 62
7
100
AcDbSpline
 70
8
 71
3
 72
8
 73
4
 74
0
 40
0
 40
0
 40
0
 40
0
 40
1
 40
1
 40
1
 40
1
 10
103.596135
 20
171.307355
 30
0.0
 10
103.704509
 20
171.307355
 30
0.0
 10
103.727086
 20
171.384119
 30
0.0
 10
103.727086
 20
171.447337
 30
0.0
  0
SPLINE
  5
21d
100
AcDbEntity
  8
Engrave_1
 62
7
100
AcDbSpline
 70
8
 71
3
 72
8
 73
4
 74
0
 40
0
 40
0
 40
0
 40
0
 40
1
 40
1
 40
1
 40
1
 10
103.727086
 20
171.447337
 30
0.0
 10
103.727086
 20
171.831159
 30
0.0
 10
103.578073
 20
172.251106
 30
0.0
 10
102.914286
 20
172.251106
 30
0.0
  0
SPLINE
  5
21e
100
AcDbEntity
  8
Engrave_1
 62
7
100
AcDbSpline
 70
8
 71
3
 72
8
 73
4
 74
0
 40
0
 40
0
 40
0
 40
0
 40
1
 40
1
 40
1
 40
1
 10
102.914286
 20
172.251106
 30
0.0
 10
102.440153
 20
172.251106
 30
0.0
 10
101.920864
 20
171.831159
 30
0.0
 10
101.920864
 20
171.140279
 30
0.0
  0
SPLINE
  5
21f
100
AcDbEntity
  8
Engrave_1
 62
7
100
AcDbSpline
 70
8
 71
3
 72
8
 73
4
 74
0
 40
0
 40
0
 40
0
 40
0
 40
1
 40
1
 40
1
 40
1
 10
101.920864
 20
171.140279
 30
0.0
 10
101.920864
 20
170.873861
 30
0.0
 10
102.015691
 20
170.598412
 30
0.0
 10
102.209860
 20
170.426821
 30
0.0
  0
SPLINE
  5
220
100
AcDbEntity
  8
Engrave_1
 62
7
100
AcDbSpline
 70
8
 71
3
 72
8
 73
4
 74
0
 40
0
 40
0
 40
0
 40
0
 40
1
 40
1
 40
1
 40
1
 10
102.209860
 20
170.426821
 30
0.0
 10
102.376935
 20
170.268777
 30
0.0
 10
102.575620
 20
170.201044
 30
0.0
 10
102.900740
 20
170.201044
 30
0.0
  0
SPLINE
  5
221
100
AcDbEntity
  8
Engrave_1
 62
7
100
AcDbSpline
 70
8
 71
3
 72
8
 73
4
 74
0
 40
0
 40
0
 40
0
 40
0
 40
1
 40
1
 40
1
 40
1
 10
102.900740
 20
170.201044
 30
0.0
 10
103.212313
 20
170.201044
 30
0.0
 10
103.519371
 20
170.359088
 30
0.0
 10
103.745149
 20
170.688724
 30
0.0
  0
SPLINE
  5
222
100
AcDbEntity
  8
Engrave_1
 62
7
100
AcDbSpline
 70
8
 71
3
 72
8
 73
4
 74
0
 40
0
 40
0
 40
0
 40
0
 40
1
 40
1
 40
1
 40
1
 10
103.745149
 20
170.688724
 30
0.0
 10
103.745149
 20
170.747426
 30
0.0
 10
103.722571
 20
170.828706
 30
0.0
 10
103.677415
 20
170.828706
 30
0.0
  0
LWPOLYLINE
  5
223
100
AcDbEntity
  8
Engrave_1
 62
7
100
AcDbPolyline
 90
2
 70
0
 10
102.512402
 20
171.307355
 30
0.0
 10
103.596135
 20
171.307355
 30
0.0
  0
SPLINE
  5
224
100
AcDbEntity
  8
Engrave_1
 62
7
100
AcDbSpline
 70
8
 71
3
 72
8
 73
4
 74
0
 40
0
 40
0
 40
0
 40
0
 40
1
 40
1
 40
1
 40
1
 10
105.367926
 20
171.980172
 30
0.0
 10
105.449206
 20
171.980172
 30
0.0
 10
105.525971
 20
172.002750
 30
0.0
 10
105.525971
 20
172.056937
 30
0.0
  0
LWPOLYLINE
  5
225
100
AcDbEntity
  8
Engrave_1
 62
7
100
AcDbPolyline
 90
3
 70
0
 10
104.979589
 20
170.824190
 30
0.0
 10
104.979589
 20
171.980172
 30
0.0
 10
105.367926
 20
171.980172
 30
0.0
  0
SPLINE
  5
226
100
AcDbEntity
  8
Engrave_1
 62
7
100
AcDbSpline
 70
8
 71
3
 72
8
 73
4
 74
0
 40
0
 40
0
 40
0
 40
0
 40
1
 40
1
 40
1
 40
1
 10
105.525971
 20
172.160795
 30
0.0
 10
105.525971
 20
172.187888
 30
0.0
 10
105.521455
 20
172.205950
 30
0.0
 10
105.435660
 20
172.205950
 30
0.0
  0
LWPOLYLINE
  5
227
100
AcDbEntity
  8
Engrave_1
 62
7
100
AcDbPolyline
 90
2
 70
0
 10
105.525971
 20
172.056937
 30
0.0
 10
105.525971
 20
172.160795
 30
0.0
  0
SPLINE
  5
228
100
AcDbEntity
  8
Engrave_1
 62
7
100
AcDbSpline
 70
8
 71
3
 72
8
 73
4
 74
0
 40
0
 40
0
 40
0
 40
0
 40
1
 40
1
 40
1
 40
1
 10
104.979589
 20
172.436244
 30
0.0
 10
104.979589
 20
173.109061
 30
0.0
 10
105.164726
 20
173.208404
 30
0.0
 10
105.264069
 20
173.208404
 30
0.0
  0
SPLINE
  5
229
100
AcDbEntity
  8
Engrave_1
 62
7
100
AcDbSpline
 70
8
 71
3
 72
8
 73
4
 74
0
 40
0
 40
0
 40
0
 40
0
 40
1
 40
1
 40
1
 40
1
 10
105.264069
 20
173.208404
 30
0.0
 10
105.340833
 20
173.208404
 30
0.0
 10
105.358895
 20
173.140670
 30
0.0
 10
105.390504
 20
173.032297
 30
0.0
  0
SPLINE
  5
22a
100
AcDbEntity
  8
Engrave_1
 62
7
100
AcDbSpline
 70
8
 71
3
 72
8
 73
4
 74
0
 40
0
 40
0
 40
0
 40
0
 40
1
 40
1
 40
1
 40
1
 10
105.390504
 20
173.032297
 30
0.0
 10
105.431144
 20
172.887799
 30
0.0
 10
105.548549
 20
172.774910
 30
0.0
 10
105.711109
 20
172.774910
 30
0.0
  0
SPLINE
  5
22b
100
AcDbEntity
  8
Engrave_1
 62
7
100
AcDbSpline
 70
8
 71
3
 72
8
 73
4
 74
0
 40
0
 40
0
 40
0
 40
0
 40
1
 40
1
 40
1
 40
1
 10
105.711109
 20
172.774910
 30
0.0
 10
105.860122
 20
172.774910
 30
0.0
 10
105.968495
 20
172.869737
 30
0.0
 10
105.968495
 20
173.063906
 30
0.0
  0
SPLINE
  5
22c
100
AcDbEntity
  8
Engrave_1
 62
7
100
AcDbSpline
 70
8
 71
3
 72
8
 73
4
 74
0
 40
0
 40
0
 40
0
 40
0
 40
1
 40
1
 40
1
 40
1
 10
105.968495
 20
173.063906
 30
0.0
 10
105.968495
 20
173.185826
 30
0.0
 10
105.828513
 20
173.398057
 30
0.0
 10
105.349864
 20
173.398057
 30
0.0
  0
SPLINE
  5
22d
100
AcDbEntity
  8
Engrave_1
 62
7
100
AcDbSpline
 70
8
 71
3
 72
8
 73
4
 74
0
 40
0
 40
0
 40
0
 40
0
 40
1
 40
1
 40
1
 40
1
 10
105.349864
 20
173.398057
 30
0.0
 10
105.137633
 20
173.398057
 30
0.0
 10
104.884762
 20
173.321292
 30
0.0
 10
104.713171
 20
173.136155
 30
0.0
  0
SPLINE
  5
22e
100
AcDbEntity
  8
Engrave_1
 62
7
100
AcDbSpline
 70
8
 71
3
 72
8
 73
4
 74
0
 40
0
 40
0
 40
0
 40
0
 40
1
 40
1
 40
1
 40
1
 10
104.713171
 20
173.136155
 30
0.0
 10
104.546095
 20
172.955532
 30
0.0
 10
104.392566
 20
172.729755
 30
0.0
 10
104.392566
 20
172.296261
 30
0.0
  0
LWPOLYLINE
  5
22f
100
AcDbEntity
  8
Engrave_1
 62
7
100
AcDbPolyline
 90
3
 70
0
 10
105.435660
 20
172.205950
 30
0.0
 10
104.979589
 20
172.205950
 30
0.0
 10
104.979589
 20
172.436244
 30
0.0
  0
SPLINE
  5
230
100
AcDbEntity
  8
Engrave_1
 62
7
100
AcDbSpline
 70
8
 71
3
 72
8
 73
4
 74
0
 40
0
 40
0
 40
0
 40
0
 40
1
 40
1
 40
1
 40
1
 10
104.383535
 20
172.205950
 30
0.0
 10
104.230006
 20
172.205950
 30
0.0
 10
104.044869
 20
172.183372
 30
0.0
 10
104.044869
 20
172.147248
 30
0.0
  0
LWPOLYLINE
  5
231
100
AcDbEntity
  8
Engrave_1
 62
7
100
AcDbPolyline
 90
3
 70
0
 10
104.392566
 20
172.296261
 30
0.0
 10
104.392566
 20
172.205950
 30
0.0
 10
104.383535
 20
172.205950
 30
0.0
  0
SPLINE
  5
232
100
AcDbEntity
  8
Engrave_1
 62
7
100
AcDbSpline
 70
8
 71
3
 72
8
 73
4
 74
0
 40
0
 40
0
 40
0
 40
0
 40
1
 40
1
 40
1
 40
1
 10
104.044869
 20
172.025328
 30
0.0
 10
104.044869
 20
171.993719
 30
0.0
 10
104.062931
 20
171.980172
 30
0.0
 10
104.166789
 20
171.980172
 30
0.0
  0
LWPOLYLINE
  5
233
100
AcDbEntity
  8
Engrave_1
 62
7
100
AcDbPolyline
 90
2
 70
0
 10
104.044869
 20
172.147248
 30
0.0
 10
104.044869
 20
172.025328
 30
0.0
  0
SPLINE
  5
234
100
AcDbEntity
  8
Engrave_1
 62
7
100
AcDbSpline
 70
8
 71
3
 72
8
 73
4
 74
0
 40
0
 40
0
 40
0
 40
0
 40
1
 40
1
 40
1
 40
1
 10
104.392566
 20
170.815159
 30
0.0
 10
104.392566
 20
170.444884
 30
0.0
 10
104.320317
 20
170.404244
 30
0.0
 10
104.044869
 20
170.390697
 30
0.0
  0
SPLINE
  5
235
100
AcDbEntity
  8
Engrave_1
 62
7
100
AcDbSpline
 70
8
 71
3
 72
8
 73
4
 74
0
 40
0
 40
0
 40
0
 40
0
 40
1
 40
1
 40
1
 40
1
 10
104.044869
 20
170.390697
 30
0.0
 10
104.017775
 20
170.363604
 30
0.0
 10
104.017775
 20
170.264261
 30
0.0
 10
104.044869
 20
170.237168
 30
0.0
  0
SPLINE
  5
236
100
AcDbEntity
  8
Engrave_1
 62
7
100
AcDbSpline
 70
8
 71
3
 72
8
 73
4
 74
0
 40
0
 40
0
 40
0
 40
0
 40
1
 40
1
 40
1
 40
1
 10
104.044869
 20
170.237168
 30
0.0
 10
104.234522
 20
170.241684
 30
0.0
 10
104.437722
 20
170.246199
 30
0.0
 10
104.686077
 20
170.246199
 30
0.0
  0
SPLINE
  5
237
100
AcDbEntity
  8
Engrave_1
 62
7
100
AcDbSpline
 70
8
 71
3
 72
8
 73
4
 74
0
 40
0
 40
0
 40
0
 40
0
 40
1
 40
1
 40
1
 40
1
 10
104.686077
 20
170.246199
 30
0.0
 10
104.934433
 20
170.246199
 30
0.0
 10
105.133117
 20
170.241684
 30
0.0
 10
105.327286
 20
170.237168
 30
0.0
  0
SPLINE
  5
238
100
AcDbEntity
  8
Engrave_1
 62
7
100
AcDbSpline
 70
8
 71
3
 72
8
 73
4
 74
0
 40
0
 40
0
 40
0
 40
0
 40
1
 40
1
 40
1
 40
1
 10
105.327286
 20
170.237168
 30
0.0
 10
105.354380
 20
170.264261
 30
0.0
 10
105.354380
 20
170.363604
 30
0.0
 10
105.327286
 20
170.390697
 30
0.0
  0
SPLINE
  5
239
100
AcDbEntity
  8
Engrave_1
 62
7
100
AcDbSpline
 70
8
 71
3
 72
8
 73
4
 74
0
 40
0
 40
0
 40
0
 40
0
 40
1
 40
1
 40
1
 40
1
 10
105.327286
 20
170.390697
 30
0.0
 10
105.051837
 20
170.404244
 30
0.0
 10
104.979589
 20
170.444884
 30
0.0
 10
104.979589
 20
170.824190
 30
0.0
  0
SPLINE
  5
23a
100
AcDbEntity
  8
Engrave_1
 62
7
100
AcDbSpline
 70
8
 71
3
 72
8
 73
4
 74
0
 40
0
 40
0
 40
0
 40
0
 40
1
 40
1
 40
1
 40
1
 10
106.937646
 20
171.217044
 30
0.0
 10
107.041504
 20
171.217044
 30
0.0
 10
107.149877
 20
171.420244
 30
0.0
 10
107.149877
 20
171.478946
 30
0.0
  0
SPLINE
  5
23b
100
AcDbEntity
  8
Engrave_1
 62
7
100
AcDbSpline
 70
8
 71
3
 72
8
 73
4
 74
0
 40
0
 40
0
 40
0
 40
0
 40
1
 40
1
 40
1
 40
1
 10
107.149877
 20
171.478946
 30
0.0
 10
107.149877
 20
171.528617
 30
0.0
 10
107.113753
 20
171.573772
 30
0.0
 10
106.987317
 20
171.573772
 30
0.0
  0
LWPOLYLINE
  5
23c
100
AcDbEntity
  8
Engrave_1
 62
7
100
AcDbPolyline
 90
3
 70
0
 10
104.166789
 20
171.980172
 30
0.0
 10
104.392566
 20
171.980172
 30
0.0
 10
104.392566
 20
170.815159
 30
0.0
  0
SPLINE
  5
23d
100
AcDbEntity
  8
Engrave_1
 62
7
100
AcDbSpline
 70
8
 71
3
 72
8
 73
4
 74
0
 40
0
 40
0
 40
0
 40
0
 40
1
 40
1
 40
1
 40
1
 10
106.084206
 20
171.573772
 30
0.0
 10
105.989380
 20
171.573772
 30
0.0
 10
105.876491
 20
171.388635
 30
0.0
 10
105.876491
 20
171.311870
 30
0.0
  0
SPLINE
  5
23e
100
AcDbEntity
  8
Engrave_1
 62
7
100
AcDbSpline
 70
8
 71
3
 72
8
 73
4
 74
0
 40
0
 40
0
 40
0
 40
0
 40
1
 40
1
 40
1
 40
1
 10
105.876491
 20
171.311870
 30
0.0
 10
105.876491
 20
171.262199
 30
0.0
 10
105.935193
 20
171.217044
 30
0.0
 10
106.043566
 20
171.217044
 30
0.0
  0
LWPOLYLINE
  5
23f
100
AcDbEntity
  8
Engrave_1
 62
7
100
AcDbPolyline
 90
2
 70
0
 10
106.987317
 20
171.573772
 30
0.0
 10
106.084206
 20
171.573772
 30
0.0
  0
LWPOLYLINE
  5
240
100
AcDbEntity
  8
Engrave_1
 62
7
100
AcDbPolyline
 90
2
 70
0
 10
106.043566
 20
171.217044
 30
0.0
 10
106.937646
 20
171.217044
 30
0.0
  0
SPLINE
  5
241
100
AcDbEntity
  8
Engrave_1
 62
7
100
AcDbSpline
 70
8
 71
3
 72
8
 73
4
 74
0
 40
0
 40
0
 40
0
 40
0
 40
1
 40
1
 40
1
 40
1
 10
107.747836
 20
169.749488
 30
0.0
 10
107.747836
 20
169.374697
 30
0.0
 10
107.698165
 20
169.365666
 30
0.0
 10
107.422716
 20
169.343088
 30
0.0
  0
SPLINE
  5
242
100
AcDbEntity
  8
Engrave_1
 62
7
100
AcDbSpline
 70
8
 71
3
 72
8
 73
4
 74
0
 40
0
 40
0
 40
0
 40
0
 40
1
 40
1
 40
1
 40
1
 10
107.422716
 20
169.343088
 30
0.0
 10
107.395622
 20
169.315995
 30
0.0
 10
107.395622
 20
169.216652
 30
0.0
 10
107.422716
 20
169.189559
 30
0.0
  0
SPLINE
  5
243
100
AcDbEntity
  8
Engrave_1
 62
7
100
AcDbSpline
 70
8
 71
3
 72
8
 73
4
 74
0
 40
0
 40
0
 40
0
 40
0
 40
1
 40
1
 40
1
 40
1
 10
107.422716
 20
169.189559
 30
0.0
 10
107.612369
 20
169.194075
 30
0.0
 10
107.797507
 20
169.198590
 30
0.0
 10
108.041347
 20
169.198590
 30
0.0
  0
SPLINE
  5
244
100
AcDbEntity
  8
Engrave_1
 62
7
100
AcDbSpline
 70
8
 71
3
 72
8
 73
4
 74
0
 40
0
 40
0
 40
0
 40
0
 40
1
 40
1
 40
1
 40
1
 10
108.041347
 20
169.198590
 30
0.0
 10
108.280671
 20
169.198590
 30
0.0
 10
108.465809
 20
169.194075
 30
0.0
 10
108.659978
 20
169.189559
 30
0.0
  0
SPLINE
  5
245
100
AcDbEntity
  8
Engrave_1
 62
7
100
AcDbSpline
 70
8
 71
3
 72
8
 73
4
 74
0
 40
0
 40
0
 40
0
 40
0
 40
1
 40
1
 40
1
 40
1
 10
108.659978
 20
169.189559
 30
0.0
 10
108.687071
 20
169.216652
 30
0.0
 10
108.687071
 20
169.315995
 30
0.0
 10
108.659978
 20
169.343088
 30
0.0
  0
SPLINE
  5
246
100
AcDbEntity
  8
Engrave_1
 62
7
100
AcDbSpline
 70
8
 71
3
 72
8
 73
4
 74
0
 40
0
 40
0
 40
0
 40
0
 40
1
 40
1
 40
1
 40
1
 10
108.659978
 20
169.343088
 30
0.0
 10
108.384529
 20
169.361150
 30
0.0
 10
108.334858
 20
169.374697
 30
0.0
 10
108.334858
 20
169.749488
 30
0.0
  0
LWPOLYLINE
  5
247
100
AcDbEntity
  8
Engrave_1
 62
7
100
AcDbPolyline
 90
2
 70
0
 10
107.747836
 20
171.641506
 30
0.0
 10
107.747836
 20
169.749488
 30
0.0
  0
SPLINE
  5
248
100
AcDbEntity
  8
Engrave_1
 62
7
100
AcDbSpline
 70
8
 71
3
 72
8
 73
4
 74
0
 40
0
 40
0
 40
0
 40
0
 40
1
 40
1
 40
1
 40
1
 10
108.334858
 20
170.277808
 30
0.0
 10
108.429685
 20
170.228137
 30
0.0
 10
108.529027
 20
170.201044
 30
0.0
 10
108.637400
 20
170.201044
 30
0.0
  0
SPLINE
  5
249
100
AcDbEntity
  8
Engrave_1
 62
7
100
AcDbSpline
 70
8
 71
3
 72
8
 73
4
 74
0
 40
0
 40
0
 40
0
 40
0
 40
1
 40
1
 40
1
 40
1
 10
108.637400
 20
170.201044
 30
0.0
 10
109.323765
 20
170.201044
 30
0.0
 10
109.770805
 20
170.648086
 30
0.0
 10
109.770805
 20
171.316386
 30
0.0
  0
SPLINE
  5
24a
100
AcDbEntity
  8
Engrave_1
 62
7
100
AcDbSpline
 70
8
 71
3
 72
8
 73
4
 74
0
 40
0
 40
0
 40
0
 40
0
 40
1
 40
1
 40
1
 40
1
 10
109.770805
 20
171.316386
 30
0.0
 10
109.770805
 20
171.564741
 30
0.0
 10
109.671462
 20
171.849221
 30
0.0
 10
109.499871
 20
172.025328
 30
0.0
  0
SPLINE
  5
24b
100
AcDbEntity
  8
Engrave_1
 62
7
100
AcDbSpline
 70
8
 71
3
 72
8
 73
4
 74
0
 40
0
 40
0
 40
0
 40
0
 40
1
 40
1
 40
1
 40
1
 10
109.499871
 20
172.025328
 30
0.0
 10
109.337311
 20
172.183372
 30
0.0
 10
109.111534
 20
172.251106
 30
0.0
 10
108.881240
 20
172.251106
 30
0.0
  0
SPLINE
  5
24c
100
AcDbEntity
  8
Engrave_1
 62
7
100
AcDbSpline
 70
8
 71
3
 72
8
 73
4
 74
0
 40
0
 40
0
 40
0
 40
0
 40
1
 40
1
 40
1
 40
1
 10
108.881240
 20
172.251106
 30
0.0
 10
108.750289
 20
172.251106
 30
0.0
 10
108.506449
 20
172.093061
 30
0.0
 10
108.348405
 20
171.948564
 30
0.0
  0
LWPOLYLINE
  5
24d
100
AcDbEntity
  8
Engrave_1
 62
7
100
AcDbPolyline
 90
2
 70
0
 10
108.334858
 20
169.749488
 30
0.0
 10
108.334858
 20
170.277808
 30
0.0
  0
SPLINE
  5
24e
100
AcDbEntity
  8
Engrave_1
 62
7
100
AcDbSpline
 70
8
 71
3
 72
8
 73
4
 74
0
 40
0
 40
0
 40
0
 40
0
 40
1
 40
1
 40
1
 40
1
 10
108.321311
 20
171.948564
 30
0.0
 10
108.312280
 20
172.074999
 30
0.0
 10
108.298734
 20
172.174341
 30
0.0
 10
108.298734
 20
172.174341
 30
0.0
  0
SPLINE
  5
24f
100
AcDbEntity
  8
Engrave_1
 62
7
100
AcDbSpline
 70
8
 71
3
 72
8
 73
4
 74
0
 40
0
 40
0
 40
0
 40
0
 40
1
 40
1
 40
1
 40
1
 10
108.298734
 20
172.174341
 30
0.0
 10
108.294218
 20
172.228528
 30
0.0
 10
108.258094
 20
172.251106
 30
0.0
 10
108.194876
 20
172.251106
 30
0.0
  0
SPLINE
  5
250
100
AcDbEntity
  8
Engrave_1
 62
7
100
AcDbSpline
 70
8
 71
3
 72
8
 73
4
 74
0
 40
0
 40
0
 40
0
 40
0
 40
1
 40
1
 40
1
 40
1
 10
108.194876
 20
172.251106
 30
0.0
 10
108.027800
 20
172.205950
 30
0.0
 10
107.756867
 20
172.142732
 30
0.0
 10
107.445294
 20
172.102092
 30
0.0
  0
SPLINE
  5
251
100
AcDbEntity
  8
Engrave_1
 62
7
100
AcDbSpline
 70
8
 71
3
 72
8
 73
4
 74
0
 40
0
 40
0
 40
0
 40
0
 40
1
 40
1
 40
1
 40
1
 10
107.445294
 20
172.102092
 30
0.0
 10
107.436262
 20
172.074999
 30
0.0
 10
107.445294
 20
171.984688
 30
0.0
 10
107.454325
 20
171.957595
 30
0.0
  0
SPLINE
  5
252
100
AcDbEntity
  8
Engrave_1
 62
7
100
AcDbSpline
 70
8
 71
3
 72
8
 73
4
 74
0
 40
0
 40
0
 40
0
 40
0
 40
1
 40
1
 40
1
 40
1
 10
107.454325
 20
171.957595
 30
0.0
 10
107.698165
 20
171.930501
 30
0.0
 10
107.747836
 20
171.898892
 30
0.0
 10
107.747836
 20
171.641506
 30
0.0
  0
LWPOLYLINE
  5
253
100
AcDbEntity
  8
Engrave_1
 62
7
100
AcDbPolyline
 90
2
 70
0
 10
108.348405
 20
171.948564
 30
0.0
 10
108.321311
 20
171.948564
 30
0.0
  0
SPLINE
  5
254
100
AcDbEntity
  8
Engrave_1
 62
7
100
AcDbSpline
 70
8
 71
3
 72
8
 73
4
 74
0
 40
0
 40
0
 40
0
 40
0
 40
1
 40
1
 40
1
 40
1
 10
108.334858
 20
171.695692
 30
0.0
 10
108.334858
 20
171.718270
 30
0.0
 10
108.330342
 20
171.745364
 30
0.0
 10
108.330342
 20
171.767941
 30
0.0
  0
SPLINE
  5
255
100
AcDbEntity
  8
Engrave_1
 62
7
100
AcDbSpline
 70
8
 71
3
 72
8
 73
4
 74
0
 40
0
 40
0
 40
0
 40
0
 40
1
 40
1
 40
1
 40
1
 10
108.330342
 20
171.767941
 30
0.0
 10
108.461294
 20
171.885346
 30
0.0
 10
108.628369
 20
171.948564
 30
0.0
 10
108.736742
 20
171.948564
 30
0.0
  0
SPLINE
  5
256
100
AcDbEntity
  8
Engrave_1
 62
7
100
AcDbSpline
 70
8
 71
3
 72
8
 73
4
 74
0
 40
0
 40
0
 40
0
 40
0
 40
1
 40
1
 40
1
 40
1
 10
108.736742
 20
171.948564
 30
0.0
 10
108.921880
 20
171.948564
 30
0.0
 10
109.138627
 20
171.722786
 30
0.0
 10
109.138627
 20
171.194466
 30
0.0
  0
SPLINE
  5
257
100
AcDbEntity
  8
Engrave_1
 62
7
100
AcDbSpline
 70
8
 71
3
 72
8
 73
4
 74
0
 40
0
 40
0
 40
0
 40
0
 40
1
 40
1
 40
1
 40
1
 10
109.138627
 20
171.194466
 30
0.0
 10
109.138627
 20
170.815159
 30
0.0
 10
109.003160
 20
170.390697
 30
0.0
 10
108.610307
 20
170.390697
 30
0.0
  0
SPLINE
  5
258
100
AcDbEntity
  8
Engrave_1
 62
7
100
AcDbSpline
 70
8
 71
3
 72
8
 73
4
 74
0
 40
0
 40
0
 40
0
 40
0
 40
1
 40
1
 40
1
 40
1
 10
108.610307
 20
170.390697
 30
0.0
 10
108.560636
 20
170.390697
 30
0.0
 10
108.447747
 20
170.417790
 30
0.0
 10
108.334858
 20
170.539710
 30
0.0
  0
SPLINE
  5
259
100
AcDbEntity
  8
Engrave_1
 62
7
100
AcDbSpline
 70
8
 71
3
 72
8
 73
4
 74
0
 40
0
 40
0
 40
0
 40
0
 40
1
 40
1
 40
1
 40
1
 10
110.967780
 20
171.456368
 30
0.0
 10
110.967780
 20
171.618928
 30
0.0
 10
111.012935
 20
171.695692
 30
0.0
 10
111.076153
 20
171.754395
 30
0.0
  0
SPLINE
  5
25a
100
AcDbEntity
  8
Engrave_1
 62
7
100
AcDbSpline
 70
8
 71
3
 72
8
 73
4
 74
0
 40
0
 40
0
 40
0
 40
0
 40
1
 40
1
 40
1
 40
1
 10
111.076153
 20
171.754395
 30
0.0
 10
111.116793
 20
171.790519
 30
0.0
 10
111.152917
 20
171.831159
 30
0.0
 10
111.216135
 20
171.831159
 30
0.0
  0
SPLINE
  5
25b
100
AcDbEntity
  8
Engrave_1
 62
7
100
AcDbSpline
 70
8
 71
3
 72
8
 73
4
 74
0
 40
0
 40
0
 40
0
 40
0
 40
1
 40
1
 40
1
 40
1
 10
111.216135
 20
171.831159
 30
0.0
 10
111.261291
 20
171.831159
 30
0.0
 10
111.292900
 20
171.786004
 30
0.0
 10
111.338055
 20
171.740848
 30
0.0
  0
SPLINE
  5
25c
100
AcDbEntity
  8
Engrave_1
 62
7
100
AcDbSpline
 70
8
 71
3
 72
8
 73
4
 74
0
 40
0
 40
0
 40
0
 40
0
 40
1
 40
1
 40
1
 40
1
 10
111.338055
 20
171.740848
 30
0.0
 10
111.374180
 20
171.704724
 30
0.0
 10
111.428366
 20
171.668599
 30
0.0
 10
111.554802
 20
171.668599
 30
0.0
  0
SPLINE
  5
25d
100
AcDbEntity
  8
Engrave_1
 62
7
100
AcDbSpline
 70
8
 71
3
 72
8
 73
4
 74
0
 40
0
 40
0
 40
0
 40
0
 40
1
 40
1
 40
1
 40
1
 10
111.554802
 20
171.668599
 30
0.0
 10
111.685753
 20
171.668599
 30
0.0
 10
111.816704
 20
171.808581
 30
0.0
 10
111.816704
 20
171.998235
 30
0.0
  0
SPLINE
  5
25e
100
AcDbEntity
  8
Engrave_1
 62
7
100
AcDbSpline
 70
8
 71
3
 72
8
 73
4
 74
0
 40
0
 40
0
 40
0
 40
0
 40
1
 40
1
 40
1
 40
1
 10
111.816704
 20
171.998235
 30
0.0
 10
111.816704
 20
172.115639
 30
0.0
 10
111.681237
 20
172.251106
 30
0.0
 10
111.518677
 20
172.251106
 30
0.0
  0
SPLINE
  5
25f
100
AcDbEntity
  8
Engrave_1
 62
7
100
AcDbSpline
 70
8
 71
3
 72
8
 73
4
 74
0
 40
0
 40
0
 40
0
 40
0
 40
1
 40
1
 40
1
 40
1
 10
111.518677
 20
172.251106
 30
0.0
 10
111.360633
 20
172.251106
 30
0.0
 10
111.189042
 20
172.115639
 30
0.0
 10
110.981326
 20
171.817612
 30
0.0
  0
LWPOLYLINE
  5
260
100
AcDbEntity
  8
Engrave_1
 62
7
100
AcDbPolyline
 90
2
 70
0
 10
108.334858
 20
170.539710
 30
0.0
 10
108.334858
 20
171.695692
 30
0.0
  0
SPLINE
  5
261
100
AcDbEntity
  8
Engrave_1
 62
7
100
AcDbSpline
 70
8
 71
3
 72
8
 73
4
 74
0
 40
0
 40
0
 40
0
 40
0
 40
1
 40
1
 40
1
 40
1
 10
110.963264
 20
171.817612
 30
0.0
 10
110.954233
 20
171.953079
 30
0.0
 10
110.931655
 20
172.174341
 30
0.0
 10
110.931655
 20
172.174341
 30
0.0
  0
SPLINE
  5
262
100
AcDbEntity
  8
Engrave_1
 62
7
100
AcDbSpline
 70
8
 71
3
 72
8
 73
4
 74
0
 40
0
 40
0
 40
0
 40
0
 40
1
 40
1
 40
1
 40
1
 10
110.931655
 20
172.174341
 30
0.0
 10
110.927140
 20
172.210466
 30
0.0
 10
110.891015
 20
172.251106
 30
0.0
 10
110.827797
 20
172.251106
 30
0.0
  0
SPLINE
  5
263
100
AcDbEntity
  8
Engrave_1
 62
7
100
AcDbSpline
 70
8
 71
3
 72
8
 73
4
 74
0
 40
0
 40
0
 40
0
 40
0
 40
1
 40
1
 40
1
 40
1
 10
110.827797
 20
172.251106
 30
0.0
 10
110.611051
 20
172.196919
 30
0.0
 10
110.376242
 20
172.129186
 30
0.0
 10
110.078215
 20
172.102092
 30
0.0
  0
SPLINE
  5
264
100
AcDbEntity
  8
Engrave_1
 62
7
100
AcDbSpline
 70
8
 71
3
 72
8
 73
4
 74
0
 40
0
 40
0
 40
0
 40
0
 40
1
 40
1
 40
1
 40
1
 10
110.078215
 20
172.102092
 30
0.0
 10
110.069184
 20
172.074999
 30
0.0
 10
110.078215
 20
171.989204
 30
0.0
 10
110.087246
 20
171.962110
 30
0.0
  0
SPLINE
  5
265
100
AcDbEntity
  8
Engrave_1
 62
7
100
AcDbSpline
 70
8
 71
3
 72
8
 73
4
 74
0
 40
0
 40
0
 40
0
 40
0
 40
1
 40
1
 40
1
 40
1
 10
110.087246
 20
171.962110
 30
0.0
 10
110.331086
 20
171.935017
 30
0.0
 10
110.380757
 20
171.898892
 30
0.0
 10
110.380757
 20
171.641506
 30
0.0
  0
LWPOLYLINE
  5
266
100
AcDbEntity
  8
Engrave_1
 62
7
100
AcDbPolyline
 90
2
 70
0
 10
110.981326
 20
171.817612
 30
0.0
 10
110.963264
 20
171.817612
 30
0.0
  0
SPLINE
  5
267
100
AcDbEntity
  8
Engrave_1
 62
7
100
AcDbSpline
 70
8
 71
3
 72
8
 73
4
 74
0
 40
0
 40
0
 40
0
 40
0
 40
1
 40
1
 40
1
 40
1
 10
110.380757
 20
170.797097
 30
0.0
 10
110.380757
 20
170.422306
 30
0.0
 10
110.331086
 20
170.413275
 30
0.0
 10
110.055637
 20
170.390697
 30
0.0
  0
SPLINE
  5
268
100
AcDbEntity
  8
Engrave_1
 62
7
100
AcDbSpline
 70
8
 71
3
 72
8
 73
4
 74
0
 40
0
 40
0
 40
0
 40
0
 40
1
 40
1
 40
1
 40
1
 10
110.055637
 20
170.390697
 30
0.0
 10
110.028544
 20
170.363604
 30
0.0
 10
110.028544
 20
170.264261
 30
0.0
 10
110.055637
 20
170.237168
 30
0.0
  0
SPLINE
  5
269
100
AcDbEntity
  8
Engrave_1
 62
7
100
AcDbSpline
 70
8
 71
3
 72
8
 73
4
 74
0
 40
0
 40
0
 40
0
 40
0
 40
1
 40
1
 40
1
 40
1
 10
110.055637
 20
170.237168
 30
0.0
 10
110.245291
 20
170.241684
 30
0.0
 10
110.430429
 20
170.246199
 30
0.0
 10
110.674269
 20
170.246199
 30
0.0
  0
SPLINE
  5
26a
100
AcDbEntity
  8
Engrave_1
 62
7
100
AcDbSpline
 70
8
 71
3
 72
8
 73
4
 74
0
 40
0
 40
0
 40
0
 40
0
 40
1
 40
1
 40
1
 40
1
 10
110.674269
 20
170.246199
 30
0.0
 10
110.913593
 20
170.246199
 30
0.0
 10
111.098731
 20
170.241684
 30
0.0
 10
111.292900
 20
170.237168
 30
0.0
  0
SPLINE
  5
26b
100
AcDbEntity
  8
Engrave_1
 62
7
100
AcDbSpline
 70
8
 71
3
 72
8
 73
4
 74
0
 40
0
 40
0
 40
0
 40
0
 40
1
 40
1
 40
1
 40
1
 10
111.292900
 20
170.237168
 30
0.0
 10
111.319993
 20
170.264261
 30
0.0
 10
111.319993
 20
170.363604
 30
0.0
 10
111.292900
 20
170.390697
 30
0.0
  0
SPLINE
  5
26c
100
AcDbEntity
  8
Engrave_1
 62
7
100
AcDbSpline
 70
8
 71
3
 72
8
 73
4
 74
0
 40
0
 40
0
 40
0
 40
0
 40
1
 40
1
 40
1
 40
1
 10
111.292900
 20
170.390697
 30
0.0
 10
111.017451
 20
170.408759
 30
0.0
 10
110.967780
 20
170.422306
 30
0.0
 10
110.967780
 20
170.797097
 30
0.0
  0
LWPOLYLINE
  5
26d
100
AcDbEntity
  8
Engrave_1
 62
7
100
AcDbPolyline
 90
2
 70
0
 10
110.380757
 20
171.641506
 30
0.0
 10
110.380757
 20
170.797097
 30
0.0
  0
SPLINE
  5
26e
100
AcDbEntity
  8
Engrave_1
 62
7
100
AcDbSpline
 70
8
 71
3
 72
8
 73
4
 74
0
 40
0
 40
0
 40
0
 40
0
 40
1
 40
1
 40
1
 40
1
 10
113.017277
 20
172.061452
 30
0.0
 10
113.324335
 20
172.061452
 30
0.0
 10
113.532051
 20
171.695692
 30
0.0
 10
113.532051
 20
171.077061
 30
0.0
  0
SPLINE
  5
26f
100
AcDbEntity
  8
Engrave_1
 62
7
100
AcDbSpline
 70
8
 71
3
 72
8
 73
4
 74
0
 40
0
 40
0
 40
0
 40
0
 40
1
 40
1
 40
1
 40
1
 10
113.532051
 20
171.077061
 30
0.0
 10
113.532051
 20
170.530682
 30
0.0
 10
113.319820
 20
170.390697
 30
0.0
 10
113.157260
 20
170.390697
 30
0.0
  0
SPLINE
  5
270
100
AcDbEntity
  8
Engrave_1
 62
7
100
AcDbSpline
 70
8
 71
3
 72
8
 73
4
 74
0
 40
0
 40
0
 40
0
 40
0
 40
1
 40
1
 40
1
 40
1
 10
113.157260
 20
170.390697
 30
0.0
 10
112.786984
 20
170.390697
 30
0.0
 10
112.642486
 20
170.946110
 30
0.0
 10
112.642486
 20
171.280261
 30
0.0
  0
SPLINE
  5
271
100
AcDbEntity
  8
Engrave_1
 62
7
100
AcDbSpline
 70
8
 71
3
 72
8
 73
4
 74
0
 40
0
 40
0
 40
0
 40
0
 40
1
 40
1
 40
1
 40
1
 10
112.642486
 20
171.280261
 30
0.0
 10
112.642486
 20
171.695692
 30
0.0
 10
112.714735
 20
172.061452
 30
0.0
 10
113.017277
 20
172.061452
 30
0.0
  0
SPLINE
  5
272
100
AcDbEntity
  8
Engrave_1
 62
7
100
AcDbSpline
 70
8
 71
3
 72
8
 73
4
 74
0
 40
0
 40
0
 40
0
 40
0
 40
1
 40
1
 40
1
 40
1
 10
112.010309
 20
171.180919
 30
0.0
 10
112.010309
 20
170.589384
 30
0.0
 10
112.475411
 20
170.201044
 30
0.0
 10
113.085011
 20
170.201044
 30
0.0
  0
SPLINE
  5
273
100
AcDbEntity
  8
Engrave_1
 62
7
100
AcDbSpline
 70
8
 71
3
 72
8
 73
4
 74
0
 40
0
 40
0
 40
0
 40
0
 40
1
 40
1
 40
1
 40
1
 10
113.085011
 20
170.201044
 30
0.0
 10
113.401100
 20
170.201044
 30
0.0
 10
113.667517
 20
170.291355
 30
0.0
 10
113.857171
 20
170.458430
 30
0.0
  0
SPLINE
  5
274
100
AcDbEntity
  8
Engrave_1
 62
7
100
AcDbSpline
 70
8
 71
3
 72
8
 73
4
 74
0
 40
0
 40
0
 40
0
 40
0
 40
1
 40
1
 40
1
 40
1
 10
113.857171
 20
170.458430
 30
0.0
 10
114.082949
 20
170.661630
 30
0.0
 10
114.164229
 20
170.968688
 30
0.0
 10
114.164229
 20
171.221559
 30
0.0
  0
SPLINE
  5
275
100
AcDbEntity
  8
Engrave_1
 62
7
100
AcDbSpline
 70
8
 71
3
 72
8
 73
4
 74
0
 40
0
 40
0
 40
0
 40
0
 40
1
 40
1
 40
1
 40
1
 10
114.164229
 20
171.221559
 30
0.0
 10
114.164229
 20
171.808581
 30
0.0
 10
113.757829
 20
172.251106
 30
0.0
 10
113.089526
 20
172.251106
 30
0.0
  0
SPLINE
  5
276
100
AcDbEntity
  8
Engrave_1
 62
7
100
AcDbSpline
 70
8
 71
3
 72
8
 73
4
 74
0
 40
0
 40
0
 40
0
 40
0
 40
1
 40
1
 40
1
 40
1
 10
113.089526
 20
172.251106
 30
0.0
 10
112.714735
 20
172.251106
 30
0.0
 10
112.434771
 20
172.120155
 30
0.0
 10
112.254149
 20
171.916955
 30
0.0
  0
SPLINE
  5
277
100
AcDbEntity
  8
Engrave_1
 62
7
100
AcDbSpline
 70
8
 71
3
 72
8
 73
4
 74
0
 40
0
 40
0
 40
0
 40
0
 40
1
 40
1
 40
1
 40
1
 10
112.254149
 20
171.916955
 30
0.0
 10
112.082557
 20
171.718270
 30
0.0
 10
112.010309
 20
171.447337
 30
0.0
 10
112.010309
 20
171.180919
 30
0.0
  0
SPLINE
  5
278
100
AcDbEntity
  8
Engrave_1
 62
7
100
AcDbSpline
 70
8
 71
3
 72
8
 73
4
 74
0
 40
0
 40
0
 40
0
 40
0
 40
1
 40
1
 40
1
 40
1
 10
116.271159
 20
170.639052
 30
0.0
 10
116.271159
 20
170.693239
 30
0.0
 10
116.262127
 20
170.779035
 30
0.0
 10
116.212456
 20
170.779035
 30
0.0
  0
SPLINE
  5
279
100
AcDbEntity
  8
Engrave_1
 62
7
100
AcDbSpline
 70
8
 71
3
 72
8
 73
4
 74
0
 40
0
 40
0
 40
0
 40
0
 40
1
 40
1
 40
1
 40
1
 10
116.212456
 20
170.779035
 30
0.0
 10
116.031834
 20
170.611959
 30
0.0
 10
115.878305
 20
170.521648
 30
0.0
 10
115.747354
 20
170.521648
 30
0.0
  0
SPLINE
  5
27a
100
AcDbEntity
  8
Engrave_1
 62
7
100
AcDbSpline
 70
8
 71
3
 72
8
 73
4
 74
0
 40
0
 40
0
 40
0
 40
0
 40
1
 40
1
 40
1
 40
1
 10
115.747354
 20
170.521648
 30
0.0
 10
115.408687
 20
170.521648
 30
0.0
 10
115.119692
 20
170.824190
 30
0.0
 10
115.119692
 20
171.311870
 30
0.0
  0
SPLINE
  5
27b
100
AcDbEntity
  8
Engrave_1
 62
7
100
AcDbSpline
 70
8
 71
3
 72
8
 73
4
 74
0
 40
0
 40
0
 40
0
 40
0
 40
1
 40
1
 40
1
 40
1
 10
115.119692
 20
171.311870
 30
0.0
 10
115.119692
 20
171.813097
 30
0.0
 10
115.255159
 20
172.061452
 30
0.0
 10
115.494483
 20
172.061452
 30
0.0
  0
SPLINE
  5
27c
100
AcDbEntity
  8
Engrave_1
 62
7
100
AcDbSpline
 70
8
 71
3
 72
8
 73
4
 74
0
 40
0
 40
0
 40
0
 40
0
 40
1
 40
1
 40
1
 40
1
 10
115.494483
 20
172.061452
 30
0.0
 10
115.661559
 20
172.061452
 30
0.0
 10
115.729292
 20
171.885346
 30
0.0
 10
115.742839
 20
171.740848
 30
0.0
  0
SPLINE
  5
27d
100
AcDbEntity
  8
Engrave_1
 62
7
100
AcDbSpline
 70
8
 71
3
 72
8
 73
4
 74
0
 40
0
 40
0
 40
0
 40
0
 40
1
 40
1
 40
1
 40
1
 10
115.742839
 20
171.740848
 30
0.0
 10
115.756385
 20
171.618928
 30
0.0
 10
115.878305
 20
171.528617
 30
0.0
 10
116.022803
 20
171.528617
 30
0.0
  0
SPLINE
  5
27e
100
AcDbEntity
  8
Engrave_1
 62
7
100
AcDbSpline
 70
8
 71
3
 72
8
 73
4
 74
0
 40
0
 40
0
 40
0
 40
0
 40
1
 40
1
 40
1
 40
1
 10
116.022803
 20
171.528617
 30
0.0
 10
116.167301
 20
171.528617
 30
0.0
 10
116.271159
 20
171.641506
 30
0.0
 10
116.271159
 20
171.781488
 30
0.0
  0
SPLINE
  5
27f
100
AcDbEntity
  8
Engrave_1
 62
7
100
AcDbSpline
 70
8
 71
3
 72
8
 73
4
 74
0
 40
0
 40
0
 40
0
 40
0
 40
1
 40
1
 40
1
 40
1
 10
116.271159
 20
171.781488
 30
0.0
 10
116.271159
 20
171.984688
 30
0.0
 10
116.027319
 20
172.251106
 30
0.0
 10
115.535123
 20
172.251106
 30
0.0
  0
SPLINE
  5
280
100
AcDbEntity
  8
Engrave_1
 62
7
100
AcDbSpline
 70
8
 71
3
 72
8
 73
4
 74
0
 40
0
 40
0
 40
0
 40
0
 40
1
 40
1
 40
1
 40
1
 10
115.535123
 20
172.251106
 30
0.0
 10
115.002287
 20
172.251106
 30
0.0
 10
114.532670
 20
171.822128
 30
0.0
 10
114.532670
 20
171.153826
 30
0.0
  0
SPLINE
  5
281
100
AcDbEntity
  8
Engrave_1
 62
7
100
AcDbSpline
 70
8
 71
3
 72
8
 73
4
 74
0
 40
0
 40
0
 40
0
 40
0
 40
1
 40
1
 40
1
 40
1
 10
114.532670
 20
171.153826
 30
0.0
 10
114.532670
 20
170.860315
 30
0.0
 10
114.636527
 20
170.598412
 30
0.0
 10
114.812634
 20
170.435852
 30
0.0
  0
SPLINE
  5
282
100
AcDbEntity
  8
Engrave_1
 62
7
100
AcDbSpline
 70
8
 71
3
 72
8
 73
4
 74
0
 40
0
 40
0
 40
0
 40
0
 40
1
 40
1
 40
1
 40
1
 10
114.812634
 20
170.435852
 30
0.0
 10
114.988741
 20
170.268777
 30
0.0
 10
115.191941
 20
170.201044
 30
0.0
 10
115.517061
 20
170.201044
 30
0.0
  0
SPLINE
  5
283
100
AcDbEntity
  8
Engrave_1
 62
7
100
AcDbSpline
 70
8
 71
3
 72
8
 73
4
 74
0
 40
0
 40
0
 40
0
 40
0
 40
1
 40
1
 40
1
 40
1
 10
115.517061
 20
170.201044
 30
0.0
 10
115.787994
 20
170.201044
 30
0.0
 10
116.099567
 20
170.390697
 30
0.0
 10
116.271159
 20
170.639052
 30
0.0
  0
SPLINE
  5
284
100
AcDbEntity
  8
Engrave_1
 62
7
100
AcDbSpline
 70
8
 71
3
 72
8
 73
4
 74
0
 40
0
 40
0
 40
0
 40
0
 40
1
 40
1
 40
1
 40
1
 10
116.641787
 20
170.508101
 30
0.0
 10
116.641787
 20
170.336510
 30
0.0
 10
116.786285
 20
170.201044
 30
0.0
 10
116.966907
 20
170.201044
 30
0.0
  0
SPLINE
  5
285
100
AcDbEntity
  8
Engrave_1
 62
7
100
AcDbSpline
 70
8
 71
3
 72
8
 73
4
 74
0
 40
0
 40
0
 40
0
 40
0
 40
1
 40
1
 40
1
 40
1
 10
116.966907
 20
170.201044
 30
0.0
 10
117.147529
 20
170.201044
 30
0.0
 10
117.301058
 20
170.345541
 30
0.0
 10
117.301058
 20
170.517132
 30
0.0
  0
SPLINE
  5
286
100
AcDbEntity
  8
Engrave_1
 62
7
100
AcDbSpline
 70
8
 71
3
 72
8
 73
4
 74
0
 40
0
 40
0
 40
0
 40
0
 40
1
 40
1
 40
1
 40
1
 10
117.301058
 20
170.517132
 30
0.0
 10
117.301058
 20
170.693239
 30
0.0
 10
117.156560
 20
170.828706
 30
0.0
 10
116.975938
 20
170.828706
 30
0.0
  0
SPLINE
  5
287
100
AcDbEntity
  8
Engrave_1
 62
7
100
AcDbSpline
 70
8
 71
3
 72
8
 73
4
 74
0
 40
0
 40
0
 40
0
 40
0
 40
1
 40
1
 40
1
 40
1
 10
116.975938
 20
170.828706
 30
0.0
 10
116.795316
 20
170.828706
 30
0.0
 10
116.641787
 20
170.684208
 30
0.0
 10
116.641787
 20
170.508101
 30
0.0
  0
SPLINE
  5
288
100
AcDbEntity
  8
Engrave_1
 62
7
100
AcDbSpline
 70
8
 71
3
 72
8
 73
4
 74
0
 40
0
 40
0
 40
0
 40
0
 40
1
 40
1
 40
1
 40
1
 10
119.428520
 20
170.639052
 30
0.0
 10
119.428520
 20
170.693239
 30
0.0
 10
119.419489
 20
170.779035
 30
0.0
 10
119.369817
 20
170.779035
 30
0.0
  0
SPLINE
  5
289
100
AcDbEntity
  8
Engrave_1
 62
7
100
AcDbSpline
 70
8
 71
3
 72
8
 73
4
 74
0
 40
0
 40
0
 40
0
 40
0
 40
1
 40
1
 40
1
 40
1
 10
119.369817
 20
170.779035
 30
0.0
 10
119.189195
 20
170.611959
 30
0.0
 10
119.035666
 20
170.521648
 30
0.0
 10
118.904715
 20
170.521648
 30
0.0
  0
SPLINE
  5
28a
100
AcDbEntity
  8
Engrave_1
 62
7
100
AcDbSpline
 70
8
 71
3
 72
8
 73
4
 74
0
 40
0
 40
0
 40
0
 40
0
 40
1
 40
1
 40
1
 40
1
 10
118.904715
 20
170.521648
 30
0.0
 10
118.566049
 20
170.521648
 30
0.0
 10
118.277053
 20
170.824190
 30
0.0
 10
118.277053
 20
171.311870
 30
0.0
  0
SPLINE
  5
28b
100
AcDbEntity
  8
Engrave_1
 62
7
100
AcDbSpline
 70
8
 71
3
 72
8
 73
4
 74
0
 40
0
 40
0
 40
0
 40
0
 40
1
 40
1
 40
1
 40
1
 10
118.277053
 20
171.311870
 30
0.0
 10
118.277053
 20
171.813097
 30
0.0
 10
118.412520
 20
172.061452
 30
0.0
 10
118.651844
 20
172.061452
 30
0.0
  0
SPLINE
  5
28c
100
AcDbEntity
  8
Engrave_1
 62
7
100
AcDbSpline
 70
8
 71
3
 72
8
 73
4
 74
0
 40
0
 40
0
 40
0
 40
0
 40
1
 40
1
 40
1
 40
1
 10
118.651844
 20
172.061452
 30
0.0
 10
118.818920
 20
172.061452
 30
0.0
 10
118.886653
 20
171.885346
 30
0.0
 10
118.900200
 20
171.740848
 30
0.0
  0
SPLINE
  5
28d
100
AcDbEntity
  8
Engrave_1
 62
7
100
AcDbSpline
 70
8
 71
3
 72
8
 73
4
 74
0
 40
0
 40
0
 40
0
 40
0
 40
1
 40
1
 40
1
 40
1
 10
118.900200
 20
171.740848
 30
0.0
 10
118.913746
 20
171.618928
 30
0.0
 10
119.035666
 20
171.528617
 30
0.0
 10
119.180164
 20
171.528617
 30
0.0
  0
SPLINE
  5
28e
100
AcDbEntity
  8
Engrave_1
 62
7
100
AcDbSpline
 70
8
 71
3
 72
8
 73
4
 74
0
 40
0
 40
0
 40
0
 40
0
 40
1
 40
1
 40
1
 40
1
 10
119.180164
 20
171.528617
 30
0.0
 10
119.324662
 20
171.528617
 30
0.0
 10
119.428520
 20
171.641506
 30
0.0
 10
119.428520
 20
171.781488
 30
0.0
  0
SPLINE
  5
28f
100
AcDbEntity
  8
Engrave_1
 62
7
100
AcDbSpline
 70
8
 71
3
 72
8
 73
4
 74
0
 40
0
 40
0
 40
0
 40
0
 40
1
 40
1
 40
1
 40
1
 10
119.428520
 20
171.781488
 30
0.0
 10
119.428520
 20
171.984688
 30
0.0
 10
119.184680
 20
172.251106
 30
0.0
 10
118.692484
 20
172.251106
 30
0.0
  0
SPLINE
  5
290
100
AcDbEntity
  8
Engrave_1
 62
7
100
AcDbSpline
 70
8
 71
3
 72
8
 73
4
 74
0
 40
0
 40
0
 40
0
 40
0
 40
1
 40
1
 40
1
 40
1
 10
118.692484
 20
172.251106
 30
0.0
 10
118.159649
 20
172.251106
 30
0.0
 10
117.690031
 20
171.822128
 30
0.0
 10
117.690031
 20
171.153826
 30
0.0
  0
SPLINE
  5
291
100
AcDbEntity
  8
Engrave_1
 62
7
100
AcDbSpline
 70
8
 71
3
 72
8
 73
4
 74
0
 40
0
 40
0
 40
0
 40
0
 40
1
 40
1
 40
1
 40
1
 10
117.690031
 20
171.153826
 30
0.0
 10
117.690031
 20
170.860315
 30
0.0
 10
117.793889
 20
170.598412
 30
0.0
 10
117.969995
 20
170.435852
 30
0.0
  0
SPLINE
  5
292
100
AcDbEntity
  8
Engrave_1
 62
7
100
AcDbSpline
 70
8
 71
3
 72
8
 73
4
 74
0
 40
0
 40
0
 40
0
 40
0
 40
1
 40
1
 40
1
 40
1
 10
117.969995
 20
170.435852
 30
0.0
 10
118.146102
 20
170.268777
 30
0.0
 10
118.349302
 20
170.201044
 30
0.0
 10
118.674422
 20
170.201044
 30
0.0
  0
SPLINE
  5
293
100
AcDbEntity
  8
Engrave_1
 62
7
100
AcDbSpline
 70
8
 71
3
 72
8
 73
4
 74
0
 40
0
 40
0
 40
0
 40
0
 40
1
 40
1
 40
1
 40
1
 10
118.674422
 20
170.201044
 30
0.0
 10
118.945355
 20
170.201044
 30
0.0
 10
119.256929
 20
170.390697
 30
0.0
 10
119.428520
 20
170.639052
 30
0.0
  0
SPLINE
  5
294
100
AcDbEntity
  8
Engrave_1
 62
7
100
AcDbSpline
 70
8
 71
3
 72
8
 73
4
 74
0
 40
0
 40
0
 40
0
 40
0
 40
1
 40
1
 40
1
 40
1
 10
120.751930
 20
172.061452
 30
0.0
 10
121.058988
 20
172.061452
 30
0.0
 10
121.266704
 20
171.695692
 30
0.0
 10
121.266704
 20
171.077061
 30
0.0
  0
SPLINE
  5
295
100
AcDbEntity
  8
Engrave_1
 62
7
100
AcDbSpline
 70
8
 71
3
 72
8
 73
4
 74
0
 40
0
 40
0
 40
0
 40
0
 40
1
 40
1
 40
1
 40
1
 10
121.266704
 20
171.077061
 30
0.0
 10
121.266704
 20
170.530682
 30
0.0
 10
121.054472
 20
170.390697
 30
0.0
 10
120.891912
 20
170.390697
 30
0.0
  0
SPLINE
  5
296
100
AcDbEntity
  8
Engrave_1
 62
7
100
AcDbSpline
 70
8
 71
3
 72
8
 73
4
 74
0
 40
0
 40
0
 40
0
 40
0
 40
1
 40
1
 40
1
 40
1
 10
120.891912
 20
170.390697
 30
0.0
 10
120.521637
 20
170.390697
 30
0.0
 10
120.377139
 20
170.946110
 30
0.0
 10
120.377139
 20
171.280261
 30
0.0
  0
SPLINE
  5
297
100
AcDbEntity
  8
Engrave_1
 62
7
100
AcDbSpline
 70
8
 71
3
 72
8
 73
4
 74
0
 40
0
 40
0
 40
0
 40
0
 40
1
 40
1
 40
1
 40
1
 10
120.377139
 20
171.280261
 30
0.0
 10
120.377139
 20
171.695692
 30
0.0
 10
120.449388
 20
172.061452
 30
0.0
 10
120.751930
 20
172.061452
 30
0.0
  0
SPLINE
  5
298
100
AcDbEntity
  8
Engrave_1
 62
7
100
AcDbSpline
 70
8
 71
3
 72
8
 73
4
 74
0
 40
0
 40
0
 40
0
 40
0
 40
1
 40
1
 40
1
 40
1
 10
119.744961
 20
171.180919
 30
0.0
 10
119.744961
 20
170.589384
 30
0.0
 10
120.210064
 20
170.201044
 30
0.0
 10
120.819664
 20
170.201044
 30
0.0
  0
SPLINE
  5
299
100
AcDbEntity
  8
Engrave_1
 62
7
100
AcDbSpline
 70
8
 71
3
 72
8
 73
4
 74
0
 40
0
 40
0
 40
0
 40
0
 40
1
 40
1
 40
1
 40
1
 10
120.819664
 20
170.201044
 30
0.0
 10
121.135752
 20
170.201044
 30
0.0
 10
121.402170
 20
170.291355
 30
0.0
 10
121.591824
 20
170.458430
 30
0.0
  0
SPLINE
  5
29a
100
AcDbEntity
  8
Engrave_1
 62
7
100
AcDbSpline
 70
8
 71
3
 72
8
 73
4
 74
0
 40
0
 40
0
 40
0
 40
0
 40
1
 40
1
 40
1
 40
1
 10
121.591824
 20
170.458430
 30
0.0
 10
121.817601
 20
170.661630
 30
0.0
 10
121.898881
 20
170.968688
 30
0.0
 10
121.898881
 20
171.221559
 30
0.0
  0
SPLINE
  5
29b
100
AcDbEntity
  8
Engrave_1
 62
7
100
AcDbSpline
 70
8
 71
3
 72
8
 73
4
 74
0
 40
0
 40
0
 40
0
 40
0
 40
1
 40
1
 40
1
 40
1
 10
121.898881
 20
171.221559
 30
0.0
 10
121.898881
 20
171.808581
 30
0.0
 10
121.492481
 20
172.251106
 30
0.0
 10
120.824179
 20
172.251106
 30
0.0
  0
SPLINE
  5
29c
100
AcDbEntity
  8
Engrave_1
 62
7
100
AcDbSpline
 70
8
 71
3
 72
8
 73
4
 74
0
 40
0
 40
0
 40
0
 40
0
 40
1
 40
1
 40
1
 40
1
 10
120.824179
 20
172.251106
 30
0.0
 10
120.449388
 20
172.251106
 30
0.0
 10
120.169424
 20
172.120155
 30
0.0
 10
119.988801
 20
171.916955
 30
0.0
  0
SPLINE
  5
29d
100
AcDbEntity
  8
Engrave_1
 62
7
100
AcDbSpline
 70
8
 71
3
 72
8
 73
4
 74
0
 40
0
 40
0
 40
0
 40
0
 40
1
 40
1
 40
1
 40
1
 10
119.988801
 20
171.916955
 30
0.0
 10
119.817210
 20
171.718270
 30
0.0
 10
119.744961
 20
171.447337
 30
0.0
 10
119.744961
 20
171.180919
 30
0.0
  0
SPLINE
  5
29e
100
AcDbEntity
  8
Engrave_1
 62
7
100
AcDbSpline
 70
8
 71
3
 72
8
 73
4
 74
0
 40
0
 40
0
 40
0
 40
0
 40
1
 40
1
 40
1
 40
1
 10
122.242134
 20
170.508101
 30
0.0
 10
122.242134
 20
170.336510
 30
0.0
 10
122.386632
 20
170.201044
 30
0.0
 10
122.567254
 20
170.201044
 30
0.0
  0
SPLINE
  5
29f
100
AcDbEntity
  8
Engrave_1
 62
7
100
AcDbSpline
 70
8
 71
3
 72
8
 73
4
 74
0
 40
0
 40
0
 40
0
 40
0
 40
1
 40
1
 40
1
 40
1
 10
122.567254
 20
170.201044
 30
0.0
 10
122.747876
 20
170.201044
 30
0.0
 10
122.901405
 20
170.345541
 30
0.0
 10
122.901405
 20
170.517132
 30
0.0
  0
SPLINE
  5
2a0
100
AcDbEntity
  8
Engrave_1
 62
7
100
AcDbSpline
 70
8
 71
3
 72
8
 73
4
 74
0
 40
0
 40
0
 40
0
 40
0
 40
1
 40
1
 40
1
 40
1
 10
122.901405
 20
170.517132
 30
0.0
 10
122.901405
 20
170.693239
 30
0.0
 10
122.756907
 20
170.828706
 30
0.0
 10
122.576285
 20
170.828706
 30
0.0
  0
SPLINE
  5
2a1
100
AcDbEntity
  8
Engrave_1
 62
7
100
AcDbSpline
 70
8
 71
3
 72
8
 73
4
 74
0
 40
0
 40
0
 40
0
 40
0
 40
1
 40
1
 40
1
 40
1
 10
122.576285
 20
170.828706
 30
0.0
 10
122.395663
 20
170.828706
 30
0.0
 10
122.242134
 20
170.684208
 30
0.0
 10
122.242134
 20
170.508101
 30
0.0
  0
LWPOLYLINE
  5
2a2
100
AcDbEntity
  8
Engrave_1
 62
7
100
AcDbPolyline
 90
2
 70
0
 10
110.967780
 20
170.797097
 30
0.0
 10
110.967780
 20
171.456368
 30
0.0
  0
SPLINE
  5
2a3
100
AcDbEntity
  8
Engrave_1
 62
7
100
AcDbSpline
 70
8
 71
3
 72
8
 73
4
 74
0
 40
0
 40
0
 40
0
 40
0
 40
1
 40
1
 40
1
 40
1
 10
125.426236
 20
171.627959
 30
0.0
 10
125.426236
 20
172.007266
 30
0.0
 10
125.435267
 20
171.953079
 30
0.0
 10
125.435267
 20
172.061452
 30
0.0
  0
SPLINE
  5
2a4
100
AcDbEntity
  8
Engrave_1
 62
7
100
AcDbSpline
 70
8
 71
3
 72
8
 73
4
 74
0
 40
0
 40
0
 40
0
 40
0
 40
1
 40
1
 40
1
 40
1
 10
125.435267
 20
172.061452
 30
0.0
 10
125.435267
 20
172.138217
 30
0.0
 10
125.417205
 20
172.187888
 30
0.0
 10
125.390111
 20
172.214981
 30
0.0
  0
SPLINE
  5
2a5
100
AcDbEntity
  8
Engrave_1
 62
7
100
AcDbSpline
 70
8
 71
3
 72
8
 73
4
 74
0
 40
0
 40
0
 40
0
 40
0
 40
1
 40
1
 40
1
 40
1
 10
125.390111
 20
172.214981
 30
0.0
 10
125.308831
 20
172.210466
 30
0.0
 10
125.232067
 20
172.201435
 30
0.0
 10
125.132725
 20
172.205950
 30
0.0
  0
SPLINE
  5
2a6
100
AcDbEntity
  8
Engrave_1
 62
7
100
AcDbSpline
 70
8
 71
3
 72
8
 73
4
 74
0
 40
0
 40
0
 40
0
 40
0
 40
1
 40
1
 40
1
 40
1
 10
125.132725
 20
172.205950
 30
0.0
 10
124.897916
 20
172.205950
 30
0.0
 10
124.730840
 20
172.210466
 30
0.0
 10
124.536671
 20
172.214981
 30
0.0
  0
SPLINE
  5
2a7
100
AcDbEntity
  8
Engrave_1
 62
7
100
AcDbSpline
 70
8
 71
3
 72
8
 73
4
 74
0
 40
0
 40
0
 40
0
 40
0
 40
1
 40
1
 40
1
 40
1
 10
124.536671
 20
172.214981
 30
0.0
 10
124.509578
 20
172.187888
 30
0.0
 10
124.509578
 20
172.088546
 30
0.0
 10
124.536671
 20
172.061452
 30
0.0
  0
SPLINE
  5
2a8
100
AcDbEntity
  8
Engrave_1
 62
7
100
AcDbSpline
 70
8
 71
3
 72
8
 73
4
 74
0
 40
0
 40
0
 40
0
 40
0
 40
1
 40
1
 40
1
 40
1
 10
124.536671
 20
172.061452
 30
0.0
 10
124.766965
 20
172.038875
 30
0.0
 10
124.839214
 20
172.007266
 30
0.0
 10
124.839214
 20
171.627959
 30
0.0
  0
LWPOLYLINE
  5
2a9
100
AcDbEntity
  8
Engrave_1
 62
7
100
AcDbPolyline
 90
2
 70
0
 10
125.426236
 20
170.846768
 30
0.0
 10
125.426236
 20
171.627959
 30
0.0
  0
SPLINE
  5
2aa
100
AcDbEntity
  8
Engrave_1
 62
7
100
AcDbSpline
 70
8
 71
3
 72
8
 73
4
 74
0
 40
0
 40
0
 40
0
 40
0
 40
1
 40
1
 40
1
 40
1
 10
124.839214
 20
170.788066
 30
0.0
 10
124.839214
 20
170.747426
 30
0.0
 10
124.839214
 20
170.702270
 30
0.0
 10
124.839214
 20
170.652599
 30
0.0
  0
SPLINE
  5
2ab
100
AcDbEntity
  8
Engrave_1
 62
7
100
AcDbSpline
 70
8
 71
3
 72
8
 73
4
 74
0
 40
0
 40
0
 40
0
 40
0
 40
1
 40
1
 40
1
 40
1
 10
124.839214
 20
170.652599
 30
0.0
 10
124.658591
 20
170.539710
 30
0.0
 10
124.505062
 20
170.530679
 30
0.0
 10
124.428298
 20
170.530679
 30
0.0
  0
SPLINE
  5
2ac
100
AcDbEntity
  8
Engrave_1
 62
7
100
AcDbSpline
 70
8
 71
3
 72
8
 73
4
 74
0
 40
0
 40
0
 40
0
 40
0
 40
1
 40
1
 40
1
 40
1
 10
124.428298
 20
170.530679
 30
0.0
 10
124.247676
 20
170.530679
 30
0.0
 10
124.112209
 20
170.553257
 30
0.0
 10
124.112209
 20
170.869346
 30
0.0
  0
LWPOLYLINE
  5
2ad
100
AcDbEntity
  8
Engrave_1
 62
7
100
AcDbPolyline
 90
2
 70
0
 10
124.839214
 20
171.627959
 30
0.0
 10
124.839214
 20
170.788066
 30
0.0
  0
SPLINE
  5
2ae
100
AcDbEntity
  8
Engrave_1
 62
7
100
AcDbSpline
 70
8
 71
3
 72
8
 73
4
 74
0
 40
0
 40
0
 40
0
 40
0
 40
1
 40
1
 40
1
 40
1
 10
124.112209
 20
171.623444
 30
0.0
 10
124.112209
 20
172.002750
 30
0.0
 10
124.121240
 20
171.948564
 30
0.0
 10
124.121240
 20
172.056937
 30
0.0
  0
SPLINE
  5
2af
100
AcDbEntity
  8
Engrave_1
 62
7
100
AcDbSpline
 70
8
 71
3
 72
8
 73
4
 74
0
 40
0
 40
0
 40
0
 40
0
 40
1
 40
1
 40
1
 40
1
 10
124.121240
 20
172.056937
 30
0.0
 10
124.121240
 20
172.133701
 30
0.0
 10
124.103178
 20
172.183372
 30
0.0
 10
124.076085
 20
172.210466
 30
0.0
  0
SPLINE
  5
2b0
100
AcDbEntity
  8
Engrave_1
 62
7
100
AcDbSpline
 70
8
 71
3
 72
8
 73
4
 74
0
 40
0
 40
0
 40
0
 40
0
 40
1
 40
1
 40
1
 40
1
 10
124.076085
 20
172.210466
 30
0.0
 10
123.994805
 20
172.205950
 30
0.0
 10
123.918040
 20
172.201435
 30
0.0
 10
123.818698
 20
172.201435
 30
0.0
  0
SPLINE
  5
2b1
100
AcDbEntity
  8
Engrave_1
 62
7
100
AcDbSpline
 70
8
 71
3
 72
8
 73
4
 74
0
 40
0
 40
0
 40
0
 40
0
 40
1
 40
1
 40
1
 40
1
 10
123.818698
 20
172.201435
 30
0.0
 10
123.583889
 20
172.201435
 30
0.0
 10
123.416814
 20
172.205950
 30
0.0
 10
123.222645
 20
172.210466
 30
0.0
  0
SPLINE
  5
2b2
100
AcDbEntity
  8
Engrave_1
 62
7
100
AcDbSpline
 70
8
 71
3
 72
8
 73
4
 74
0
 40
0
 40
0
 40
0
 40
0
 40
1
 40
1
 40
1
 40
1
 10
123.222645
 20
172.210466
 30
0.0
 10
123.195551
 20
172.183372
 30
0.0
 10
123.195551
 20
172.084030
 30
0.0
 10
123.222645
 20
172.056937
 30
0.0
  0
SPLINE
  5
2b3
100
AcDbEntity
  8
Engrave_1
 62
7
100
AcDbSpline
 70
8
 71
3
 72
8
 73
4
 74
0
 40
0
 40
0
 40
0
 40
0
 40
1
 40
1
 40
1
 40
1
 10
123.222645
 20
172.056937
 30
0.0
 10
123.430360
 20
172.047906
 30
0.0
 10
123.525187
 20
172.002750
 30
0.0
 10
123.525187
 20
171.623444
 30
0.0
  0
LWPOLYLINE
  5
2b4
100
AcDbEntity
  8
Engrave_1
 62
7
100
AcDbPolyline
 90
2
 70
0
 10
124.112209
 20
170.869346
 30
0.0
 10
124.112209
 20
171.623444
 30
0.0
  0
SPLINE
  5
2b5
100
AcDbEntity
  8
Engrave_1
 62
7
100
AcDbSpline
 70
8
 71
3
 72
8
 73
4
 74
0
 40
0
 40
0
 40
0
 40
0
 40
1
 40
1
 40
1
 40
1
 10
123.525187
 20
170.919017
 30
0.0
 10
123.525187
 20
170.440368
 30
0.0
 10
123.714840
 20
170.196528
 30
0.0
 10
124.103178
 20
170.196528
 30
0.0
  0
SPLINE
  5
2b6
100
AcDbEntity
  8
Engrave_1
 62
7
100
AcDbSpline
 70
8
 71
3
 72
8
 73
4
 74
0
 40
0
 40
0
 40
0
 40
0
 40
1
 40
1
 40
1
 40
1
 10
124.103178
 20
170.196528
 30
0.0
 10
124.265738
 20
170.196528
 30
0.0
 10
124.595374
 20
170.327479
 30
0.0
 10
124.852760
 20
170.471977
 30
0.0
  0
SPLINE
  5
2b7
100
AcDbEntity
  8
Engrave_1
 62
7
100
AcDbSpline
 70
8
 71
3
 72
8
 73
4
 74
0
 40
0
 40
0
 40
0
 40
0
 40
1
 40
1
 40
1
 40
1
 10
124.852760
 20
170.471977
 30
0.0
 10
124.861791
 20
170.359088
 30
0.0
 10
124.875338
 20
170.273292
 30
0.0
 10
124.875338
 20
170.273292
 30
0.0
  0
SPLINE
  5
2b8
100
AcDbEntity
  8
Engrave_1
 62
7
100
AcDbSpline
 70
8
 71
3
 72
8
 73
4
 74
0
 40
0
 40
0
 40
0
 40
0
 40
1
 40
1
 40
1
 40
1
 10
124.875338
 20
170.273292
 30
0.0
 10
124.875338
 20
170.219106
 30
0.0
 10
124.915978
 20
170.196528
 30
0.0
 10
124.979196
 20
170.196528
 30
0.0
  0
SPLINE
  5
2b9
100
AcDbEntity
  8
Engrave_1
 62
7
100
AcDbSpline
 70
8
 71
3
 72
8
 73
4
 74
0
 40
0
 40
0
 40
0
 40
0
 40
1
 40
1
 40
1
 40
1
 10
124.979196
 20
170.196528
 30
0.0
 10
125.146271
 20
170.241684
 30
0.0
 10
125.417205
 20
170.304901
 30
0.0
 10
125.728778
 20
170.345541
 30
0.0
  0
SPLINE
  5
2ba
100
AcDbEntity
  8
Engrave_1
 62
7
100
AcDbSpline
 70
8
 71
3
 72
8
 73
4
 74
0
 40
0
 40
0
 40
0
 40
0
 40
1
 40
1
 40
1
 40
1
 10
125.728778
 20
170.345541
 30
0.0
 10
125.737809
 20
170.372635
 30
0.0
 10
125.728778
 20
170.462946
 30
0.0
 10
125.719747
 20
170.490039
 30
0.0
  0
SPLINE
  5
2bb
100
AcDbEntity
  8
Engrave_1
 62
7
100
AcDbSpline
 70
8
 71
3
 72
8
 73
4
 74
0
 40
0
 40
0
 40
0
 40
0
 40
1
 40
1
 40
1
 40
1
 10
125.719747
 20
170.490039
 30
0.0
 10
125.471391
 20
170.517132
 30
0.0
 10
125.426236
 20
170.584866
 30
0.0
 10
125.426236
 20
170.842252
 30
0.0
  0
LWPOLYLINE
  5
2bc
100
AcDbEntity
  8
Engrave_1
 62
7
100
AcDbPolyline
 90
2
 70
0
 10
123.525187
 20
171.623444
 30
0.0
 10
123.525187
 20
170.919017
 30
0.0
  0
SPLINE
  5
2bd
100
AcDbEntity
  8
Engrave_1
 62
7
100
AcDbSpline
 70
8
 71
3
 72
8
 73
4
 74
0
 40
0
 40
0
 40
0
 40
0
 40
1
 40
1
 40
1
 40
1
 10
126.273608
 20
170.819675
 30
0.0
 10
126.273608
 20
170.444884
 30
0.0
 10
126.201359
 20
170.404244
 30
0.0
 10
125.925910
 20
170.390697
 30
0.0
  0
SPLINE
  5
2be
100
AcDbEntity
  8
Engrave_1
 62
7
100
AcDbSpline
 70
8
 71
3
 72
8
 73
4
 74
0
 40
0
 40
0
 40
0
 40
0
 40
1
 40
1
 40
1
 40
1
 10
125.925910
 20
170.390697
 30
0.0
 10
125.898817
 20
170.363604
 30
0.0
 10
125.898817
 20
170.264261
 30
0.0
 10
125.925910
 20
170.237168
 30
0.0
  0
SPLINE
  5
2bf
100
AcDbEntity
  8
Engrave_1
 62
7
100
AcDbSpline
 70
8
 71
3
 72
8
 73
4
 74
0
 40
0
 40
0
 40
0
 40
0
 40
1
 40
1
 40
1
 40
1
 10
125.925910
 20
170.237168
 30
0.0
 10
126.115564
 20
170.241684
 30
0.0
 10
126.314248
 20
170.246199
 30
0.0
 10
126.567119
 20
170.246199
 30
0.0
  0
SPLINE
  5
2c0
100
AcDbEntity
  8
Engrave_1
 62
7
100
AcDbSpline
 70
8
 71
3
 72
8
 73
4
 74
0
 40
0
 40
0
 40
0
 40
0
 40
1
 40
1
 40
1
 40
1
 10
126.567119
 20
170.246199
 30
0.0
 10
126.761288
 20
170.246199
 30
0.0
 10
126.964488
 20
170.241684
 30
0.0
 10
127.072861
 20
170.237168
 30
0.0
  0
SPLINE
  5
2c1
100
AcDbEntity
  8
Engrave_1
 62
7
100
AcDbSpline
 70
8
 71
3
 72
8
 73
4
 74
0
 40
0
 40
0
 40
0
 40
0
 40
1
 40
1
 40
1
 40
1
 10
127.072861
 20
170.237168
 30
0.0
 10
127.099955
 20
170.264261
 30
0.0
 10
127.099955
 20
170.363604
 30
0.0
 10
127.072861
 20
170.390697
 30
0.0
  0
SPLINE
  5
2c2
100
AcDbEntity
  8
Engrave_1
 62
7
100
AcDbSpline
 70
8
 71
3
 72
8
 73
4
 74
0
 40
0
 40
0
 40
0
 40
0
 40
1
 40
1
 40
1
 40
1
 10
127.072861
 20
170.390697
 30
0.0
 10
126.932879
 20
170.404244
 30
0.0
 10
126.860630
 20
170.444884
 30
0.0
 10
126.860630
 20
170.819675
 30
0.0
  0
LWPOLYLINE
  5
2c3
100
AcDbEntity
  8
Engrave_1
 62
7
100
AcDbPolyline
 90
2
 70
0
 10
125.426236
 20
170.842252
 30
0.0
 10
125.426236
 20
170.846768
 30
0.0
  0
SPLINE
  5
2c4
100
AcDbEntity
  8
Engrave_1
 62
7
100
AcDbSpline
 70
8
 71
3
 72
8
 73
4
 74
0
 40
0
 40
0
 40
0
 40
0
 40
1
 40
1
 40
1
 40
1
 10
126.860630
 20
171.189950
 30
0.0
 10
126.987066
 20
171.189950
 30
0.0
 10
127.122532
 20
171.171888
 30
0.0
 10
127.172204
 20
171.104155
 30
0.0
  0
SPLINE
  5
2c5
100
AcDbEntity
  8
Engrave_1
 62
7
100
AcDbSpline
 70
8
 71
3
 72
8
 73
4
 74
0
 40
0
 40
0
 40
0
 40
0
 40
1
 40
1
 40
1
 40
1
 10
127.172204
 20
171.104155
 30
0.0
 10
127.276061
 20
170.950626
 30
0.0
 10
127.402497
 20
170.760972
 30
0.0
 10
127.479261
 20
170.598412
 30
0.0
  0
SPLINE
  5
2c6
100
AcDbEntity
  8
Engrave_1
 62
7
100
AcDbSpline
 70
8
 71
3
 72
8
 73
4
 74
0
 40
0
 40
0
 40
0
 40
0
 40
1
 40
1
 40
1
 40
1
 10
127.479261
 20
170.598412
 30
0.0
 10
127.537964
 20
170.471977
 30
0.0
 10
127.551510
 20
170.431337
 30
0.0
 10
127.551510
 20
170.363604
 30
0.0
  0
LWPOLYLINE
  5
2c7
100
AcDbEntity
  8
Engrave_1
 62
7
100
AcDbPolyline
 90
2
 70
0
 10
126.860630
 20
170.819675
 30
0.0
 10
126.860630
 20
171.189950
 30
0.0
  0
SPLINE
  5
2c8
100
AcDbEntity
  8
Engrave_1
 62
7
100
AcDbSpline
 70
8
 71
3
 72
8
 73
4
 74
0
 40
0
 40
0
 40
0
 40
0
 40
1
 40
1
 40
1
 40
1
 10
127.560541
 20
170.237168
 30
0.0
 10
127.560541
 20
170.237168
 30
0.0
 10
127.763741
 20
170.246199
 30
0.0
 10
127.921786
 20
170.246199
 30
0.0
  0
SPLINE
  5
2c9
100
AcDbEntity
  8
Engrave_1
 62
7
100
AcDbSpline
 70
8
 71
3
 72
8
 73
4
 74
0
 40
0
 40
0
 40
0
 40
0
 40
1
 40
1
 40
1
 40
1
 10
127.921786
 20
170.246199
 30
0.0
 10
128.106924
 20
170.246199
 30
0.0
 10
128.359795
 20
170.241684
 30
0.0
 10
128.526870
 20
170.237168
 30
0.0
  0
SPLINE
  5
2ca
100
AcDbEntity
  8
Engrave_1
 62
7
100
AcDbSpline
 70
8
 71
3
 72
8
 73
4
 74
0
 40
0
 40
0
 40
0
 40
0
 40
1
 40
1
 40
1
 40
1
 10
128.526870
 20
170.237168
 30
0.0
 10
128.553964
 20
170.264261
 30
0.0
 10
128.553964
 20
170.363604
 30
0.0
 10
128.526870
 20
170.390697
 30
0.0
  0
SPLINE
  5
2cb
100
AcDbEntity
  8
Engrave_1
 62
7
100
AcDbSpline
 70
8
 71
3
 72
8
 73
4
 74
0
 40
0
 40
0
 40
0
 40
0
 40
1
 40
1
 40
1
 40
1
 10
128.526870
 20
170.390697
 30
0.0
 10
128.350764
 20
170.404244
 30
0.0
 10
128.251421
 20
170.395212
 30
0.0
 10
128.115955
 20
170.598412
 30
0.0
  0
LWPOLYLINE
  5
2cc
100
AcDbEntity
  8
Engrave_1
 62
7
100
AcDbPolyline
 90
3
 70
0
 10
127.551510
 20
170.363604
 30
0.0
 10
127.551510
 20
170.246199
 30
0.0
 10
127.560541
 20
170.237168
 30
0.0
  0
SPLINE
  5
2cd
100
AcDbEntity
  8
Engrave_1
 62
7
100
AcDbSpline
 70
8
 71
3
 72
8
 73
4
 74
0
 40
0
 40
0
 40
0
 40
0
 40
1
 40
1
 40
1
 40
1
 10
127.592150
 20
171.370572
 30
0.0
 10
127.569572
 20
171.402181
 30
0.0
 10
127.556026
 20
171.438306
 30
0.0
 10
127.578604
 20
171.460884
 30
0.0
  0
LWPOLYLINE
  5
2ce
100
AcDbEntity
  8
Engrave_1
 62
7
100
AcDbPolyline
 90
2
 70
0
 10
128.115955
 20
170.598412
 30
0.0
 10
127.592150
 20
171.370572
 30
0.0
  0
SPLINE
  5
2cf
100
AcDbEntity
  8
Engrave_1
 62
7
100
AcDbSpline
 70
8
 71
3
 72
8
 73
4
 74
0
 40
0
 40
0
 40
0
 40
0
 40
1
 40
1
 40
1
 40
1
 10
127.799866
 20
171.704724
 30
0.0
 10
127.944364
 20
171.867284
 30
0.0
 10
128.070799
 20
172.020812
 30
0.0
 10
128.413981
 20
172.061452
 30
0.0
  0
SPLINE
  5
2d0
100
AcDbEntity
  8
Engrave_1
 62
7
100
AcDbSpline
 70
8
 71
3
 72
8
 73
4
 74
0
 40
0
 40
0
 40
0
 40
0
 40
1
 40
1
 40
1
 40
1
 10
128.413981
 20
172.061452
 30
0.0
 10
128.441075
 20
172.088546
 30
0.0
 10
128.441075
 20
172.187888
 30
0.0
 10
128.413981
 20
172.214981
 30
0.0
  0
SPLINE
  5
2d1
100
AcDbEntity
  8
Engrave_1
 62
7
100
AcDbSpline
 70
8
 71
3
 72
8
 73
4
 74
0
 40
0
 40
0
 40
0
 40
0
 40
1
 40
1
 40
1
 40
1
 10
128.413981
 20
172.214981
 30
0.0
 10
128.314639
 20
172.210466
 30
0.0
 10
128.030159
 20
172.205950
 30
0.0
 10
127.912755
 20
172.205950
 30
0.0
  0
SPLINE
  5
2d2
100
AcDbEntity
  8
Engrave_1
 62
7
100
AcDbSpline
 70
8
 71
3
 72
8
 73
4
 74
0
 40
0
 40
0
 40
0
 40
0
 40
1
 40
1
 40
1
 40
1
 10
127.912755
 20
172.205950
 30
0.0
 10
127.745679
 20
172.205950
 30
0.0
 10
127.533448
 20
172.210466
 30
0.0
 10
127.366372
 20
172.214981
 30
0.0
  0
SPLINE
  5
2d3
100
AcDbEntity
  8
Engrave_1
 62
7
100
AcDbSpline
 70
8
 71
3
 72
8
 73
4
 74
0
 40
0
 40
0
 40
0
 40
0
 40
1
 40
1
 40
1
 40
1
 10
127.366372
 20
172.214981
 30
0.0
 10
127.339279
 20
172.187888
 30
0.0
 10
127.339279
 20
172.088546
 30
0.0
 10
127.366372
 20
172.061452
 30
0.0
  0
SPLINE
  5
2d4
100
AcDbEntity
  8
Engrave_1
 62
7
100
AcDbSpline
 70
8
 71
3
 72
8
 73
4
 74
0
 40
0
 40
0
 40
0
 40
0
 40
1
 40
1
 40
1
 40
1
 10
127.366372
 20
172.061452
 30
0.0
 10
127.610212
 20
172.043390
 30
0.0
 10
127.677946
 20
171.998235
 30
0.0
 10
127.551510
 20
171.822128
 30
0.0
  0
SPLINE
  5
2d5
100
AcDbEntity
  8
Engrave_1
 62
7
100
AcDbSpline
 70
8
 71
3
 72
8
 73
4
 74
0
 40
0
 40
0
 40
0
 40
0
 40
1
 40
1
 40
1
 40
1
 10
127.551510
 20
171.822128
 30
0.0
 10
127.452168
 20
171.682146
 30
0.0
 10
127.352826
 20
171.573772
 30
0.0
 10
127.262515
 20
171.497008
 30
0.0
  0
SPLINE
  5
2d6
100
AcDbEntity
  8
Engrave_1
 62
7
100
AcDbSpline
 70
8
 71
3
 72
8
 73
4
 74
0
 40
0
 40
0
 40
0
 40
0
 40
1
 40
1
 40
1
 40
1
 10
127.262515
 20
171.497008
 30
0.0
 10
127.203812
 20
171.447337
 30
0.0
 10
126.996097
 20
171.370572
 30
0.0
 10
126.860630
 20
171.370572
 30
0.0
  0
LWPOLYLINE
  5
2d7
100
AcDbEntity
  8
Engrave_1
 62
7
100
AcDbPolyline
 90
2
 70
0
 10
127.578604
 20
171.460884
 30
0.0
 10
127.799866
 20
171.704724
 30
0.0
  0
SPLINE
  5
2d8
100
AcDbEntity
  8
Engrave_1
 62
7
100
AcDbSpline
 70
8
 71
3
 72
8
 73
4
 74
0
 40
0
 40
0
 40
0
 40
0
 40
1
 40
1
 40
1
 40
1
 10
126.860630
 20
172.878768
 30
0.0
 10
126.860630
 20
173.172279
 30
0.0
 10
126.874177
 20
173.339355
 30
0.0
 10
126.874177
 20
173.339355
 30
0.0
  0
SPLINE
  5
2d9
100
AcDbEntity
  8
Engrave_1
 62
7
100
AcDbSpline
 70
8
 71
3
 72
8
 73
4
 74
0
 40
0
 40
0
 40
0
 40
0
 40
1
 40
1
 40
1
 40
1
 10
126.874177
 20
173.339355
 30
0.0
 10
126.874177
 20
173.379995
 30
0.0
 10
126.842568
 20
173.398057
 30
0.0
 10
126.801928
 20
173.398057
 30
0.0
  0
SPLINE
  5
2da
100
AcDbEntity
  8
Engrave_1
 62
7
100
AcDbSpline
 70
8
 71
3
 72
8
 73
4
 74
0
 40
0
 40
0
 40
0
 40
0
 40
1
 40
1
 40
1
 40
1
 10
126.801928
 20
173.398057
 30
0.0
 10
126.634852
 20
173.343870
 30
0.0
 10
126.273608
 20
173.294199
 30
0.0
 10
125.953004
 20
173.280652
 30
0.0
  0
SPLINE
  5
2db
100
AcDbEntity
  8
Engrave_1
 62
7
100
AcDbSpline
 70
8
 71
3
 72
8
 73
4
 74
0
 40
0
 40
0
 40
0
 40
0
 40
1
 40
1
 40
1
 40
1
 10
125.953004
 20
173.280652
 30
0.0
 10
125.939457
 20
173.226466
 30
0.0
 10
125.943972
 20
173.176795
 30
0.0
 10
125.966550
 20
173.136155
 30
0.0
  0
SPLINE
  5
2dc
100
AcDbEntity
  8
Engrave_1
 62
7
100
AcDbSpline
 70
8
 71
3
 72
8
 73
4
 74
0
 40
0
 40
0
 40
0
 40
0
 40
1
 40
1
 40
1
 40
1
 10
125.966550
 20
173.136155
 30
0.0
 10
126.251030
 20
173.113577
 30
0.0
 10
126.273608
 20
173.104546
 30
0.0
 10
126.273608
 20
172.797488
 30
0.0
  0
LWPOLYLINE
  5
2dd
100
AcDbEntity
  8
Engrave_1
 62
7
100
AcDbPolyline
 90
2
 70
0
 10
126.860630
 20
171.370572
 30
0.0
 10
126.860630
 20
172.878768
 30
0.0
  0
LWPOLYLINE
  5
2de
100
AcDbEntity
  8
Engrave_1
 62
7
100
AcDbPolyline
 90
2
 70
0
 10
126.273608
 20
172.797488
 30
0.0
 10
126.273608
 20
170.819675
 30
0.0
  0
ENDSEC
  0
SECTION
  2
OBJECTS
  0
DICTIONARY
  5
C
330
0
100
AcDbDictionary
  3
ACAD_GROUP
350
D
  3
ACAD_MLINESTYLE
350
17
  0
DICTIONARY
  5
D
330
C
100
AcDbDictionary
  0
DICTIONARY
  5
1A
330
C
100
AcDbDictionary
  0
DICTIONARY
  5
17
330
C
100
AcDbDictionary
  3
STANDARD
350
18
  0
DICTIONARY
  5
19
330
C
100
AcDbDictionary
  0
ENDSEC
  0
EOF
